BriemScript-Regular.ufo
<glyph name="exclam" format="2">
  <advance width="289.74107142857144"/>
  <unicode hex="0021"/>
  <outline>
    <contour>
      <point x="126.61964285714286" y="212.46428571428572" type="curve" smooth="yes"/>
      <point x="154.95714285714286" y="212.46428571428572"/>
      <point x="179.5625" y="218.95714285714286"/>
      <point x="181.30892857142857" y="231.3607142857143" type="curve" smooth="yes"/>
      <point x="182.18214285714285" y="256.9946428571429"/>
      <point x="227.7125" y="545.4982142857143"/>
      <point x="227.7125" y="612.4607142857143" type="curve" smooth="yes"/>
      <point x="227.7125" y="640.2535714285714"/>
      <point x="175.68035714285713" y="652.0"/>
      <point x="142.67142857142858" y="652.0" type="curve" smooth="yes"/>
      <point x="127.68571428571428" y="652.0"/>
      <point x="116.93928571428572" y="648.2535714285714"/>
      <point x="116.93928571428572" y="637.0517857142858" type="curve" smooth="yes"/>
      <point x="116.93928571428572" y="608.4464285714286"/>
      <point x="106.34285714285714" y="265.79285714285714"/>
      <point x="106.34285714285714" y="219.79285714285714" type="curve" smooth="yes"/>
      <point x="106.34285714285714" y="214.3375"/>
      <point x="117.0" y="212.46428571428572"/>
    </contour>
    <contour>
      <point x="124.68035714285715" y="-0.2910714285714286" type="curve" smooth="yes"/>
      <point x="158.99464285714285" y="-0.2910714285714286"/>
      <point x="189.05535714285713" y="18.74642857142857"/>
      <point x="189.05535714285713" y="56.135714285714286" type="curve" smooth="yes"/>
      <point x="189.05535714285713" y="92.75535714285715"/>
      <point x="167.94285714285715" y="119.81607142857143"/>
      <point x="142.00892857142858" y="119.81607142857143" type="curve" smooth="yes"/>
      <point x="114.40357142857142" y="119.81607142857143"/>
      <point x="76.34285714285714" y="91.70357142857142"/>
      <point x="76.34285714285714" y="50.71785714285714" type="curve" smooth="yes"/>
      <point x="76.34285714285714" y="14.910714285714286"/>
      <point x="95.40357142857142" y="-0.2910714285714286"/>
    </contour>
  </outline>
</glyph>
<glyph name="quotedbl" format="2">
  <advance width="354.00357142857143"/>
  <unicode hex="0022"/>
  <outline>
    <contour>
      <point x="265.95714285714286" y="440.35714285714283" type="curve" smooth="yes"/>
      <point x="281.6517857142857" y="440.35714285714283"/>
      <point x="289.2714285714286" y="448.6482142857143"/>
      <point x="305.8910714285714" y="487.39464285714286" type="curve" smooth="yes"/>
      <point x="323.7125" y="528.5446428571429"/>
      <point x="357.75" y="619.1410714285714"/>
      <point x="357.75" y="632.7607142857142" type="curve" smooth="yes"/>
      <point x="357.75" y="647.9625"/>
      <point x="340.76428571428573" y="651.7089285714286"/>
      <point x="307.375" y="651.7089285714286" type="curve" smooth="yes"/>
      <point x="271.98571428571427" y="651.7089285714286"/>
      <point x="255.0375" y="644.5446428571429"/>
      <point x="253.61964285714285" y="620.6339285714286" type="curve" smooth="yes"/>
      <point x="251.49285714285713" y="588.2535714285714"/>
      <point x="245.1875" y="487.6196428571429"/>
      <point x="246.06071428571428" y="469.41785714285714" type="curve" smooth="yes"/>
      <point x="247.51607142857142" y="445.6857142857143"/>
      <point x="252.3892857142857" y="440.35714285714283"/>
    </contour>
    <contour>
      <point x="76.89642857142857" y="440.6482142857143" type="curve" smooth="yes"/>
      <point x="92.59107142857142" y="440.6482142857143"/>
      <point x="100.21071428571429" y="448.9392857142857"/>
      <point x="116.83035714285714" y="487.6857142857143" type="curve" smooth="yes"/>
      <point x="134.65178571428572" y="528.8357142857143"/>
      <point x="168.68928571428572" y="619.4321428571428"/>
      <point x="168.68928571428572" y="633.0517857142858" type="curve" smooth="yes"/>
      <point x="168.68928571428572" y="648.2535714285714"/>
      <point x="151.70357142857142" y="652.0"/>
      <point x="118.31428571428572" y="652.0" type="curve" smooth="yes"/>
      <point x="82.925" y="652.0"/>
      <point x="65.97678571428571" y="644.8357142857143"/>
      <point x="64.55892857142857" y="620.925" type="curve" smooth="yes"/>
      <point x="62.43214285714286" y="588.5446428571429"/>
      <point x="56.12678571428572" y="487.9107142857143"/>
      <point x="57.0" y="469.70892857142854" type="curve" smooth="yes"/>
      <point x="58.455357142857146" y="445.9767857142857"/>
      <point x="63.32857142857143" y="440.6482142857143"/>
    </contour>
  </outline>
</glyph>
<glyph name="numbersign" format="2">
  <advance width="622.575"/>
  <unicode hex="0023"/>
  <outline>
    <contour>
      <point x="203.5482142857143" y="-13.0" type="curve" smooth="yes"/>
      <point x="220.6982142857143" y="-13.0"/>
      <point x="222.8625" y="-8.544642857142858"/>
      <point x="222.8625" y="1.1125000000000007" type="curve" smooth="yes"/>
      <point x="222.8625" y="53.20178571428571"/>
      <point x="225.57142857142858" y="121.12678571428572"/>
      <point x="228.98928571428573" y="191.0517857142857" type="curve"/>
      <point x="384.16785714285714" y="191.0517857142857" type="line"/>
      <point x="378.4589285714286" y="97.45535714285714"/>
      <point x="373.33214285714286" y="29.1875"/>
      <point x="373.33214285714286" y="23.896428571428572" type="curve" smooth="yes"/>
      <point x="373.33214285714286" y="-1.089285714285714"/>
      <point x="415.41607142857146" y="-13.0"/>
      <point x="447.73035714285714" y="-13.0" type="curve" smooth="yes"/>
      <point x="464.1714285714286" y="-13.0"/>
      <point x="467.0446428571429" y="-8.544642857142858"/>
      <point x="467.0446428571429" y="1.1125000000000007" type="curve" smooth="yes"/>
      <point x="467.0446428571429" y="53.20178571428571"/>
      <point x="469.0446428571429" y="121.12678571428572"/>
      <point x="472.4625" y="191.0517857142857" type="curve"/>
      <point x="556.8428571428572" y="191.0517857142857" type="line" smooth="yes"/>
      <point x="572.5517857142858" y="191.0517857142857"/>
      <point x="580.7160714285715" y="210.925"/>
      <point x="580.7160714285715" y="234.1642857142857" type="curve" smooth="yes"/>
      <point x="580.7160714285715" y="245.1125"/>
      <point x="577.7160714285715" y="247.40357142857144"/>
      <point x="571.2607142857142" y="247.40357142857144" type="curve" smooth="yes"/>
      <point x="473.6267857142857" y="247.40357142857144" type="line"/>
      <point x="475.6267857142857" y="302.9107142857143"/>
      <point x="479.3357142857143" y="357.1267857142857"/>
      <point x="482.75357142857143" y="405.46964285714284" type="curve"/>
      <point x="571.8428571428572" y="405.46964285714284" type="line" smooth="yes"/>
      <point x="587.5517857142858" y="405.46964285714284"/>
      <point x="595.7160714285715" y="424.63392857142856"/>
      <point x="595.7160714285715" y="447.8732142857143" type="curve" smooth="yes"/>
      <point x="595.7160714285715" y="458.82142857142856"/>
      <point x="592.7160714285715" y="461.1125"/>
      <point x="586.2607142857142" y="461.1125" type="curve" smooth="yes"/>
      <point x="484.6267857142857" y="461.1125" type="line"/>
      <point x="490.4625" y="546.7982142857143"/>
      <point x="495.5892857142857" y="610.5214285714286"/>
      <point x="495.5892857142857" y="615.8125" type="curve" smooth="yes"/>
      <point x="495.5892857142857" y="641.0892857142857"/>
      <point x="453.5053571428572" y="652.0"/>
      <point x="422.19107142857143" y="652.0" type="curve" smooth="yes"/>
      <point x="404.75" y="652.0"/>
      <point x="402.8767857142857" y="648.5446428571429"/>
      <point x="402.8767857142857" y="638.5964285714285" type="curve" smooth="yes"/>
      <point x="401.4589285714286" y="602.5589285714286"/>
      <point x="399.04107142857146" y="536.6714285714286"/>
      <point x="395.33214285714286" y="461.1125" type="curve"/>
      <point x="241.15357142857144" y="461.1125" type="line"/>
      <point x="246.28035714285716" y="546.7982142857143"/>
      <point x="252.11607142857144" y="610.5214285714286"/>
      <point x="252.11607142857144" y="615.8125" type="curve" smooth="yes"/>
      <point x="252.11607142857144" y="641.0892857142857"/>
      <point x="210.03214285714284" y="652.0"/>
      <point x="178.00892857142858" y="652.0" type="curve" smooth="yes"/>
      <point x="161.27678571428572" y="652.0"/>
      <point x="158.69464285714287" y="648.5446428571429"/>
      <point x="158.69464285714287" y="638.5964285714285" type="curve" smooth="yes"/>
      <point x="157.9857142857143" y="602.5589285714286"/>
      <point x="154.85892857142858" y="536.6714285714286"/>
      <point x="151.85892857142858" y="461.1125" type="curve"/>
      <point x="68.64285714285714" y="461.1125" type="line" smooth="yes"/>
      <point x="52.225" y="461.1125"/>
      <point x="44.769642857142856" y="441.2392857142857"/>
      <point x="44.769642857142856" y="418.0" type="curve" smooth="yes"/>
      <point x="44.769642857142856" y="407.0517857142857"/>
      <point x="47.769642857142856" y="405.46964285714284"/>
      <point x="54.225" y="405.46964285714284" type="curve" smooth="yes"/>
      <point x="150.69464285714287" y="405.46964285714284" type="line"/>
      <point x="141.85892857142858" y="247.40357142857144" type="line"/>
      <point x="53.642857142857146" y="247.40357142857144" type="line" smooth="yes"/>
      <point x="37.225" y="247.40357142857144"/>
      <point x="29.769642857142856" y="227.53035714285716"/>
      <point x="29.769642857142856" y="204.29107142857143" type="curve" smooth="yes"/>
      <point x="29.769642857142856" y="193.34285714285716"/>
      <point x="32.06071428571428" y="191.0517857142857"/>
      <point x="38.51607142857143" y="191.0517857142857" type="curve" smooth="yes"/>
      <point x="140.40357142857144" y="191.0517857142857" type="line"/>
      <point x="134.27678571428572" y="99.20178571428572"/>
      <point x="129.85892857142858" y="29.478571428571428"/>
      <point x="129.85892857142858" y="23.896428571428572" type="curve" smooth="yes"/>
      <point x="129.85892857142858" y="-1.089285714285714"/>
      <point x="171.94285714285715" y="-13.0"/>
    </contour>
    <contour>
      <point x="228.7357142857143" y="245.27678571428572" type="line"/>
      <point x="237.57142857142858" y="406.8875" type="line"/>
      <point x="394.8767857142857" y="406.8875" type="line"/>
      <point x="386.04107142857146" y="245.27678571428572" type="line"/>
    </contour>
  </outline>
</glyph>
<glyph name="dollar" format="2">
  <advance width="527.0607142857143"/>
  <unicode hex="0024"/>
  <outline>
    <contour>
      <point x="284.4267857142857" y="-188.70357142857142" type="curve" smooth="yes"/>
      <point x="300.2857142857143" y="-188.70357142857142"/>
      <point x="301.86785714285713" y="-183.95714285714286"/>
      <point x="301.86785714285713" y="-173.1357142857143" type="curve" smooth="yes"/>
      <point x="301.86785714285713" y="-126.76964285714286"/>
      <point x="302.7035714285714" y="-67.075"/>
      <point x="304.7035714285714" y="-5.380357142857143" type="curve"/>
      <point x="383.90535714285716" y="15.530357142857143"/>
      <point x="454.2107142857143" y="83.98571428571428"/>
      <point x="454.2107142857143" y="182.27678571428572" type="curve" smooth="yes"/>
      <point x="454.2107142857143" y="228.1875"/>
      <point x="434.7553571428571" y="263.5160714285714"/>
      <point x="402.7553571428571" y="295.68035714285713" type="curve" smooth="yes"/>
      <point x="367.84464285714284" y="331.0464285714286"/>
      <point x="279.36071428571427" y="384.60535714285714"/>
      <point x="245.65178571428572" y="418.0232142857143" type="curve" smooth="yes"/>
      <point x="218.7267857142857" y="444.65714285714284"/>
      <point x="204.89107142857142" y="472.0"/>
      <point x="204.89107142857142" y="503.8875" type="curve" smooth="yes"/>
      <point x="204.89107142857142" y="566.625"/>
      <point x="250.4125" y="587.0946428571428"/>
      <point x="282.3375" y="587.0946428571428" type="curve" smooth="yes"/>
      <point x="347.3142857142857" y="587.0946428571428"/>
      <point x="389.0607142857143" y="555.3714285714286"/>
      <point x="413.3517857142857" y="535.1553571428572" type="curve" smooth="yes"/>
      <point x="426.8071428571429" y="524.3196428571429"/>
      <point x="435.55357142857144" y="515.6107142857143"/>
      <point x="443.00892857142856" y="515.6107142857143" type="curve" smooth="yes"/>
      <point x="454.4642857142857" y="515.6107142857143"/>
      <point x="460.62857142857143" y="534.3946428571429"/>
      <point x="460.62857142857143" y="565.8875" type="curve" smooth="yes"/>
      <point x="460.62857142857143" y="578.2910714285714"/>
      <point x="457.7553571428571" y="589.9107142857143"/>
      <point x="443.3142857142857" y="599.4035714285715" type="curve" smooth="yes"/>
      <point x="415.64285714285717" y="626.0"/>
      <point x="374.88214285714287" y="643.5446428571429"/>
      <point x="332.2107142857143" y="648.8357142857143" type="curve"/>
      <point x="336.3375" y="714.85"/>
      <point x="340.4642857142857" y="762.3196428571429"/>
      <point x="340.4642857142857" y="766.6107142857143" type="curve" smooth="yes"/>
      <point x="340.4642857142857" y="793.925"/>
      <point x="301.41785714285714" y="806.0"/>
      <point x="270.85" y="806.0" type="curve" smooth="yes"/>
      <point x="255.7" y="806.0"/>
      <point x="253.40892857142856" y="801.9625"/>
      <point x="253.40892857142856" y="791.1410714285714" type="curve" smooth="yes"/>
      <point x="252.7" y="760.5214285714286"/>
      <point x="251.57321428571427" y="708.1410714285714"/>
      <point x="249.44642857142858" y="648.0892857142857" type="curve"/>
      <point x="147.26785714285714" y="633.1410714285714"/>
      <point x="100.775" y="556.5964285714285"/>
      <point x="100.775" y="472.44642857142856" type="curve" smooth="yes"/>
      <point x="100.775" y="415.9535714285714"/>
      <point x="126.97678571428571" y="376.33392857142854"/>
      <point x="161.59642857142856" y="344.2964285714286" type="curve" smooth="yes"/>
      <point x="205.68571428571428" y="303.20714285714286"/>
      <point x="282.0053571428571" y="259.1928571428571"/>
      <point x="313.96785714285716" y="224.8125" type="curve" smooth="yes"/>
      <point x="335.63928571428573" y="201.72321428571428"/>
      <point x="349.89285714285717" y="176.21607142857144"/>
      <point x="349.89285714285717" y="143.32857142857142" type="curve" smooth="yes"/>
      <point x="349.89285714285717" y="80.21071428571429"/>
      <point x="292.9392857142857" y="53.74107142857143"/>
      <point x="254.39464285714286" y="53.74107142857143" type="curve" smooth="yes"/>
      <point x="187.0142857142857" y="53.74107142857143"/>
      <point x="140.8357142857143" y="81.91964285714286"/>
      <point x="112.29107142857143" y="103.84464285714286" type="curve" smooth="yes"/>
      <point x="95.45535714285714" y="117.225"/>
      <point x="86.58214285714286" y="128.06071428571428"/>
      <point x="79.67142857142858" y="128.06071428571428" type="curve" smooth="yes"/>
      <point x="67.21607142857142" y="128.06071428571428"/>
      <point x="61.46964285714286" y="91.55357142857143"/>
      <point x="61.46964285714286" y="73.53035714285714" type="curve" smooth="yes"/>
      <point x="61.46964285714286" y="61.544642857142854"/>
      <point x="63.925" y="49.67142857142857"/>
      <point x="79.36607142857143" y="38.59642857142857" type="curve" smooth="yes"/>
      <point x="107.61964285714286" y="13.9625"/>
      <point x="154.54464285714286" y="-8.9625"/>
      <point x="223.23035714285714" y="-11.835714285714285" type="curve"/>
      <point x="218.8125" y="-88.075"/>
      <point x="215.52142857142857" y="-143.44107142857143"/>
      <point x="215.52142857142857" y="-148.60535714285714" type="curve" smooth="yes"/>
      <point x="215.52142857142857" y="-175.91964285714286"/>
      <point x="255.27678571428572" y="-188.70357142857142"/>
    </contour>
  </outline>
</glyph>
<glyph name="percent" format="2">
  <advance width="952.9553571428571"/>
  <unicode hex="0025"/>
  <outline>
    <contour>
      <point x="314.2089285714286" y="-34.29107142857143" type="curve" smooth="yes"/>
      <point x="326.4482142857143" y="-34.29107142857143"/>
      <point x="336.48571428571427" y="-29.582142857142856"/>
      <point x="345.97857142857146" y="-9.685714285714285" type="curve" smooth="yes"/>
      <point x="389.4107142857143" y="69.74642857142857"/>
      <point x="682.7642857142857" y="560.6767857142858"/>
      <point x="708.525" y="600.3107142857143" type="curve" smooth="yes"/>
      <point x="718.8160714285714" y="617.2214285714285"/>
      <point x="725.6375" y="632.7"/>
      <point x="725.6375" y="636.7375" type="curve" smooth="yes"/>
      <point x="725.6375" y="653.7232142857143"/>
      <point x="682.9339285714286" y="675.0"/>
      <point x="658.1125" y="675.0" type="curve" smooth="yes"/>
      <point x="645.8732142857143" y="675.0"/>
      <point x="636.1267857142857" y="670.2910714285714"/>
      <point x="626.3428571428572" y="650.3946428571429" type="curve" smooth="yes"/>
      <point x="523.3464285714285" y="491.0267857142857"/>
      <point x="367.83035714285717" y="201.25892857142856"/>
      <point x="261.6696428571429" y="38.27142857142857" type="curve" smooth="yes"/>
      <point x="252.63214285714287" y="21.74107142857143"/>
      <point x="246.68392857142857" y="10.135714285714286"/>
      <point x="246.68392857142857" y="3.9714285714285715" type="curve" smooth="yes"/>
      <point x="246.68392857142857" y="-12.723214285714285"/>
      <point x="295.2089285714286" y="-34.29107142857143"/>
    </contour>
    <contour>
      <point x="211.04642857142858" y="275.70892857142854" type="curve" smooth="yes"/>
      <point x="339.6" y="275.70892857142854"/>
      <point x="403.4589285714286" y="358.70892857142854"/>
      <point x="403.4589285714286" y="494.41785714285714" type="curve" smooth="yes"/>
      <point x="403.4589285714286" y="600.7089285714286"/>
      <point x="337.6" y="651.7089285714286"/>
      <point x="246.12142857142857" y="651.7089285714286" type="curve" smooth="yes"/>
      <point x="117.27678571428571" y="651.7089285714286"/>
      <point x="53.0" y="568.7089285714286"/>
      <point x="53.0" y="432.70892857142854" type="curve" smooth="yes"/>
      <point x="53.0" y="326.70892857142854"/>
      <point x="119.56785714285715" y="275.70892857142854"/>
    </contour>
    <contour>
      <point x="218.12142857142857" y="313.1125" type="curve" smooth="yes"/>
      <point x="176.14464285714286" y="313.1125"/>
      <point x="148.09285714285716" y="363.7839285714286"/>
      <point x="148.09285714285716" y="436.58214285714286" type="curve" smooth="yes"/>
      <point x="148.09285714285716" y="541.2160714285715"/>
      <point x="179.5625" y="612.4321428571428"/>
      <point x="238.2107142857143" y="612.4321428571428" type="curve" smooth="yes"/>
      <point x="281.1875" y="612.4321428571428"/>
      <point x="308.36607142857144" y="562.7607142857142"/>
      <point x="308.36607142857144" y="489.54464285714283" type="curve" smooth="yes"/>
      <point x="308.36607142857144" y="385.6196428571429"/>
      <point x="277.47857142857146" y="313.1125"/>
    </contour>
    <contour>
      <point x="726.9089285714285" y="-13.291071428571428" type="curve" smooth="yes"/>
      <point x="856.1714285714286" y="-13.291071428571428"/>
      <point x="919.3214285714286" y="70.41785714285714"/>
      <point x="919.3214285714286" y="206.41785714285714" type="curve" smooth="yes"/>
      <point x="919.3214285714286" y="311.70892857142854"/>
      <point x="854.1714285714286" y="363.41785714285714"/>
      <point x="762.6928571428572" y="363.41785714285714" type="curve" smooth="yes"/>
      <point x="633.1392857142857" y="363.41785714285714"/>
      <point x="569.5714285714286" y="280.41785714285714"/>
      <point x="569.5714285714286" y="144.41785714285714" type="curve" smooth="yes"/>
      <point x="569.5714285714286" y="38.417857142857144"/>
      <point x="636.1392857142857" y="-13.291071428571428"/>
    </contour>
    <contour>
      <point x="734.6928571428572" y="24.821428571428573" type="curve" smooth="yes"/>
      <point x="692.7160714285715" y="24.821428571428573"/>
      <point x="664.6642857142857" y="75.49285714285715"/>
      <point x="664.6642857142857" y="147.58214285714286" type="curve" smooth="yes"/>
      <point x="664.6642857142857" y="252.925"/>
      <point x="695.425" y="323.4321428571429"/>
      <point x="754.7821428571428" y="323.4321428571429" type="curve" smooth="yes"/>
      <point x="797.7589285714286" y="323.4321428571429"/>
      <point x="824.2285714285714" y="274.46964285714284"/>
      <point x="824.2285714285714" y="201.25357142857143" type="curve" smooth="yes"/>
      <point x="824.2285714285714" y="96.61964285714286"/>
      <point x="794.05" y="24.821428571428573"/>
    </contour>
  </outline>
</glyph>
<glyph name="ampersand" format="2">
  <advance width="728.9428571428572"/>
  <unicode hex="0026"/>
  <outline>
    <contour>
      <point x="332.0839285714286" y="-13.0" type="curve" smooth="yes"/>
      <point x="589.6607142857143" y="-13.0"/>
      <point x="654.3178571428572" y="149.49285714285713"/>
      <point x="654.3178571428572" y="230.08928571428572" type="curve" smooth="yes"/>
      <point x="654.3178571428572" y="283.1642857142857"/>
      <point x="636.6982142857142" y="322.3803571428571"/>
      <point x="605.6607142857143" y="336.63392857142856" type="curve"/>
      <point x="545.3696428571428" y="336.63392857142856" type="line"/>
      <point x="636.7553571428572" y="435.90714285714284"/>
      <point x="684.1214285714286" y="478.69107142857143"/>
      <point x="696.9196428571429" y="492.78035714285716" type="curve" smooth="yes"/>
      <point x="702.5017857142857" y="499.23571428571427"/>
      <point x="710.0464285714286" y="510.5267857142857"/>
      <point x="710.0464285714286" y="517.4375" type="curve" smooth="yes"/>
      <point x="710.0464285714286" y="537.2964285714286"/>
      <point x="696.6803571428571" y="560.775"/>
      <point x="682.0232142857143" y="577.4696428571428" type="curve" smooth="yes"/>
      <point x="676.1125" y="584.2535714285714"/>
      <point x="670.2392857142858" y="588.4178571428571"/>
      <point x="666.7839285714285" y="588.4178571428571" type="curve" smooth="yes"/>
      <point x="664.3285714285714" y="588.4178571428571"/>
      <point x="659.3285714285714" y="583.4178571428571"/>
      <point x="653.7464285714286" y="576.5446428571429" type="curve" smooth="yes"/>
      <point x="612.9625" y="528.85"/>
      <point x="356.8910714285714" y="254.96607142857144"/>
      <point x="347.7267857142857" y="245.09285714285716" type="curve" smooth="yes"/>
      <point x="337.30892857142857" y="233.96607142857144"/>
      <point x="335.30892857142857" y="228.6375"/>
      <point x="335.30892857142857" y="220.43571428571428" type="curve" smooth="yes"/>
      <point x="335.30892857142857" y="199.86785714285713"/>
      <point x="350.38392857142856" y="173.97142857142856"/>
      <point x="366.75" y="156.56785714285715" type="curve" smooth="yes"/>
      <point x="372.6607142857143" y="150.49285714285713"/>
      <point x="376.40714285714284" y="147.0375"/>
      <point x="379.1535714285714" y="147.0375" type="curve" smooth="yes"/>
      <point x="382.3178571428571" y="147.0375"/>
      <point x="386.19107142857143" y="151.32857142857142"/>
      <point x="391.4821428571429" y="157.91071428571428" type="curve" smooth="yes"/>
      <point x="437.6232142857143" y="214.17857142857142"/>
      <point x="482.4214285714286" y="265.8125"/>
      <point x="522.9803571428572" y="311.4982142857143" type="curve"/>
      <point x="549.5767857142857" y="310.08035714285717"/>
      <point x="575.2107142857143" y="259.01428571428573"/>
      <point x="575.2107142857143" y="214.29107142857143" type="curve" smooth="yes"/>
      <point x="575.2107142857143" y="130.23928571428573"/>
      <point x="499.8071428571429" y="38.098214285714285"/>
      <point x="354.8910714285714" y="38.098214285714285" type="curve" smooth="yes"/>
      <point x="224.39285714285714" y="38.098214285714285"/>
      <point x="149.48214285714286" y="115.25357142857143"/>
      <point x="149.48214285714286" y="207.65714285714284" type="curve" smooth="yes"/>
      <point x="149.48214285714286" y="282.6714285714286"/>
      <point x="194.07857142857142" y="346.7607142857143"/>
      <point x="301.74107142857144" y="352.0" type="curve" smooth="yes"/>
      <point x="309.90535714285716" y="352.8732142857143"/>
      <point x="315.03214285714284" y="361.45535714285717"/>
      <point x="315.03214285714284" y="370.45535714285717" type="curve" smooth="yes"/>
      <point x="315.03214285714284" y="387.70892857142854"/>
      <point x="310.4875" y="392.8357142857143"/>
      <point x="301.36071428571427" y="394.8732142857143" type="curve" smooth="yes"/>
      <point x="278.2714285714286" y="399.82142857142856"/>
      <point x="219.31785714285715" y="434.0375"/>
      <point x="219.31785714285715" y="503.35714285714283" type="curve" smooth="yes"/>
      <point x="219.31785714285715" y="555.6107142857143"/>
      <point x="255.87678571428572" y="597.2071428571428"/>
      <point x="314.98035714285714" y="597.2071428571428" type="curve" smooth="yes"/>
      <point x="365.79285714285714" y="597.2071428571428"/>
      <point x="398.5910714285714" y="577.8642857142858"/>
      <point x="427.64285714285717" y="552.7232142857143" type="curve" smooth="yes"/>
      <point x="434.5160714285714" y="548.3053571428571"/>
      <point x="440.0982142857143" y="544.1785714285714"/>
      <point x="443.38928571428573" y="544.1785714285714" type="curve" smooth="yes"/>
      <point x="451.68035714285713" y="544.1785714285714"/>
      <point x="459.3" y="559.0892857142857"/>
      <point x="459.3" y="584.6196428571428" type="curve" smooth="yes"/>
      <point x="459.3" y="595.9482142857142"/>
      <point x="457.84464285714284" y="604.9482142857142"/>
      <point x="449.1357142857143" y="611.4928571428571" type="curve" smooth="yes"/>
      <point x="418.8964285714286" y="633.0375"/>
      <point x="361.69464285714287" y="652.0"/>
      <point x="296.8589285714286" y="652.0" type="curve" smooth="yes"/>
      <point x="206.1125" y="652.0"/>
      <point x="117.53035714285714" y="614.0375"/>
      <point x="117.53035714285714" y="518.4178571428571" type="curve" smooth="yes"/>
      <point x="117.53035714285714" y="440.0"/>
      <point x="168.76964285714286" y="398.1642857142857"/>
      <point x="223.93392857142857" y="377.0" type="curve"/>
      <point x="116.0375" y="377.0"/>
      <point x="47.85892857142857" y="307.2160714285714"/>
      <point x="47.85892857142857" y="215.59642857142856" type="curve" smooth="yes"/>
      <point x="47.85892857142857" y="91.02857142857142"/>
      <point x="149.06964285714287" y="-13.0"/>
    </contour>
  </outline>
</glyph>
<glyph name="quotesingle" format="2">
  <advance width="164.94285714285715"/>
  <unicode hex="0027"/>
  <outline>
    <contour>
      <point x="76.89642857142857" y="441.35714285714283" type="curve" smooth="yes"/>
      <point x="92.59107142857142" y="441.35714285714283"/>
      <point x="100.21071428571429" y="448.9392857142857"/>
      <point x="116.83035714285714" y="487.6857142857143" type="curve" smooth="yes"/>
      <point x="134.65178571428572" y="528.8357142857143"/>
      <point x="168.68928571428572" y="619.4321428571428"/>
      <point x="168.68928571428572" y="632.7607142857142" type="curve" smooth="yes"/>
      <point x="168.68928571428572" y="648.2535714285714"/>
      <point x="151.70357142857142" y="652.0"/>
      <point x="118.31428571428572" y="652.0" type="curve" smooth="yes"/>
      <point x="82.925" y="652.0"/>
      <point x="65.97678571428571" y="645.5446428571429"/>
      <point x="64.55892857142857" y="621.6339285714286" type="curve" smooth="yes"/>
      <point x="61.723214285714285" y="589.2535714285714"/>
      <point x="56.12678571428572" y="488.6196428571429"/>
      <point x="57.0" y="470.41785714285714" type="curve" smooth="yes"/>
      <point x="58.455357142857146" y="446.6857142857143"/>
      <point x="63.32857142857143" y="441.35714285714283"/>
    </contour>
  </outline>
</glyph>
<glyph name="parenleft" format="2">
  <advance width="333.9946428571429"/>
  <unicode hex="0028"/>
  <outline>
    <contour>
      <point x="257.7785714285714" y="-244.0" type="curve" smooth="yes"/>
      <point x="270.4732142857143" y="-244.0"/>
      <point x="274.76428571428573" y="-241.25357142857143"/>
      <point x="274.76428571428573" y="-231.50714285714287" type="curve" smooth="yes"/>
      <point x="274.76428571428573" y="-222.8875"/>
      <point x="170.62321428571428" y="-66.0"/>
      <point x="170.62321428571428" y="237.0" type="curve" smooth="yes"/>
      <point x="170.62321428571428" y="430.0"/>
      <point x="235.25714285714287" y="608.9767857142857"/>
      <point x="308.7035714285714" y="716.2071428571428" type="curve" smooth="yes"/>
      <point x="316.6517857142857" y="731.2678571428571"/>
      <point x="317.9428571428571" y="735.1785714285714"/>
      <point x="317.9428571428571" y="739.0892857142857" type="curve" smooth="yes"/>
      <point x="317.9428571428571" y="748.2910714285714"/>
      <point x="305.6892857142857" y="756.0"/>
      <point x="288.3232142857143" y="756.0" type="curve" smooth="yes"/>
      <point x="273.55357142857144" y="756.0"/>
      <point x="257.45535714285717" y="750.9625"/>
      <point x="244.925" y="737.1410714285714" type="curve" smooth="yes"/>
      <point x="144.27678571428572" y="628.3660714285714"/>
      <point x="72.0375" y="455.2392857142857"/>
      <point x="72.0375" y="240.0375" type="curve" smooth="yes"/>
      <point x="72.0375" y="78.69464285714285"/>
      <point x="102.23928571428571" y="-52.65714285714286"/>
      <point x="196.69464285714287" y="-220.8875" type="curve" smooth="yes"/>
      <point x="206.64285714285714" y="-237.29107142857143"/>
      <point x="236.525" y="-244.0"/>
    </contour>
  </outline>
</glyph>
<glyph name="parenright" format="2">
  <advance width="336.90535714285716"/>
  <unicode hex="0029"/>
  <outline>
    <contour>
      <point x="49.582142857142856" y="-244.0" type="curve" smooth="yes"/>
      <point x="64.35178571428571" y="-244.0"/>
      <point x="80.45" y="-240.38035714285715"/>
      <point x="92.98035714285714" y="-226.55892857142857" type="curve" smooth="yes"/>
      <point x="193.62857142857143" y="-117.78392857142858"/>
      <point x="265.86785714285713" y="56.760714285714286"/>
      <point x="265.86785714285713" y="271.54464285714283" type="curve" smooth="yes"/>
      <point x="265.86785714285713" y="433.30535714285713"/>
      <point x="235.66607142857143" y="563.9482142857142"/>
      <point x="141.2107142857143" y="731.4696428571428" type="curve" smooth="yes"/>
      <point x="131.2625" y="747.8732142857143"/>
      <point x="100.67142857142858" y="756.0"/>
      <point x="80.12678571428572" y="756.0" type="curve" smooth="yes"/>
      <point x="66.72321428571429" y="756.0"/>
      <point x="63.14107142857143" y="751.8357142857143"/>
      <point x="63.14107142857143" y="742.7982142857143" type="curve" smooth="yes"/>
      <point x="63.14107142857143" y="734.8875"/>
      <point x="167.28214285714284" y="576.5821428571429"/>
      <point x="167.28214285714284" y="274.29107142857146" type="curve" smooth="yes"/>
      <point x="167.28214285714284" y="80.58214285714286"/>
      <point x="101.93928571428572" y="-97.68571428571428"/>
      <point x="28.492857142857144" y="-204.20714285714286" type="curve" smooth="yes"/>
      <point x="20.544642857142858" y="-219.26785714285714"/>
      <point x="19.25357142857143" y="-224.59642857142856"/>
      <point x="19.25357142857143" y="-228.50714285714287" type="curve" smooth="yes"/>
      <point x="19.25357142857143" y="-237.70892857142857"/>
      <point x="31.507142857142856" y="-244.0"/>
    </contour>
  </outline>
</glyph>
<glyph name="asterisk" format="2">
  <advance width="481.0"/>
  <unicode hex="002A"/>
  <outline>
    <contour>
      <point x="275.075" y="313.44642857142856" type="curve" smooth="yes"/>
      <point x="286.2767857142857" y="313.44642857142856"/>
      <point x="292.0232142857143" y="317.775"/>
      <point x="292.0232142857143" y="327.1410714285714" type="curve" smooth="yes"/>
      <point x="292.0232142857143" y="382.4089285714286"/>
      <point x="280.69464285714287" y="431.775"/>
      <point x="278.65714285714284" y="503.4839285714286" type="curve"/>
      <point x="334.8732142857143" y="464.08035714285717"/>
      <point x="362.075" y="425.8410714285714"/>
      <point x="411.5964285714286" y="391.20714285714286" type="curve" smooth="yes"/>
      <point x="415.0517857142857" y="388.4607142857143"/>
      <point x="417.79821428571427" y="386.87857142857143"/>
      <point x="421.25357142857143" y="386.87857142857143" type="curve" smooth="yes"/>
      <point x="436.075" y="386.87857142857143"/>
      <point x="457.73214285714283" y="429.1928571428571"/>
      <point x="457.73214285714283" y="448.52142857142854" type="curve" smooth="yes"/>
      <point x="457.73214285714283" y="458.85"/>
      <point x="454.15" y="466.5964285714286"/>
      <point x="446.15" y="471.46964285714284" type="curve" smooth="yes"/>
      <point x="422.73214285714283" y="485.79821428571427"/>
      <point x="374.29107142857146" y="492.41785714285714"/>
      <point x="300.44107142857143" y="532.5589285714286" type="curve"/>
      <point x="369.49285714285713" y="565.3714285714286"/>
      <point x="419.0607142857143" y="564.0803571428571"/>
      <point x="451.0232142857143" y="585.4607142857143" type="curve" smooth="yes"/>
      <point x="458.47857142857146" y="590.0428571428571"/>
      <point x="462.8071428571429" y="599.0803571428571"/>
      <point x="462.8071428571429" y="610.4464285714286" type="curve" smooth="yes"/>
      <point x="462.8071428571429" y="632.9017857142857"/>
      <point x="444.3517857142857" y="672.7982142857143"/>
      <point x="432.1125" y="672.7982142857143" type="curve" smooth="yes"/>
      <point x="429.2392857142857" y="672.7982142857143"/>
      <point x="426.075" y="671.7982142857143"/>
      <point x="422.20178571428573" y="669.2160714285715" type="curve" smooth="yes"/>
      <point x="375.47857142857146" y="638.7464285714286"/>
      <point x="341.1125" y="599.4178571428571"/>
      <point x="284.82142857142856" y="561.6714285714286" type="curve"/>
      <point x="296.8964285714286" y="632.3946428571429"/>
      <point x="325.38928571428573" y="680.3428571428572"/>
      <point x="325.38928571428573" y="719.85" type="curve" smooth="yes"/>
      <point x="325.38928571428573" y="738.5964285714285"/>
      <point x="294.88214285714287" y="756.0"/>
      <point x="253.1642857142857" y="756.0" type="curve" smooth="yes"/>
      <point x="241.25357142857143" y="756.0"/>
      <point x="236.21607142857144" y="751.6714285714286"/>
      <point x="236.21607142857144" y="740.1785714285714" type="curve" smooth="yes"/>
      <point x="237.63392857142858" y="692.9107142857143"/>
      <point x="243.38035714285715" y="653.1642857142857"/>
      <point x="245.70892857142857" y="602.5821428571429" type="curve" smooth="yes"/>
      <point x="246.29107142857143" y="590.2910714285714"/>
      <point x="246.87321428571428" y="578.0"/>
      <point x="246.45535714285714" y="564.0" type="curve"/>
      <point x="190.1125" y="607.4928571428571"/>
      <point x="160.9482142857143" y="643.8964285714286"/>
      <point x="112.97142857142858" y="678.2392857142858" type="curve" smooth="yes"/>
      <point x="108.80714285714286" y="681.6946428571429"/>
      <point x="105.35178571428571" y="683.2767857142857"/>
      <point x="101.89642857142857" y="683.2767857142857" type="curve" smooth="yes"/>
      <point x="90.40357142857142" y="683.2767857142857"/>
      <point x="67.54464285714286" y="642.7089285714286"/>
      <point x="67.54464285714286" y="621.7607142857142" type="curve" smooth="yes"/>
      <point x="67.54464285714286" y="611.7232142857143"/>
      <point x="71.41785714285714" y="603.5589285714286"/>
      <point x="77.70892857142857" y="598.6857142857143" type="curve" smooth="yes"/>
      <point x="108.925" y="575.2678571428571"/>
      <point x="159.91071428571428" y="568.9392857142857"/>
      <point x="227.38035714285715" y="535.0517857142858" type="curve"/>
      <point x="152.9482142857143" y="498.69464285714287"/>
      <point x="100.67142857142858" y="499.2767857142857"/>
      <point x="76.79821428571428" y="484.2767857142857" type="curve" smooth="yes"/>
      <point x="69.34285714285714" y="479.4035714285714"/>
      <point x="64.01428571428572" y="470.36607142857144"/>
      <point x="64.01428571428572" y="457.70892857142854" type="curve" smooth="yes"/>
      <point x="64.01428571428572" y="436.70892857142854"/>
      <point x="82.01428571428572" y="397.6482142857143"/>
      <point x="94.0" y="397.6482142857143" type="curve" smooth="yes"/>
      <point x="96.16428571428571" y="397.6482142857143"/>
      <point x="99.32857142857142" y="398.6482142857143"/>
      <point x="102.78392857142858" y="400.52142857142854" type="curve" smooth="yes"/>
      <point x="154.46964285714284" y="433.11785714285713"/>
      <point x="187.12678571428572" y="470.0285714285714"/>
      <point x="242.0" y="504.23035714285714" type="curve"/>
      <point x="230.63392857142858" y="418.6196428571429"/>
      <point x="201.43214285714285" y="374.925"/>
      <point x="201.43214285714285" y="348.8875" type="curve" smooth="yes"/>
      <point x="201.43214285714285" y="328.7232142857143"/>
      <point x="232.6482142857143" y="313.44642857142856"/>
    </contour>
  </outline>
</glyph>
<glyph name="plus" format="2">
  <advance width="558.7321428571429"/>
  <unicode hex="002B"/>
  <outline>
    <contour>
      <point x="285.95714285714286" y="84.54464285714286" type="curve" smooth="yes"/>
      <point x="302.6142857142857" y="84.54464285714286"/>
      <point x="308.45" y="88.12678571428572"/>
      <point x="308.45" y="100.45535714285714" type="curve" smooth="yes"/>
      <point x="308.45" y="120.93392857142857"/>
      <point x="315.12142857142857" y="217.48392857142858"/>
      <point x="319.5392857142857" y="283.52142857142854" type="curve"/>
      <point x="493.44107142857143" y="283.52142857142854" type="line" smooth="yes"/>
      <point x="511.8589285714286" y="283.52142857142854"/>
      <point x="522.7321428571429" y="305.85"/>
      <point x="522.7321428571429" y="332.41785714285714" type="curve" smooth="yes"/>
      <point x="522.7321428571429" y="346.2392857142857"/>
      <point x="520.15" y="350.9482142857143"/>
      <point x="511.98571428571427" y="350.9482142857143" type="curve" smooth="yes"/>
      <point x="321.375" y="350.9482142857143" type="line"/>
      <point x="325.79285714285714" y="415.225"/>
      <point x="334.17321428571427" y="494.34285714285716"/>
      <point x="334.17321428571427" y="503.17857142857144" type="curve" smooth="yes"/>
      <point x="334.17321428571427" y="534.3428571428572"/>
      <point x="294.4035714285714" y="542.5446428571429"/>
      <point x="272.1267857142857" y="542.5446428571429" type="curve" smooth="yes"/>
      <point x="255.46964285714284" y="542.5446428571429"/>
      <point x="249.34285714285716" y="538.3803571428572"/>
      <point x="249.34285714285716" y="526.3428571428572" type="curve" smooth="yes"/>
      <point x="249.34285714285716" y="505.8642857142857"/>
      <point x="243.38035714285715" y="416.53035714285716"/>
      <point x="239.25357142857143" y="350.9482142857143" type="curve"/>
      <point x="73.02321428571429" y="350.9482142857143" type="line" smooth="yes"/>
      <point x="55.31428571428572" y="350.9482142857143"/>
      <point x="43.73214285714286" y="330.74642857142857"/>
      <point x="43.73214285714286" y="302.0517857142857" type="curve" smooth="yes"/>
      <point x="43.73214285714286" y="288.23035714285714"/>
      <point x="46.73214285714286" y="283.52142857142854"/>
      <point x="54.47857142857143" y="283.52142857142854" type="curve" smooth="yes"/>
      <point x="237.41785714285714" y="283.52142857142854" type="line"/>
      <point x="233.0" y="219.08035714285714"/>
      <point x="223.61964285714285" y="133.45535714285714"/>
      <point x="223.61964285714285" y="123.91071428571429" type="curve" smooth="yes"/>
      <point x="223.61964285714285" y="92.45535714285714"/>
      <point x="263.68035714285713" y="84.54464285714286"/>
    </contour>
  </outline>
</glyph>
<glyph name="comma" format="2">
  <advance width="275.0"/>
  <unicode hex="002C"/>
  <outline>
    <contour>
      <point x="50.31428571428572" y="-78.0" type="curve" smooth="yes"/>
      <point x="67.42678571428571" y="-78.0"/>
      <point x="77.71785714285714" y="-74.29107142857143"/>
      <point x="88.83035714285714" y="-65.50714285714285" type="curve" smooth="yes"/>
      <point x="125.4125" y="-29.582142857142856"/>
      <point x="194.4875" y="52.9625"/>
      <point x="194.4875" y="83.9625" type="curve" smooth="yes"/>
      <point x="194.4875" y="94.58214285714286"/>
      <point x="189.3232142857143" y="106.32857142857142"/>
      <point x="177.95714285714286" y="118.98571428571428" type="curve" smooth="yes"/>
      <point x="168.59107142857144" y="128.64285714285714"/>
      <point x="149.9482142857143" y="141.95714285714286"/>
      <point x="137.45535714285714" y="141.95714285714286" type="curve" smooth="yes"/>
      <point x="131.12678571428572" y="141.95714285714286"/>
      <point x="128.9625" y="140.08392857142857"/>
      <point x="125.21607142857142" y="129.42678571428573" type="curve" smooth="yes"/>
      <point x="103.29107142857143" y="76.57678571428572"/>
      <point x="50.253571428571426" y="-21.28214285714286"/>
      <point x="35.17857142857143" y="-48.30535714285714" type="curve" smooth="yes"/>
      <point x="27.760714285714286" y="-60.30535714285714"/>
      <point x="24.46964285714286" y="-64.8875"/>
      <point x="24.46964285714286" y="-67.17857142857143" type="curve" smooth="yes"/>
      <point x="24.46964285714286" y="-70.17857142857143"/>
      <point x="37.910714285714285" y="-78.0"/>
    </contour>
  </outline>
</glyph>
<glyph name="hyphen" format="2">
  <advance width="275.0"/>
  <unicode hex="002D"/>
  <outline>
    <contour>
      <point x="18.492857142857144" y="263.1035714285714" type="curve" smooth="yes"/>
      <point x="236.12678571428572" y="263.1035714285714" type="line" smooth="yes"/>
      <point x="251.8357142857143" y="263.1035714285714"/>
      <point x="259.29107142857146" y="288.01428571428573"/>
      <point x="259.29107142857146" y="317.9107142857143" type="curve" smooth="yes"/>
      <point x="259.29107142857146" y="333.0607142857143"/>
      <point x="257.0" y="335.64285714285717"/>
      <point x="250.54464285714286" y="335.64285714285717" type="curve" smooth="yes"/>
      <point x="32.910714285714285" y="335.64285714285717" type="line" smooth="yes"/>
      <point x="17.201785714285716" y="335.64285714285717"/>
      <point x="9.746428571428572" y="309.73214285714283"/>
      <point x="9.746428571428572" y="280.8357142857143" type="curve" smooth="yes"/>
      <point x="9.746428571428572" y="265.6857142857143"/>
      <point x="12.0375" y="263.1035714285714"/>
    </contour>
  </outline>
</glyph>
<glyph name="period" format="2">
  <advance width="275.0"/>
  <unicode hex="002E"/>
  <outline>
    <contour>
      <point x="128.0375" y="0.0" type="curve" smooth="yes"/>
      <point x="163.06071428571428" y="0.0"/>
      <point x="191.70357142857142" y="20.74642857142857"/>
      <point x="191.70357142857142" y="57.75535714285714" type="curve" smooth="yes"/>
      <point x="191.70357142857142" y="94.66607142857143"/>
      <point x="171.3" y="123.30892857142857"/>
      <point x="145.36607142857142" y="123.30892857142857" type="curve" smooth="yes"/>
      <point x="119.17857142857143" y="123.30892857142857"/>
      <point x="79.7" y="93.90535714285714"/>
      <point x="79.7" y="52.464285714285715" type="curve" smooth="yes"/>
      <point x="79.7" y="14.783928571428572"/>
      <point x="99.46964285714286" y="0.0"/>
    </contour>
  </outline>
</glyph>
<glyph name="slash" format="2">
  <advance width="522.4464285714286"/>
  <unicode hex="002F"/>
  <outline>
    <contour>
      <point x="89.89107142857142" y="-34.29107142857143" type="curve" smooth="yes"/>
      <point x="102.13035714285715" y="-34.29107142857143"/>
      <point x="112.16785714285714" y="-29.582142857142856"/>
      <point x="121.66071428571429" y="-9.685714285714285" type="curve" smooth="yes"/>
      <point x="165.09285714285716" y="69.74642857142857"/>
      <point x="458.44642857142856" y="560.6767857142858"/>
      <point x="484.20714285714286" y="600.3107142857143" type="curve" smooth="yes"/>
      <point x="494.4982142857143" y="617.2214285714285"/>
      <point x="501.31964285714287" y="632.7"/>
      <point x="501.31964285714287" y="637.0285714285715" type="curve" smooth="yes"/>
      <point x="501.31964285714287" y="653.7232142857143"/>
      <point x="455.7053571428571" y="675.0"/>
      <point x="430.88392857142856" y="675.0" type="curve" smooth="yes"/>
      <point x="418.64464285714286" y="675.0"/>
      <point x="408.8982142857143" y="670.2910714285714"/>
      <point x="399.1142857142857" y="650.3946428571429" type="curve" smooth="yes"/>
      <point x="296.11785714285713" y="491.0267857142857"/>
      <point x="140.6017857142857" y="201.25892857142856"/>
      <point x="34.44107142857143" y="38.27142857142857" type="curve" smooth="yes"/>
      <point x="25.40357142857143" y="21.74107142857143"/>
      <point x="19.455357142857142" y="10.135714285714286"/>
      <point x="19.455357142857142" y="3.9714285714285715" type="curve" smooth="yes"/>
      <point x="19.455357142857142" y="-12.723214285714285"/>
      <point x="67.98035714285714" y="-34.29107142857143"/>
    </contour>
  </outline>
</glyph>
<glyph name="zero" format="2">
  <advance width="589.2910714285714"/>
  <unicode hex="0030"/>
  <outline>
    <contour>
      <point x="277.20178571428573" y="-13.0" type="curve" smooth="yes"/>
      <point x="452.15" y="-13.0"/>
      <point x="538.0607142857143" y="134.0"/>
      <point x="538.0607142857143" y="374.0" type="curve" smooth="yes"/>
      <point x="538.0607142857143" y="562.0"/>
      <point x="450.15" y="652.0"/>
      <point x="326.65714285714284" y="652.0" type="curve" smooth="yes"/>
      <point x="150.41785714285714" y="652.0"/>
      <point x="64.21607142857142" y="506.0"/>
      <point x="64.21607142857142" y="266.0" type="curve" smooth="yes"/>
      <point x="64.21607142857142" y="78.0"/>
      <point x="152.70892857142857" y="-13.0"/>
    </contour>
    <contour>
      <point x="284.8589285714286" y="32.80714285714286" type="curve" smooth="yes"/>
      <point x="212.19642857142858" y="32.80714285714286"/>
      <point x="165.5482142857143" y="130.44107142857143"/>
      <point x="165.5482142857143" y="268.74642857142857" type="curve" smooth="yes"/>
      <point x="165.5482142857143" y="469.7232142857143"/>
      <point x="217.03214285714284" y="605.6107142857143"/>
      <point x="317.41785714285714" y="605.6107142857143" type="curve" smooth="yes"/>
      <point x="389.9535714285714" y="605.6107142857143"/>
      <point x="437.01964285714286" y="508.6857142857143"/>
      <point x="437.01964285714286" y="370.9625" type="curve" smooth="yes"/>
      <point x="437.01964285714286" y="171.40357142857144"/>
      <point x="385.2446428571429" y="32.80714285714286"/>
    </contour>
  </outline>
</glyph>
<glyph name="one" format="2">
  <advance width="423.0232142857143"/>
  <unicode hex="0031"/>
  <outline>
    <contour>
      <point x="279.375" y="-13.0" type="curve" smooth="yes"/>
      <point x="298.5625" y="-13.0"/>
      <point x="300.7267857142857" y="-8.253571428571428"/>
      <point x="300.7267857142857" y="2.567857142857143" type="curve" smooth="yes"/>
      <point x="300.7267857142857" y="282.6535714285714"/>
      <point x="333.2339285714286" y="597.4464285714286"/>
      <point x="333.2339285714286" y="612.6107142857143" type="curve" smooth="yes"/>
      <point x="333.2339285714286" y="639.925"/>
      <point x="278.1125" y="652.0"/>
      <point x="256.53035714285716" y="652.0" type="curve" smooth="yes"/>
      <point x="250.32857142857142" y="652.0"/>
      <point x="75.25357142857143" y="520.6339285714286"/>
      <point x="65.54464285714286" y="510.63392857142856" type="curve" smooth="yes"/>
      <point x="58.38035714285714" y="503.17857142857144"/>
      <point x="57.089285714285715" y="488.06607142857143"/>
      <point x="57.089285714285715" y="475.4089285714286" type="curve" smooth="yes"/>
      <point x="57.089285714285715" y="449.80357142857144"/>
      <point x="64.67142857142858" y="428.87857142857143"/>
      <point x="72.54464285714286" y="428.87857142857143" type="curve" smooth="yes"/>
      <point x="79.29107142857143" y="428.87857142857143"/>
      <point x="154.76071428571427" y="508.7285714285714"/>
      <point x="221.53571428571428" y="551.6160714285714" type="curve"/>
      <point x="218.6625" y="436.9214285714286"/>
      <point x="192.02857142857144" y="39.971428571428575"/>
      <point x="192.02857142857144" y="27.098214285714285" type="curve" smooth="yes"/>
      <point x="192.02857142857144" y="-0.21607142857142847"/>
      <point x="245.15" y="-13.0"/>
    </contour>
  </outline>
</glyph>
<glyph name="two" format="2">
  <advance width="550.7839285714285"/>
  <unicode hex="0032"/>
  <outline>
    <contour>
      <point x="78.1125" y="0.0" type="curve" smooth="yes"/>
      <point x="442.38928571428573" y="0.0" type="line" smooth="yes"/>
      <point x="457.0982142857143" y="0.0"/>
      <point x="468.5910714285714" y="23.544642857142858"/>
      <point x="468.5910714285714" y="53.85892857142857" type="curve" smooth="yes"/>
      <point x="468.5910714285714" y="71.04642857142858"/>
      <point x="466.5910714285714" y="80.53928571428571"/>
      <point x="461.71785714285716" y="80.53928571428571" type="curve" smooth="yes"/>
      <point x="457.9714285714286" y="80.53928571428571"/>
      <point x="337.7785714285714" y="65.4125"/>
      <point x="244.20535714285714" y="65.4125" type="curve" smooth="yes"/>
      <point x="217.24285714285713" y="65.4125"/>
      <point x="194.95178571428573" y="65.4125"/>
      <point x="173.36964285714285" y="65.4125" type="curve"/>
      <point x="228.40714285714284" y="127.66607142857143"/>
      <point x="308.5107142857143" y="209.60535714285714"/>
      <point x="373.6142857142857" y="291.0" type="curve" smooth="yes"/>
      <point x="426.0839285714286" y="357.63392857142856"/>
      <point x="461.00892857142856" y="424.7232142857143"/>
      <point x="461.00892857142856" y="497.1410714285714" type="curve" smooth="yes"/>
      <point x="461.00892857142856" y="616.1642857142857"/>
      <point x="367.98571428571427" y="652.0"/>
      <point x="277.0" y="652.0" type="curve" smooth="yes"/>
      <point x="205.34285714285716" y="652.0"/>
      <point x="143.38035714285715" y="631.4928571428571"/>
      <point x="111.17857142857143" y="607.4553571428571" type="curve" smooth="yes"/>
      <point x="95.59642857142858" y="595.8732142857143"/>
      <point x="91.59642857142858" y="586.2535714285714"/>
      <point x="91.59642857142858" y="570.3803571428572" type="curve" smooth="yes"/>
      <point x="91.59642857142858" y="532.8642857142858"/>
      <point x="99.9625" y="524.1178571428571"/>
      <point x="110.58214285714286" y="524.1178571428571" type="curve" smooth="yes"/>
      <point x="124.0" y="524.1178571428571"/>
      <point x="166.9625" y="589.1321428571429"/>
      <point x="249.9767857142857" y="589.1321428571429" type="curve" smooth="yes"/>
      <point x="300.9535714285714" y="589.1321428571429"/>
      <point x="350.63928571428573" y="558.2964285714286"/>
      <point x="350.63928571428573" y="485.44642857142856" type="curve" smooth="yes"/>
      <point x="350.63928571428573" y="437.30535714285713"/>
      <point x="333.42321428571427" y="390.3803571428571"/>
      <point x="297.82678571428573" y="337.29107142857146" type="curve" smooth="yes"/>
      <point x="250.9767857142857" y="267.49285714285713"/>
      <point x="158.27678571428572" y="160.83035714285714"/>
      <point x="71.23928571428571" y="75.375" type="curve" smooth="yes"/>
      <point x="59.61964285714286" y="64.75535714285715"/>
      <point x="57.0375" y="56.84464285714286"/>
      <point x="57.0375" y="47.80714285714286" type="curve" smooth="yes"/>
      <point x="57.0375" y="34.769642857142856"/>
      <point x="67.91071428571429" y="0.0"/>
    </contour>
  </outline>
</glyph>
<glyph name="three" format="2">
  <advance width="542.8071428571428"/>
  <unicode hex="0033"/>
  <outline>
    <contour>
      <point x="220.82142857142858" y="-13.0" type="curve" smooth="yes"/>
      <point x="365.74107142857144" y="-13.0"/>
      <point x="463.7035714285714" y="72.31428571428572"/>
      <point x="463.7035714285714" y="189.2017857142857" type="curve" smooth="yes"/>
      <point x="463.7035714285714" y="277.075"/>
      <point x="404.86785714285713" y="338.9107142857143"/>
      <point x="321.3375" y="353.3285714285714" type="curve"/>
      <point x="356.79285714285714" y="364.29107142857146"/>
      <point x="449.3232142857143" y="421.25357142857143"/>
      <point x="449.3232142857143" y="510.0" type="curve" smooth="yes"/>
      <point x="449.3232142857143" y="611.3428571428572"/>
      <point x="365.98035714285714" y="652.0"/>
      <point x="262.225" y="652.0" type="curve" smooth="yes"/>
      <point x="194.82142857142858" y="652.0"/>
      <point x="143.65714285714284" y="639.0"/>
      <point x="109.87321428571428" y="618.8357142857143" type="curve" smooth="yes"/>
      <point x="93.0" y="608.8357142857143"/>
      <point x="83.58214285714286" y="595.9625"/>
      <point x="83.58214285714286" y="577.4696428571428" type="curve" smooth="yes"/>
      <point x="83.58214285714286" y="542.1553571428572"/>
      <point x="88.45535714285714" y="537.5732142857142"/>
      <point x="97.78392857142858" y="537.5732142857142" type="curve" smooth="yes"/>
      <point x="104.94821428571429" y="537.5732142857142"/>
      <point x="120.65714285714286" y="549.5357142857143"/>
      <point x="146.74642857142857" y="565.0428571428571" type="curve" smooth="yes"/>
      <point x="174.0" y="581.1321428571429"/>
      <point x="206.54464285714286" y="591.8410714285715"/>
      <point x="241.12678571428572" y="591.8410714285715" type="curve" smooth="yes"/>
      <point x="303.9625" y="591.8410714285715"/>
      <point x="345.44642857142856" y="554.55"/>
      <point x="345.44642857142856" y="487.9767857142857" type="curve" smooth="yes"/>
      <point x="345.44642857142856" y="399.65714285714284"/>
      <point x="253.32857142857142" y="361.0375"/>
      <point x="208.8875" y="358.70892857142854" type="curve" smooth="yes"/>
      <point x="200.72321428571428" y="358.41785714285714"/>
      <point x="195.43214285714285" y="344.8732142857143"/>
      <point x="195.43214285714285" y="328.6714285714286" type="curve" smooth="yes"/>
      <point x="195.43214285714285" y="318.34285714285716"/>
      <point x="196.30535714285713" y="313.8875"/>
      <point x="201.21607142857144" y="313.8875" type="curve" smooth="yes"/>
      <point x="283.1410714285714" y="313.8875"/>
      <point x="359.7517857142857" y="278.30535714285713"/>
      <point x="359.7517857142857" y="174.60535714285714" type="curve" smooth="yes"/>
      <point x="359.7517857142857" y="90.68035714285715"/>
      <point x="296.61071428571427" y="47.28571428571429"/>
      <point x="214.0" y="47.28571428571429" type="curve" smooth="yes"/>
      <point x="126.85892857142858" y="47.28571428571429"/>
      <point x="77.65714285714286" y="99.55357142857143"/>
      <point x="62.85892857142857" y="99.55357142857143" type="curve" smooth="yes"/>
      <point x="51.1125" y="99.55357142857143"/>
      <point x="49.239285714285714" y="91.55357142857143"/>
      <point x="49.239285714285714" y="67.74642857142857" type="curve" smooth="yes"/>
      <point x="49.239285714285714" y="40.29107142857143"/>
      <point x="56.85892857142857" y="28.417857142857144"/>
      <point x="73.73214285714286" y="18.126785714285713" type="curve" smooth="yes"/>
      <point x="104.73214285714286" y="-0.2910714285714286"/>
      <point x="144.0232142857143" y="-13.0"/>
    </contour>
  </outline>
</glyph>
<glyph name="four" format="2">
  <advance width="567.0892857142857"/>
  <unicode hex="0034"/>
  <outline>
    <contour>
      <point x="360.00892857142856" y="-13.0" type="curve" smooth="yes"/>
      <point x="377.7785714285714" y="-13.0"/>
      <point x="379.36071428571427" y="-8.253571428571428"/>
      <point x="379.36071428571427" y="2.567857142857143" type="curve" smooth="yes"/>
      <point x="379.36071428571427" y="62.65714285714286"/>
      <point x="380.6517857142857" y="120.1125"/>
      <point x="385.90535714285716" y="195.02857142857144" type="curve"/>
      <point x="524.1785714285714" y="195.02857142857144" type="line" smooth="yes"/>
      <point x="542.2160714285715" y="195.02857142857144"/>
      <point x="547.1785714285714" y="226.0142857142857"/>
      <point x="547.1785714285714" y="245.0142857142857" type="curve" smooth="yes"/>
      <point x="547.1785714285714" y="257.8357142857143"/>
      <point x="544.1785714285714" y="261.0"/>
      <point x="539.1785714285714" y="261.0" type="curve" smooth="yes"/>
      <point x="523.925" y="261.0"/>
      <point x="473.76964285714286" y="256.58214285714286"/>
      <point x="389.19642857142856" y="254.1642857142857" type="curve"/>
      <point x="395.19642857142856" y="373.68035714285713"/>
      <point x="412.57678571428573" y="598.1553571428572"/>
      <point x="412.57678571428573" y="613.3196428571429" type="curve" smooth="yes"/>
      <point x="412.57678571428573" y="640.6339285714286"/>
      <point x="367.7839285714286" y="652.0"/>
      <point x="337.30535714285713" y="652.0" type="curve" smooth="yes"/>
      <point x="326.39464285714286" y="652.0"/>
      <point x="321.1035714285714" y="649.0"/>
      <point x="314.775" y="641.0892857142857" type="curve" smooth="yes"/>
      <point x="273.7607142857143" y="586.5678571428572"/>
      <point x="55.34285714285714" y="292.46964285714284"/>
      <point x="41.925" y="261.6714285714286" type="curve" smooth="yes"/>
      <point x="39.34285714285714" y="256.0892857142857"/>
      <point x="39.051785714285714" y="250.76071428571427"/>
      <point x="39.051785714285714" y="246.30535714285713" type="curve" smooth="yes"/>
      <point x="39.051785714285714" y="226.7375"/>
      <point x="53.46964285714286" y="195.02857142857144"/>
      <point x="72.8875" y="195.02857142857144" type="curve" smooth="yes"/>
      <point x="288.20714285714286" y="195.02857142857144" type="line"/>
      <point x="282.6625" y="118.06071428571428"/>
      <point x="275.9535714285714" y="49.1875"/>
      <point x="275.9535714285714" y="27.098214285714285" type="curve" smooth="yes"/>
      <point x="275.9535714285714" y="-0.21607142857142847"/>
      <point x="325.7839285714286" y="-13.0"/>
    </contour>
    <contour>
      <point x="103.06071428571428" y="252.0" type="line"/>
      <point x="133.49285714285713" y="304.06607142857143"/>
      <point x="273.8410714285714" y="499.75714285714287"/>
      <point x="308.0053571428571" y="538.7571428571429" type="curve"/>
      <point x="307.7142857142857" y="499.42857142857144"/>
      <point x="295.9160714285714" y="345.55892857142857"/>
      <point x="290.9160714285714" y="252.0" type="curve"/>
    </contour>
  </outline>
</glyph>
<glyph name="five" format="2">
  <advance width="546.3803571428572"/>
  <unicode hex="0035"/>
  <outline>
    <contour>
      <point x="237.8357142857143" y="-13.0" type="curve" smooth="yes"/>
      <point x="355.8732142857143" y="-13.0"/>
      <point x="470.0982142857143" y="58.30535714285714"/>
      <point x="470.0982142857143" y="199.49285714285713" type="curve" smooth="yes"/>
      <point x="470.0982142857143" y="324.7839285714286"/>
      <point x="393.2625" y="387.7839285714286"/>
      <point x="237.06071428571428" y="387.7839285714286" type="curve" smooth="yes"/>
      <point x="222.47857142857143" y="387.7839285714286"/>
      <point x="200.51607142857142" y="387.49285714285713"/>
      <point x="185.97142857142856" y="386.9107142857143" type="curve"/>
      <point x="204.89642857142857" y="559.3482142857143" type="line"/>
      <point x="434.74642857142857" y="559.3482142857143" type="line" smooth="yes"/>
      <point x="455.53035714285716" y="559.3482142857143"/>
      <point x="464.8964285714286" y="582.9303571428571"/>
      <point x="464.8964285714286" y="620.1035714285714" type="curve" smooth="yes"/>
      <point x="464.8964285714286" y="634.5071428571429"/>
      <point x="461.0232142857143" y="639.0"/>
      <point x="452.36607142857144" y="639.0" type="curve" smooth="yes"/>
      <point x="141.68571428571428" y="639.0" type="line"/>
      <point x="105.8125" y="315.4089285714286" type="line"/>
      <point x="130.35714285714286" y="318.82678571428573"/>
      <point x="175.19285714285715" y="321.82678571428573"/>
      <point x="198.8642857142857" y="321.82678571428573" type="curve" smooth="yes"/>
      <point x="317.93035714285713" y="321.82678571428573"/>
      <point x="368.2732142857143" y="260.7607142857143"/>
      <point x="368.2732142857143" y="190.87321428571428" type="curve" smooth="yes"/>
      <point x="368.2732142857143" y="101.73214285714286"/>
      <point x="311.6767857142857" y="47.994642857142864"/>
      <point x="229.85" y="47.994642857142864" type="curve" smooth="yes"/>
      <point x="139.46964285714284" y="47.994642857142864"/>
      <point x="104.12678571428572" y="96.00892857142857"/>
      <point x="89.29107142857143" y="96.00892857142857" type="curve" smooth="yes"/>
      <point x="78.9625" y="96.00892857142857"/>
      <point x="75.34285714285714" y="90.13571428571429"/>
      <point x="75.34285714285714" y="61.075" type="curve" smooth="yes"/>
      <point x="75.34285714285714" y="39.582142857142856"/>
      <point x="82.54464285714286" y="26.708928571428572"/>
      <point x="96.0" y="16.0" type="curve" smooth="yes"/>
      <point x="113.56785714285715" y="3.7982142857142853"/>
      <point x="153.85892857142858" y="-13.0"/>
    </contour>
  </outline>
</glyph>
<glyph name="six" format="2">
  <advance width="567.2767857142857"/>
  <unicode hex="0036"/>
  <outline>
    <contour>
      <point x="283.44107142857143" y="-13.0" type="curve" smooth="yes"/>
      <point x="431.4267857142857" y="-13.0"/>
      <point x="516.7928571428572" y="97.30535714285715"/>
      <point x="516.7928571428572" y="221.0" type="curve" smooth="yes"/>
      <point x="516.7928571428572" y="343.88214285714287"/>
      <point x="442.73214285714283" y="418.29107142857146"/>
      <point x="309.7553571428571" y="418.29107142857146" type="curve" smooth="yes"/>
      <point x="236.5625" y="418.29107142857146"/>
      <point x="187.7125" y="387.0607142857143"/>
      <point x="171.62321428571428" y="371.84464285714284" type="curve"/>
      <point x="204.94285714285715" y="528.8178571428572"/>
      <point x="311.3517857142857" y="598.4089285714285"/>
      <point x="423.93392857142857" y="598.4089285714285" type="curve" smooth="yes"/>
      <point x="432.0982142857143" y="598.4089285714285"/>
      <point x="434.68035714285713" y="604.7375"/>
      <point x="434.68035714285713" y="612.9392857142857" type="curve" smooth="yes"/>
      <point x="434.68035714285713" y="633.2535714285714"/>
      <point x="422.9714285714286" y="652.0"/>
      <point x="387.98571428571427" y="652.0" type="curve" smooth="yes"/>
      <point x="257.1357142857143" y="652.0"/>
      <point x="61.38035714285714" y="535.2767857142857"/>
      <point x="61.38035714285714" y="246.23928571428573" type="curve" smooth="yes"/>
      <point x="61.38035714285714" y="90.0"/>
      <point x="127.58214285714286" y="-13.0"/>
    </contour>
    <contour>
      <point x="289.0232142857143" y="34.51607142857143" type="curve" smooth="yes"/>
      <point x="186.18214285714285" y="34.51607142857143"/>
      <point x="162.7125" y="147.36607142857142"/>
      <point x="162.7125" y="230.9625" type="curve" smooth="yes"/>
      <point x="162.7125" y="243.38035714285715"/>
      <point x="163.42142857142858" y="262.3803571428571"/>
      <point x="165.13035714285715" y="268.6714285714286" type="curve" smooth="yes"/>
      <point x="181.3464285714286" y="332.01428571428573"/>
      <point x="242.75535714285715" y="370.4839285714286"/>
      <point x="302.82142857142856" y="370.4839285714286" type="curve" smooth="yes"/>
      <point x="360.1410714285714" y="370.4839285714286"/>
      <point x="415.7517857142857" y="328.39464285714286"/>
      <point x="415.7517857142857" y="217.12678571428572" type="curve" smooth="yes"/>
      <point x="415.7517857142857" y="98.15"/>
      <point x="354.7232142857143" y="34.51607142857143"/>
    </contour>
  </outline>
</glyph>
<glyph name="seven" format="2">
  <advance width="517.0892857142857"/>
  <unicode hex="0037"/>
  <outline>
    <contour>
      <point x="142.93392857142857" y="-13.0" type="curve" smooth="yes"/>
      <point x="162.91964285714286" y="-13.0"/>
      <point x="177.4125" y="-11.0"/>
      <point x="184.74107142857144" y="0.7839285714285715" type="curve" smooth="yes"/>
      <point x="287.3" y="151.25357142857143"/>
      <point x="428.7553571428571" y="453.0285714285714"/>
      <point x="461.8589285714286" y="529.7517857142857" type="curve" smooth="yes"/>
      <point x="468.82142857142856" y="545.2964285714286"/>
      <point x="478.36607142857144" y="569.4089285714285"/>
      <point x="478.36607142857144" y="579.0660714285714" type="curve" smooth="yes"/>
      <point x="478.36607142857144" y="614.2535714285714"/>
      <point x="467.82142857142856" y="639.0"/>
      <point x="458.45535714285717" y="639.0" type="curve" smooth="yes"/>
      <point x="109.1875" y="639.0" type="line" smooth="yes"/>
      <point x="91.49285714285715" y="639.0"/>
      <point x="79.67142857142858" y="609.0892857142857"/>
      <point x="79.67142857142858" y="556.2732142857143" type="curve" smooth="yes"/>
      <point x="79.67142857142858" y="538.3767857142857"/>
      <point x="82.12678571428572" y="534.3767857142857"/>
      <point x="90.32857142857142" y="534.3767857142857" type="curve" smooth="yes"/>
      <point x="100.32857142857142" y="534.3767857142857"/>
      <point x="195.64285714285714" y="546.6303571428572"/>
      <point x="385.93035714285713" y="546.6303571428572" type="curve"/>
      <point x="350.7142857142857" y="437.4142857142857"/>
      <point x="192.0142857142857" y="131.36607142857142"/>
      <point x="99.25357142857143" y="22.02321428571429" type="curve" smooth="yes"/>
      <point x="94.79821428571428" y="16.567857142857143"/>
      <point x="89.9625" y="10.985714285714286"/>
      <point x="89.9625" y="5.948214285714286" type="curve" smooth="yes"/>
      <point x="89.9625" y="-4.798214285714286"/>
      <point x="117.78392857142858" y="-13.0"/>
    </contour>
  </outline>
</glyph>
<glyph name="eight" format="2">
  <advance width="577.6714285714286"/>
  <unicode hex="0038"/>
  <outline>
    <contour>
      <point x="260.3803571428571" y="-13.0" type="curve" smooth="yes"/>
      <point x="422.60535714285714" y="-13.0"/>
      <point x="502.1875" y="83.075"/>
      <point x="502.1875" y="183.53035714285716" type="curve" smooth="yes"/>
      <point x="502.1875" y="246.73214285714286"/>
      <point x="475.65714285714284" y="296.1357142857143"/>
      <point x="378.2107142857143" y="349.15" type="curve"/>
      <point x="446.3375" y="376.53035714285716"/>
      <point x="498.47857142857146" y="433.7839285714286"/>
      <point x="498.47857142857146" y="507.34285714285716" type="curve" smooth="yes"/>
      <point x="498.47857142857146" y="590.2678571428571"/>
      <point x="428.3375" y="652.0"/>
      <point x="307.70892857142854" y="652.0" type="curve" smooth="yes"/>
      <point x="202.08035714285714" y="652.0"/>
      <point x="104.19285714285714" y="597.8267857142857"/>
      <point x="104.19285714285714" y="487.4839285714286" type="curve" smooth="yes"/>
      <point x="104.19285714285714" y="420.23035714285714"/>
      <point x="143.6625" y="363.35714285714283"/>
      <point x="210.4232142857143" y="325.8125" type="curve"/>
      <point x="117.06607142857143" y="289.9767857142857"/>
      <point x="65.63392857142857" y="232.55892857142857"/>
      <point x="65.63392857142857" y="152.1642857142857" type="curve" smooth="yes"/>
      <point x="65.63392857142857" y="66.91071428571429"/>
      <point x="130.85" y="-13.0"/>
    </contour>
    <contour>
      <point x="274.0892857142857" y="35.225" type="curve" smooth="yes"/>
      <point x="182.1732142857143" y="35.225"/>
      <point x="149.50178571428572" y="101.08928571428571"/>
      <point x="149.50178571428572" y="154.38035714285715" type="curve" smooth="yes"/>
      <point x="149.50178571428572" y="229.49821428571428"/>
      <point x="206.91071428571428" y="272.33392857142854"/>
      <point x="263.35714285714283" y="297.9160714285714" type="curve"/>
      <point x="297.7839285714286" y="276.5642857142857"/>
      <point x="403.14642857142854" y="241.90714285714284"/>
      <point x="403.14642857142854" y="143.8125" type="curve" smooth="yes"/>
      <point x="403.14642857142854" y="62.73214285714286"/>
      <point x="336.5732142857143" y="35.225"/>
    </contour>
    <contour>
      <point x="327.1875" y="374.4642857142857" type="curve"/>
      <point x="250.71785714285716" y="412.00892857142856"/>
      <point x="202.15892857142856" y="448.84464285714284"/>
      <point x="202.15892857142856" y="512.9482142857142" type="curve" smooth="yes"/>
      <point x="202.15892857142856" y="578.9767857142857"/>
      <point x="254.3517857142857" y="605.6107142857143"/>
      <point x="307.6196428571429" y="605.6107142857143" type="curve" smooth="yes"/>
      <point x="368.0517857142857" y="605.6107142857143"/>
      <point x="417.61071428571427" y="567.4321428571428"/>
      <point x="417.61071428571427" y="507.34285714285716" type="curve" smooth="yes"/>
      <point x="417.61071428571427" y="456.20178571428573"/>
      <point x="383.8875" y="409.76964285714286"/>
    </contour>
  </outline>
</glyph>
<glyph name="nine" format="2">
  <advance width="545.8214285714286"/>
  <unicode hex="0039"/>
  <outline>
    <contour>
      <point x="175.1875" y="-13.0" type="curve" smooth="yes"/>
      <point x="306.0375" y="-13.0"/>
      <point x="501.79285714285714" y="103.72321428571429"/>
      <point x="501.79285714285714" y="392.7607142857143" type="curve" smooth="yes"/>
      <point x="501.79285714285714" y="549.0"/>
      <point x="435.5910714285714" y="652.0"/>
      <point x="279.73214285714283" y="652.0" type="curve" smooth="yes"/>
      <point x="131.74642857142857" y="652.0"/>
      <point x="46.38035714285714" y="541.6946428571429"/>
      <point x="46.38035714285714" y="418.0" type="curve" smooth="yes"/>
      <point x="46.38035714285714" y="295.11785714285713"/>
      <point x="120.44107142857143" y="220.70892857142857"/>
      <point x="253.41785714285714" y="220.70892857142857" type="curve" smooth="yes"/>
      <point x="326.61071428571427" y="220.70892857142857"/>
      <point x="375.4607142857143" y="251.93928571428572"/>
      <point x="391.55" y="267.15535714285716" type="curve"/>
      <point x="358.23035714285714" y="110.18214285714285"/>
      <point x="251.82142857142858" y="40.591071428571425"/>
      <point x="139.23928571428573" y="40.591071428571425" type="curve" smooth="yes"/>
      <point x="131.075" y="40.591071428571425"/>
      <point x="128.49285714285713" y="34.2625"/>
      <point x="128.49285714285713" y="26.060714285714287" type="curve" smooth="yes"/>
      <point x="128.49285714285713" y="5.746428571428572"/>
      <point x="140.2017857142857" y="-13.0"/>
    </contour>
    <contour>
      <point x="260.3517857142857" y="267.93392857142857" type="curve" smooth="yes"/>
      <point x="203.03214285714284" y="267.93392857142857"/>
      <point x="147.42142857142858" y="310.0232142857143"/>
      <point x="147.42142857142858" y="421.29107142857146" type="curve" smooth="yes"/>
      <point x="147.42142857142858" y="540.2678571428571"/>
      <point x="208.45" y="603.9017857142857"/>
      <point x="274.15" y="603.9017857142857" type="curve" smooth="yes"/>
      <point x="376.99107142857144" y="603.9017857142857"/>
      <point x="400.4607142857143" y="491.0517857142857"/>
      <point x="400.4607142857143" y="407.45535714285717" type="curve" smooth="yes"/>
      <point x="400.4607142857143" y="395.3285714285714"/>
      <point x="399.7517857142857" y="375.45535714285717"/>
      <point x="398.04285714285714" y="369.74642857142857" type="curve" smooth="yes"/>
      <point x="381.5357142857143" y="306.4035714285714"/>
      <point x="320.41785714285714" y="267.93392857142857"/>
    </contour>
  </outline>
</glyph>
<glyph name="colon" format="2">
  <advance width="275.0"/>
  <unicode hex="003A"/>
  <outline>
    <contour>
      <point x="121.47857142857143" y="87.03035714285716" type="curve" smooth="yes"/>
      <point x="154.75535714285715" y="87.03035714285716"/>
      <point x="185.01785714285714" y="113.01607142857144"/>
      <point x="185.7267857142857" y="144.49464285714288" type="curve" smooth="yes"/>
      <point x="187.14464285714286" y="188.39107142857142"/>
      <point x="162.4125" y="207.1375"/>
      <point x="138.80714285714285" y="207.1375" type="curve" smooth="yes"/>
      <point x="110.87321428571428" y="207.1375"/>
      <point x="73.72321428571429" y="183.8464285714286"/>
      <point x="73.72321428571429" y="139.78571428571428" type="curve" smooth="yes"/>
      <point x="73.72321428571429" y="110.54642857142858"/>
      <point x="89.87321428571428" y="87.03035714285716"/>
    </contour>
    <contour>
      <point x="150.0142857142857" y="282.57142857142856" type="curve" smooth="yes"/>
      <point x="178.65714285714284" y="282.57142857142856"/>
      <point x="215.80714285714285" y="305.8625"/>
      <point x="215.80714285714285" y="349.92321428571427" type="curve" smooth="yes"/>
      <point x="215.80714285714285" y="379.1625"/>
      <point x="198.9482142857143" y="402.67857142857144"/>
      <point x="168.0517857142857" y="402.67857142857144" type="curve" smooth="yes"/>
      <point x="134.06607142857143" y="402.67857142857144"/>
      <point x="103.80357142857143" y="376.6928571428571"/>
      <point x="103.80357142857143" y="344.92321428571427" type="curve" smooth="yes"/>
      <point x="103.80357142857143" y="301.3178571428571"/>
      <point x="127.11785714285713" y="282.57142857142856"/>
    </contour>
  </outline>
</glyph>
<glyph name="semicolon" format="2">
  <advance width="282.69464285714287"/>
  <unicode hex="003B"/>
  <outline>
    <contour>
      <point x="162.49285714285713" y="369.89285714285717" type="curve" smooth="yes"/>
      <point x="188.68035714285713" y="369.89285714285717"/>
      <point x="228.15892857142856" y="398.7142857142857"/>
      <point x="228.15892857142856" y="438.7" type="curve" smooth="yes"/>
      <point x="228.15892857142856" y="475.50714285714287"/>
      <point x="208.3892857142857" y="490.0"/>
      <point x="179.82142857142858" y="490.0" type="curve" smooth="yes"/>
      <point x="144.08928571428572" y="490.0"/>
      <point x="116.15535714285714" y="469.54464285714283"/>
      <point x="116.15535714285714" y="433.99107142857144" type="curve" smooth="yes"/>
      <point x="116.15535714285714" y="397.6625"/>
      <point x="136.55892857142857" y="369.89285714285717"/>
    </contour>
    <contour>
      <point x="50.31428571428572" y="-78.29107142857143" type="curve" smooth="yes"/>
      <point x="67.42678571428571" y="-78.29107142857143"/>
      <point x="77.71785714285714" y="-74.58214285714286"/>
      <point x="88.83035714285714" y="-65.79821428571428" type="curve" smooth="yes"/>
      <point x="125.4125" y="-29.873214285714287"/>
      <point x="194.4875" y="52.67142857142857"/>
      <point x="194.4875" y="83.67142857142858" type="curve" smooth="yes"/>
      <point x="194.4875" y="94.29107142857143"/>
      <point x="189.3232142857143" y="106.0375"/>
      <point x="177.95714285714286" y="118.69464285714285" type="curve" smooth="yes"/>
      <point x="168.59107142857144" y="128.3517857142857"/>
      <point x="149.9482142857143" y="141.66607142857143"/>
      <point x="137.45535714285714" y="141.66607142857143" type="curve" smooth="yes"/>
      <point x="131.12678571428572" y="141.66607142857143"/>
      <point x="128.9625" y="139.79285714285714"/>
      <point x="125.21607142857142" y="129.1357142857143" type="curve" smooth="yes"/>
      <point x="103.29107142857143" y="76.28571428571429"/>
      <point x="50.253571428571426" y="-21.573214285714286"/>
      <point x="35.17857142857143" y="-48.59642857142857" type="curve" smooth="yes"/>
      <point x="27.760714285714286" y="-60.59642857142857"/>
      <point x="24.46964285714286" y="-65.17857142857143"/>
      <point x="24.46964285714286" y="-67.46964285714286" type="curve" smooth="yes"/>
      <point x="24.46964285714286" y="-70.46964285714286"/>
      <point x="37.910714285714285" y="-78.29107142857143"/>
    </contour>
  </outline>
</glyph>
<glyph name="less" format="2">
  <advance width="540.0"/>
  <unicode hex="003C"/>
  <outline>
    <contour>
      <point x="427.50714285714287" y="107.39464285714286" type="curve" smooth="yes"/>
      <point x="438.63392857142856" y="107.39464285714286"/>
      <point x="440.3803571428571" y="127.63392857142857"/>
      <point x="440.3803571428571" y="148.54464285714286" type="curve" smooth="yes"/>
      <point x="440.3803571428571" y="159.65714285714284"/>
      <point x="438.925" y="169.44107142857143"/>
      <point x="418.52142857142854" y="179.3517857142857" type="curve" smooth="yes"/>
      <point x="165.18214285714285" y="297.6857142857143" type="line"/>
      <point x="462.17857142857144" y="421.80357142857144" type="line" smooth="yes"/>
      <point x="482.50714285714287" y="430.6767857142857"/>
      <point x="484.70892857142854" y="457.8410714285714"/>
      <point x="484.70892857142854" y="485.54464285714283" type="curve" smooth="yes"/>
      <point x="484.70892857142854" y="504.8964285714286"/>
      <point x="479.9625" y="516.4785714285714"/>
      <point x="473.79821428571427" y="516.4785714285714" type="curve" smooth="yes"/>
      <point x="468.925" y="516.4785714285714"/>
      <point x="461.0517857142857" y="514.8964285714286"/>
      <point x="446.8875" y="508.60535714285714" type="curve" smooth="yes"/>
      <point x="94.925" y="355.76964285714286" type="line" smooth="yes"/>
      <point x="80.46964285714286" y="349.1875"/>
      <point x="72.46964285714286" y="339.15"/>
      <point x="72.46964285714286" y="323.65714285714284" type="curve" smooth="yes"/>
      <point x="72.46964285714286" y="290.8732142857143"/>
      <point x="76.34285714285714" y="271.39464285714286"/>
      <point x="94.38035714285714" y="262.52142857142854" type="curve" smooth="yes"/>
      <point x="407.50714285714287" y="115.10357142857143" type="line" smooth="yes"/>
      <point x="420.50714285714287" y="109.10357142857143"/>
      <point x="423.50714285714287" y="107.39464285714286"/>
    </contour>
  </outline>
</glyph>
<glyph name="equal" format="2">
  <advance width="552.9107142857143"/>
  <unicode hex="003D"/>
  <outline>
    <contour>
      <point x="211.27857142857144" y="409.4357142857143" type="curve" smooth="yes"/>
      <point x="353.51428571428573" y="409.4357142857143" type="line" smooth="yes"/>
      <point x="360.49107142857144" y="409.4357142857143"/>
      <point x="361.66964285714283" y="417.55357142857144"/>
      <point x="361.66964285714283" y="416.7232142857143" type="curve" smooth="yes"/>
      <point x="361.66964285714283" y="411.9160714285714"/>
      <point x="360.9982142857143" y="411.4607142857143"/>
      <point x="360.3642857142857" y="411.4607142857143" type="curve" smooth="yes"/>
      <point x="218.12857142857143" y="411.4607142857143" type="line" smooth="yes"/>
      <point x="211.15178571428572" y="411.4607142857143"/>
      <point x="209.97321428571428" y="404.0517857142857"/>
      <point x="209.97321428571428" y="405.17321428571427" type="curve" smooth="yes"/>
      <point x="209.97321428571428" y="408.98035714285714"/>
      <point x="210.64464285714286" y="409.4357142857143"/>
    </contour>
    <contour>
      <point x="200.27857142857144" y="233.1875" type="curve" smooth="yes"/>
      <point x="342.51428571428573" y="233.1875" type="line" smooth="yes"/>
      <point x="349.49107142857144" y="233.1875"/>
      <point x="349.9607142857143" y="239.59642857142856"/>
      <point x="349.9607142857143" y="238.475" type="curve" smooth="yes"/>
      <point x="349.9607142857143" y="234.95892857142857"/>
      <point x="349.9982142857143" y="234.50357142857143"/>
      <point x="349.3642857142857" y="234.50357142857143" type="curve" smooth="yes"/>
      <point x="207.12857142857143" y="234.50357142857143" type="line" smooth="yes"/>
      <point x="199.44285714285715" y="234.50357142857143"/>
      <point x="198.97321428571428" y="226.09464285714284"/>
      <point x="198.97321428571428" y="227.63392857142858" type="curve" smooth="yes"/>
      <point x="198.97321428571428" y="232.44107142857143"/>
      <point x="199.64464285714286" y="233.1875"/>
    </contour>
  </outline>
</glyph>
<glyph name="greater" format="2">
  <advance width="541.6428571428571"/>
  <unicode hex="003E"/>
  <outline>
    <contour>
      <point x="79.1125" y="106.68571428571428" type="curve" smooth="yes"/>
      <point x="83.98571428571428" y="106.68571428571428"/>
      <point x="91.85892857142858" y="108.26785714285714"/>
      <point x="106.02321428571429" y="114.55892857142857" type="curve" smooth="yes"/>
      <point x="457.1125" y="267.1035714285714" type="line" smooth="yes"/>
      <point x="473.73214285714283" y="274.26785714285717"/>
      <point x="480.44107142857143" y="293.3285714285714"/>
      <point x="480.44107142857143" y="314.76964285714286" type="curve" smooth="yes"/>
      <point x="480.44107142857143" y="341.60535714285714"/>
      <point x="477.2767857142857" y="351.76964285714286"/>
      <point x="458.53035714285716" y="360.64285714285717" type="curve" smooth="yes"/>
      <point x="146.1125" y="508.0607142857143" type="line" smooth="yes"/>
      <point x="133.1125" y="514.0607142857143"/>
      <point x="129.40357142857144" y="515.7696428571429"/>
      <point x="125.40357142857142" y="515.7696428571429" type="curve" smooth="yes"/>
      <point x="114.27678571428571" y="515.7696428571429"/>
      <point x="112.53035714285714" y="495.53035714285716"/>
      <point x="112.53035714285714" y="474.6196428571429" type="curve" smooth="yes"/>
      <point x="112.53035714285714" y="463.50714285714287"/>
      <point x="113.98571428571428" y="453.7232142857143"/>
      <point x="134.3892857142857" y="444.52142857142854" type="curve" smooth="yes"/>
      <point x="387.7285714285714" y="325.47857142857146" type="line"/>
      <point x="90.73214285714286" y="201.3607142857143" type="line" smooth="yes"/>
      <point x="70.40357142857142" y="192.4875"/>
      <point x="68.20178571428572" y="162.4875"/>
      <point x="68.20178571428572" y="134.78392857142856" type="curve" smooth="yes"/>
      <point x="68.20178571428572" y="115.43214285714285"/>
      <point x="72.94821428571429" y="106.68571428571428"/>
    </contour>
  </outline>
</glyph>
<glyph name="question" format="2">
  <advance width="447.0"/>
  <unicode hex="003F"/>
  <outline>
    <contour>
      <point x="142.23928571428573" y="218.06071428571428" type="curve" smooth="yes"/>
      <point x="156.23928571428573" y="218.06071428571428"/>
      <point x="152.64285714285714" y="242.82142857142858"/>
      <point x="214.55892857142857" y="288.9767857142857" type="curve" smooth="yes"/>
      <point x="292.82142857142856" y="346.58214285714286"/>
      <point x="398.79285714285714" y="395.28214285714284"/>
      <point x="398.79285714285714" y="500.9625" type="curve" smooth="yes"/>
      <point x="398.79285714285714" y="542.5071428571429"/>
      <point x="384.3375" y="576.0892857142857"/>
      <point x="362.17321428571427" y="600.5446428571429" type="curve" smooth="yes"/>
      <point x="326.9714285714286" y="639.3285714285714"/>
      <point x="267.4035714285714" y="652.0"/>
      <point x="209.1125" y="652.0" type="curve" smooth="yes"/>
      <point x="148.0232142857143" y="652.0"/>
      <point x="79.69464285714285" y="630.2017857142857"/>
      <point x="45.455357142857146" y="589.8589285714286" type="curve" smooth="yes"/>
      <point x="37.925" y="583.9482142857142"/>
      <point x="34.925" y="576.1642857142857"/>
      <point x="34.925" y="564.9625" type="curve" smooth="yes"/>
      <point x="34.925" y="535.5214285714286"/>
      <point x="43.089285714285715" y="519.9392857142857"/>
      <point x="53.417857142857144" y="519.9392857142857" type="curve" smooth="yes"/>
      <point x="56.70892857142857" y="519.9392857142857"/>
      <point x="64.54464285714286" y="528.7375"/>
      <point x="80.50714285714285" y="544.6625" type="curve" smooth="yes"/>
      <point x="105.12678571428572" y="566.625"/>
      <point x="146.9625" y="591.7142857142857"/>
      <point x="207.23035714285714" y="591.7142857142857" type="curve" smooth="yes"/>
      <point x="262.13214285714287" y="591.7142857142857"/>
      <point x="291.7660714285714" y="550.9017857142857"/>
      <point x="291.7660714285714" y="500.7607142857143" type="curve" smooth="yes"/>
      <point x="291.7660714285714" y="436.1875"/>
      <point x="225.43214285714285" y="379.88214285714287"/>
      <point x="167.9625" y="331.5910714285714" type="curve" smooth="yes"/>
      <point x="144.21607142857144" y="310.5160714285714"/>
      <point x="126.45535714285714" y="284.225"/>
      <point x="126.45535714285714" y="254.97142857142856" type="curve" smooth="yes"/>
      <point x="126.45535714285714" y="238.47857142857143"/>
      <point x="130.23928571428573" y="218.06071428571428"/>
    </contour>
    <contour>
      <point x="154.60535714285714" y="-0.2910714285714286" type="curve" smooth="yes"/>
      <point x="189.62857142857143" y="-0.2910714285714286"/>
      <point x="218.27142857142857" y="20.164285714285715"/>
      <point x="218.27142857142857" y="55.71785714285714" type="curve" smooth="yes"/>
      <point x="218.27142857142857" y="92.04642857142858"/>
      <point x="197.86785714285713" y="119.81607142857143"/>
      <point x="171.93392857142857" y="119.81607142857143" type="curve" smooth="yes"/>
      <point x="145.74642857142857" y="119.81607142857143"/>
      <point x="106.26785714285714" y="90.99464285714286"/>
      <point x="106.26785714285714" y="50.71785714285714" type="curve" smooth="yes"/>
      <point x="106.26785714285714" y="14.201785714285714"/>
      <point x="125.32857142857142" y="-0.2910714285714286"/>
    </contour>
  </outline>
</glyph>
<glyph name="at" format="2">
  <advance width="835.8535714285714"/>
  <unicode hex="0040"/>
  <outline>
    <contour>
      <point x="140.3892857142857" y="-128.38035714285715" type="curve" smooth="yes"/>
      <point x="147.55357142857142" y="-128.38035714285715"/>
      <point x="152.42678571428573" y="-125.79821428571428"/>
      <point x="152.42678571428573" y="-121.21607142857142" type="curve" smooth="yes"/>
      <point x="152.42678571428573" y="-115.21607142857142"/>
      <point x="146.71785714285716" y="-100.67142857142858"/>
      <point x="143.1357142857143" y="-89.05178571428571" type="curve" smooth="yes"/>
      <point x="114.46428571428572" y="10.380357142857143"/>
      <point x="101.04642857142858" y="101.43214285714285"/>
      <point x="101.04642857142858" y="192.70892857142857" type="curve" smooth="yes"/>
      <point x="101.04642857142858" y="448.9017857142857"/>
      <point x="236.9482142857143" y="595.5214285714286"/>
      <point x="447.57678571428573" y="595.5214285714286" type="curve" smooth="yes"/>
      <point x="673.3321428571429" y="595.5214285714286"/>
      <point x="762.525" y="494.8125"/>
      <point x="762.525" y="357.98571428571427" type="curve" smooth="yes"/>
      <point x="762.525" y="255.4125"/>
      <point x="720.6" y="167.3982142857143"/>
      <point x="661.5339285714285" y="102.42142857142858" type="curve" smooth="yes"/>
      <point x="646.6607142857143" y="85.21964285714286"/>
      <point x="634.9142857142857" y="74.89107142857142"/>
      <point x="628.3321428571429" y="74.89107142857142" type="curve" smooth="yes"/>
      <point x="618.4964285714286" y="74.89107142857142"/>
      <point x="616.0785714285714" y="81.92857142857143"/>
      <point x="616.0785714285714" y="118.51071428571429" type="curve" smooth="yes"/>
      <point x="616.0785714285714" y="217.15"/>
      <point x="628.0410714285714" y="380.30535714285713"/>
      <point x="628.0410714285714" y="387.5964285714286" type="curve"/>
      <point x="632.75" y="387.5964285714286"/>
      <point x="639.2053571428571" y="400.2160714285714"/>
      <point x="639.2053571428571" y="417.54464285714283" type="curve" smooth="yes"/>
      <point x="639.2053571428571" y="424.29107142857146"/>
      <point x="637.6232142857143" y="425.0"/>
      <point x="634.3321428571429" y="426.0" type="curve" smooth="yes"/>
      <point x="543.8678571428571" y="441.74642857142857"/>
      <point x="458.98035714285714" y="448.8732142857143"/>
      <point x="427.68035714285713" y="448.8732142857143" type="curve" smooth="yes"/>
      <point x="362.65714285714284" y="448.8732142857143"/>
      <point x="310.82142857142856" y="414.0"/>
      <point x="268.4035714285714" y="356.58214285714286" type="curve" smooth="yes"/>
      <point x="224.40357142857144" y="297.29107142857146"/>
      <point x="221.69464285714287" y="120.29107142857143"/>
      <point x="221.69464285714287" y="65.225" type="curve" smooth="yes"/>
      <point x="221.69464285714287" y="46.971428571428575"/>
      <point x="222.69464285714287" y="35.55357142857143"/>
      <point x="225.40357142857144" y="27.225" type="curve" smooth="yes"/>
      <point x="229.9857142857143" y="8.32857142857143"/>
      <point x="276.1589285714286" y="-13.0"/>
      <point x="287.90535714285716" y="-13.0" type="curve" smooth="yes"/>
      <point x="339.57678571428573" y="-13.0"/>
      <point x="481.4267857142857" y="166.48392857142858"/>
      <point x="529.4553571428571" y="271.1089285714286" type="curve"/>
      <point x="523.9107142857143" y="208.57321428571427"/>
      <point x="519.7839285714285" y="108.1125"/>
      <point x="519.7839285714285" y="65.225" type="curve" smooth="yes"/>
      <point x="519.7839285714285" y="46.971428571428575"/>
      <point x="520.075" y="35.55357142857143"/>
      <point x="522.7839285714285" y="27.225" type="curve" smooth="yes"/>
      <point x="527.3660714285714" y="8.32857142857143"/>
      <point x="574.2482142857143" y="-13.0"/>
      <point x="585.2857142857143" y="-13.0" type="curve" smooth="yes"/>
      <point x="600.7035714285714" y="-13.0"/>
      <point x="629.1214285714286" y="4.291071428571429"/>
      <point x="658.9946428571428" y="35.29107142857143" type="curve" smooth="yes"/>
      <point x="751.3464285714285" y="131.73214285714286"/>
      <point x="812.9660714285715" y="247.93392857142857"/>
      <point x="812.9660714285715" y="364.93392857142857" type="curve" smooth="yes"/>
      <point x="812.9660714285715" y="496.6857142857143"/>
      <point x="738.3928571428571" y="652.0"/>
      <point x="448.36071428571427" y="652.0" type="curve" smooth="yes"/>
      <point x="178.82142857142858" y="652.0"/>
      <point x="39.455357142857146" y="472.5678571428571"/>
      <point x="39.455357142857146" y="214.69464285714287" type="curve" smooth="yes"/>
      <point x="39.455357142857146" y="116.69464285714285"/>
      <point x="59.910714285714285" y="9.403571428571428"/>
      <point x="102.53035714285714" y="-104.79821428571428" type="curve" smooth="yes"/>
      <point x="108.40357142857142" y="-120.9625"/>
      <point x="124.89642857142857" y="-128.38035714285715"/>
    </contour>
    <contour>
      <point x="331.11607142857144" y="74.6" type="curve" smooth="yes"/>
      <point x="321.28035714285716" y="74.6"/>
      <point x="318.57142857142856" y="79.6"/>
      <point x="318.57142857142856" y="117.34642857142858" type="curve" smooth="yes"/>
      <point x="318.57142857142856" y="302.82142857142856"/>
      <point x="351.75" y="404.4321428571429"/>
      <point x="416.05535714285713" y="404.4321428571429" type="curve" smooth="yes"/>
      <point x="443.10714285714283" y="404.4321428571429"/>
      <point x="483.0839285714286" y="401.01428571428573"/>
      <point x="538.4928571428571" y="389.63392857142856" type="curve"/>
      <point x="512.9714285714285" y="268.2160714285714"/>
      <point x="355.33214285714286" y="74.6"/>
    </contour>
  </outline>
</glyph>
<glyph name="A" format="2">
  <advance width="643.1125"/>
  <unicode hex="0041"/>
  <anchor x="307.25357142857143" y="0.0" name="bottom"/>
  <anchor x="524.7839285714285" y="0.0" name="ogonek"/>
  <anchor x="368.5678571428571" y="652.0" name="top"/>
  <outline>
    <contour>
      <point x="57.75535714285714" y="-13.0" type="curve" smooth="yes"/>
      <point x="66.24821428571428" y="-13.0"/>
      <point x="67.95714285714286" y="-10.126785714285715"/>
      <point x="70.66607142857143" y="-3.7089285714285714" type="curve" smooth="yes"/>
      <point x="84.15892857142858" y="33.1875"/>
      <point x="162.23928571428573" y="199.25892857142856"/>
      <point x="174.61964285714285" y="219.93035714285713" type="curve"/>
      <point x="201.38035714285715" y="220.93035714285713"/>
      <point x="254.55892857142857" y="223.6392857142857"/>
      <point x="304.8125" y="223.6392857142857" type="curve" smooth="yes"/>
      <point x="355.625" y="223.6392857142857"/>
      <point x="414.7892857142857" y="221.6392857142857"/>
      <point x="438.4089285714286" y="220.05714285714285" type="curve"/>
      <point x="458.5875" y="155.90178571428572"/>
      <point x="484.85535714285714" y="64.80714285714286"/>
      <point x="490.69107142857143" y="35.38928571428572" type="curve" smooth="yes"/>
      <point x="493.4" y="21.933928571428574"/>
      <point x="497.2732142857143" y="16.1875"/>
      <point x="501.7285714285714" y="11.732142857142858" type="curve" smooth="yes"/>
      <point x="516.4232142857143" y="-2.9625"/>
      <point x="553.6339285714286" y="-13.0"/>
      <point x="589.4928571428571" y="-13.0" type="curve" smooth="yes"/>
      <point x="609.9714285714285" y="-13.0"/>
      <point x="613.0089285714286" y="-8.253571428571428"/>
      <point x="613.0089285714286" y="0.5303571428571434" type="curve" smooth="yes"/>
      <point x="613.0089285714286" y="4.239285714285715"/>
      <point x="612.0089285714286" y="7.694642857142858"/>
      <point x="608.7178571428572" y="19.02321428571429" type="curve" smooth="yes"/>
      <point x="582.5017857142857" y="107.53035714285714"/>
      <point x="449.6232142857143" y="522.8321428571428"/>
      <point x="425.1303571428571" y="620.6107142857143" type="curve" smooth="yes"/>
      <point x="421.675" y="636.4696428571428"/>
      <point x="378.4642857142857" y="652.0"/>
      <point x="334.0892857142857" y="652.0" type="curve" smooth="yes"/>
      <point x="316.0285714285714" y="652.0"/>
      <point x="311.8642857142857" y="649.5446428571429"/>
      <point x="308.7" y="640.1785714285714" type="curve" smooth="yes"/>
      <point x="264.63392857142856" y="546.3892857142857"/>
      <point x="65.61428571428571" y="148.65535714285716"/>
      <point x="10.530357142857143" y="43.75535714285714" type="curve" smooth="yes"/>
      <point x="6.7839285714285715" y="35.971428571428575"/>
      <point x="4.366071428571429" y="30.55357142857143"/>
      <point x="4.366071428571429" y="26.807142857142857" type="curve" smooth="yes"/>
      <point x="4.366071428571429" y="1.821428571428572"/>
      <point x="31.642857142857146" y="-13.0"/>
    </contour>
    <contour>
      <point x="200.27678571428572" y="277.4839285714286" type="line"/>
      <point x="226.0232142857143" y="330.7607142857143"/>
      <point x="305.9625" y="499.25892857142856"/>
      <point x="337.8875" y="548.0196428571428" type="curve"/>
      <point x="351.85" y="505.0571428571429"/>
      <point x="406.5357142857143" y="336.0285714285714"/>
      <point x="422.08035714285717" y="277.4839285714286" type="curve"/>
    </contour>
  </outline>
</glyph>
<glyph name="B" format="2">
  <advance width="605.2428571428571"/>
  <unicode hex="0042"/>
  <anchor x="278.6" y="0.0" name="bottom"/>
  <anchor x="317.14464285714286" y="652.0" name="top"/>
  <outline>
    <contour>
      <point x="87.8125" y="0.0" type="curve"/>
      <point x="301.6982142857143" y="0.0" type="line" smooth="yes"/>
      <point x="454.22857142857146" y="0.0"/>
      <point x="539.6321428571429" y="97.05178571428571"/>
      <point x="539.6321428571429" y="198.61964285714285" type="curve" smooth="yes"/>
      <point x="539.6321428571429" y="278.4035714285714"/>
      <point x="485.68392857142857" y="341.29107142857146"/>
      <point x="384.63214285714287" y="350.29107142857146" type="curve"/>
      <point x="421.6928571428572" y="361.1642857142857"/>
      <point x="521.9607142857143" y="401.65714285714284"/>
      <point x="521.9607142857143" y="507.6714285714286" type="curve" smooth="yes"/>
      <point x="521.9607142857143" y="595.9107142857143"/>
      <point x="455.30357142857144" y="639.0"/>
      <point x="328.51964285714286" y="639.0" type="curve" smooth="yes"/>
      <point x="121.775" y="639.0" type="line"/>
      <point x="115.39464285714286" y="427.53035714285716"/>
      <point x="92.775" y="66.10357142857143"/>
    </contour>
    <contour>
      <point x="279.19642857142856" y="51.84464285714286" type="curve" smooth="yes"/>
      <point x="212.675" y="51.84464285714286"/>
      <point x="199.21964285714284" y="59.591071428571425"/>
      <point x="199.8017857142857" y="97.42678571428571" type="curve" smooth="yes"/>
      <point x="200.675" y="156.84464285714284"/>
      <point x="204.09285714285716" y="269.85"/>
      <point x="207.8017857142857" y="316.50714285714287" type="curve"/>
      <point x="230.98035714285714" y="316.50714285714287"/>
      <point x="254.45" y="316.50714285714287"/>
      <point x="278.79285714285714" y="315.925" type="curve" smooth="yes"/>
      <point x="341.95714285714286" y="313.01428571428573"/>
      <point x="430.73214285714283" y="293.35714285714283"/>
      <point x="430.73214285714283" y="194.925" type="curve" smooth="yes"/>
      <point x="430.73214285714283" y="105.2625"/>
      <point x="372.7553571428571" y="51.84464285714286"/>
    </contour>
    <contour>
      <point x="211.5107142857143" y="356.1267857142857" type="curve"/>
      <point x="214.47321428571428" y="438.4607142857143"/>
      <point x="222.05535714285713" y="544.5964285714285"/>
      <point x="228.47321428571428" y="583.4839285714286" type="curve"/>
      <point x="245.43571428571428" y="584.9017857142857"/>
      <point x="274.1589285714286" y="587.7375"/>
      <point x="291.12142857142857" y="587.7375" type="curve" smooth="yes"/>
      <point x="372.4267857142857" y="587.7375"/>
      <point x="414.64285714285717" y="558.9910714285714"/>
      <point x="414.64285714285717" y="493.6857142857143" type="curve" smooth="yes"/>
      <point x="414.64285714285717" y="454.46964285714284"/>
      <point x="397.2625" y="416.6714285714286"/>
      <point x="369.84464285714284" y="394.3803571428571" type="curve" smooth="yes"/>
      <point x="333.375" y="365.1642857142857"/>
      <point x="289.86785714285713" y="356.1267857142857"/>
    </contour>
  </outline>
</glyph>
<glyph name="C" format="2">
  <advance width="664.0142857142857"/>
  <unicode hex="0043"/>
  <anchor x="368.7839285714286" y="0.0" name="bottom"/>
  <anchor x="407.7839285714286" y="652.0" name="top"/>
  <outline>
    <contour>
      <point x="399.1642857142857" y="-13.0" type="curve" smooth="yes"/>
      <point x="488.0517857142857" y="-13.0"/>
      <point x="558.9535714285714" y="4.178571428571428"/>
      <point x="594.5589285714286" y="20.46964285714286" type="curve" smooth="yes"/>
      <point x="610.0892857142857" y="27.051785714285714"/>
      <point x="617.7464285714286" y="48.83571428571429"/>
      <point x="617.7464285714286" y="82.2625" type="curve" smooth="yes"/>
      <point x="617.7464285714286" y="92.00892857142857"/>
      <point x="617.1642857142857" y="98.00892857142857"/>
      <point x="612.4178571428571" y="98.00892857142857" type="curve" smooth="yes"/>
      <point x="608.8357142857143" y="98.00892857142857"/>
      <point x="601.8357142857143" y="95.3"/>
      <point x="591.8357142857143" y="90.88214285714287" type="curve" smooth="yes"/>
      <point x="551.85" y="73.3"/>
      <point x="487.0375" y="54.70357142857143"/>
      <point x="402.84464285714284" y="54.70357142857143" type="curve" smooth="yes"/>
      <point x="266.7035714285714" y="54.70357142857143"/>
      <point x="165.24285714285713" y="133.80714285714285"/>
      <point x="165.24285714285713" y="315.1267857142857" type="curve" smooth="yes"/>
      <point x="165.24285714285713" y="506.8875"/>
      <point x="273.5625" y="587.6767857142858"/>
      <point x="403.8589285714286" y="587.6767857142858" type="curve" smooth="yes"/>
      <point x="527.0375" y="587.6767857142858"/>
      <point x="586.7089285714286" y="534.9160714285714"/>
      <point x="604.4178571428571" y="534.9160714285714" type="curve" smooth="yes"/>
      <point x="618.2767857142857" y="534.9160714285714"/>
      <point x="622.6946428571429" y="573.4321428571428"/>
      <point x="622.6946428571429" y="588.7232142857143" type="curve" smooth="yes"/>
      <point x="622.6946428571429" y="600.6714285714286"/>
      <point x="622.9482142857142" y="610.8732142857143"/>
      <point x="601.3660714285714" y="620.2910714285714" type="curve" smooth="yes"/>
      <point x="553.9625" y="640.8732142857143"/>
      <point x="488.6714285714286" y="652.0"/>
      <point x="393.3142857142857" y="652.0" type="curve" smooth="yes"/>
      <point x="164.1357142857143" y="652.0"/>
      <point x="55.63392857142857" y="510.3464285714286"/>
      <point x="55.63392857142857" y="301.23035714285714" type="curve" smooth="yes"/>
      <point x="55.63392857142857" y="59.455357142857146"/>
      <point x="220.04285714285714" y="-13.0"/>
    </contour>
  </outline>
</glyph>
<glyph name="D" format="2">
  <advance width="746.8446428571428"/>
  <unicode hex="0044"/>
  <anchor x="344.9714285714286" y="0.0" name="bottom"/>
  <anchor x="373.3285714285714" y="326.0" name="center"/>
  <anchor x="390.5017857142857" y="652.0" name="top"/>
  <outline>
    <contour>
      <point x="87.8125" y="0.0" type="curve"/>
      <point x="319.2946428571429" y="0.0" type="line" smooth="yes"/>
      <point x="570.9714285714285" y="0.0"/>
      <point x="701.3232142857142" y="134.5875"/>
      <point x="701.3232142857142" y="364.70892857142854" type="curve" smooth="yes"/>
      <point x="701.3232142857142" y="572.6660714285714"/>
      <point x="572.9339285714286" y="639.0"/>
      <point x="385.03214285714284" y="639.0" type="curve" smooth="yes"/>
      <point x="121.775" y="639.0" type="line"/>
      <point x="115.39464285714286" y="427.53035714285716"/>
      <point x="89.93928571428572" y="38.455357142857146"/>
    </contour>
    <contour>
      <point x="288.8017857142857" y="53.00892857142857" type="curve" smooth="yes"/>
      <point x="211.8017857142857" y="53.00892857142857"/>
      <point x="200.09285714285716" y="59.00892857142857"/>
      <point x="200.09285714285716" y="98.00892857142857" type="curve" smooth="yes"/>
      <point x="200.09285714285716" y="280.91964285714283"/>
      <point x="218.8017857142857" y="475.7553571428571"/>
      <point x="227.89107142857142" y="580.2821428571428" type="curve"/>
      <point x="266.3232142857143" y="584.7"/>
      <point x="303.0839285714286" y="586.7"/>
      <point x="344.12142857142857" y="586.7" type="curve" smooth="yes"/>
      <point x="507.1035714285714" y="586.7"/>
      <point x="586.7517857142857" y="525.0660714285714"/>
      <point x="586.7517857142857" y="353.36607142857144" type="curve" smooth="yes"/>
      <point x="586.7517857142857" y="122.70892857142857"/>
      <point x="468.1642857142857" y="53.00892857142857"/>
    </contour>
  </outline>
</glyph>
<glyph name="E" format="2">
  <advance width="553.0"/>
  <unicode hex="0045"/>
  <anchor x="281.3285714285714" y="0.0" name="bottom"/>
  <anchor x="421.3285714285714" y="0.0" name="ogonek"/>
  <anchor x="308.70892857142854" y="652.0" name="top"/>
  <anchor x="24.32857142857143" y="652.0" name="topleft"/>
  <outline>
    <contour>
      <point x="87.8125" y="0.0" type="curve"/>
      <point x="488.98571428571427" y="0.0" type="line" smooth="yes"/>
      <point x="502.38928571428573" y="0.0"/>
      <point x="511.225" y="37.933928571428574"/>
      <point x="511.225" y="56.225" type="curve" smooth="yes"/>
      <point x="511.225" y="69.46428571428572"/>
      <point x="511.225" y="75.75535714285715"/>
      <point x="505.64285714285717" y="75.75535714285715" type="curve" smooth="yes"/>
      <point x="497.76964285714286" y="75.75535714285715"/>
      <point x="439.9482142857143" y="57.08392857142857"/>
      <point x="289.5107142857143" y="57.08392857142857" type="curve" smooth="yes"/>
      <point x="212.5107142857143" y="57.08392857142857"/>
      <point x="200.8017857142857" y="63.957142857142856"/>
      <point x="200.8017857142857" y="100.62857142857143" type="curve" smooth="yes"/>
      <point x="200.8017857142857" y="160.93392857142857"/>
      <point x="203.675" y="238.47857142857143"/>
      <point x="207.21964285714284" y="301.8125" type="curve"/>
      <point x="241.98035714285714" y="301.8125" type="line" smooth="yes"/>
      <point x="364.93392857142857" y="301.8125"/>
      <point x="434.68035714285713" y="294.6857142857143"/>
      <point x="440.1357142857143" y="294.6857142857143" type="curve" smooth="yes"/>
      <point x="445.88214285714287" y="294.6857142857143"/>
      <point x="451.88214285714287" y="322.2160714285714"/>
      <point x="451.88214285714287" y="341.29107142857146" type="curve" smooth="yes"/>
      <point x="451.88214285714287" y="354.2392857142857"/>
      <point x="448.3" y="360.53035714285716"/>
      <point x="442.225" y="360.53035714285716" type="curve" smooth="yes"/>
      <point x="209.5107142857143" y="360.53035714285716" type="line"/>
      <point x="214.47321428571428" y="446.35714285714283"/>
      <point x="222.18214285714285" y="543.85"/>
      <point x="228.6" y="579.9910714285714" type="curve"/>
      <point x="258.85357142857146" y="579.9910714285714" type="line" smooth="yes"/>
      <point x="376.8589285714286" y="579.9910714285714"/>
      <point x="449.93392857142857" y="572.4464285714286"/>
      <point x="454.68035714285713" y="572.4464285714286" type="curve" smooth="yes"/>
      <point x="460.4267857142857" y="572.4464285714286"/>
      <point x="466.4267857142857" y="600.3946428571429"/>
      <point x="466.4267857142857" y="619.4696428571428" type="curve" smooth="yes"/>
      <point x="466.4267857142857" y="632.4178571428571"/>
      <point x="463.55357142857144" y="639.0"/>
      <point x="456.76964285714286" y="639.0" type="curve" smooth="yes"/>
      <point x="122.48392857142858" y="639.0" type="line"/>
      <point x="116.10357142857143" y="427.53035714285716"/>
      <point x="93.48392857142858" y="66.10357142857143"/>
    </contour>
  </outline>
</glyph>
<glyph name="F" format="2">
  <advance width="505.74642857142857"/>
  <unicode hex="0046"/>
  <anchor x="126.32857142857142" y="0.0" name="bottom"/>
  <anchor x="290.3285714285714" y="652.0" name="top"/>
  <outline>
    <contour>
      <point x="175.15892857142856" y="-13.0" type="curve" smooth="yes"/>
      <point x="193.6375" y="-13.0"/>
      <point x="196.5107142857143" y="-8.253571428571428"/>
      <point x="196.5107142857143" y="2.567857142857143" type="curve" smooth="yes"/>
      <point x="196.5107142857143" y="73.40357142857142"/>
      <point x="200.92857142857144" y="214.24464285714285"/>
      <point x="203.5107142857143" y="280.6482142857143" type="curve"/>
      <point x="238.3982142857143" y="280.6482142857143" type="line" smooth="yes"/>
      <point x="361.3517857142857" y="280.6482142857143"/>
      <point x="431.0982142857143" y="273.1035714285714"/>
      <point x="435.84464285714284" y="273.1035714285714" type="curve" smooth="yes"/>
      <point x="441.5910714285714" y="273.1035714285714"/>
      <point x="447.5910714285714" y="300.7607142857143"/>
      <point x="447.5910714285714" y="319.8357142857143" type="curve" smooth="yes"/>
      <point x="447.5910714285714" y="333.075"/>
      <point x="444.71785714285716" y="339.36607142857144"/>
      <point x="437.93392857142857" y="339.36607142857144" type="curve" smooth="yes"/>
      <point x="207.09285714285716" y="339.36607142857144" type="line"/>
      <point x="212.05535714285713" y="430.93035714285713"/>
      <point x="220.76428571428573" y="543.85"/>
      <point x="225.6" y="579.9910714285714" type="curve"/>
      <point x="257.14464285714286" y="579.9910714285714" type="line" smooth="yes"/>
      <point x="375.15" y="579.9910714285714"/>
      <point x="446.3517857142857" y="572.7375"/>
      <point x="451.8071428571429" y="572.7375" type="curve" smooth="yes"/>
      <point x="457.55357142857144" y="572.7375"/>
      <point x="463.55357142857144" y="600.3946428571429"/>
      <point x="463.55357142857144" y="619.4696428571428" type="curve" smooth="yes"/>
      <point x="463.55357142857144" y="632.4178571428571"/>
      <point x="460.68035714285713" y="639.0"/>
      <point x="453.8964285714286" y="639.0" type="curve" smooth="yes"/>
      <point x="119.61071428571428" y="639.0" type="line"/>
      <point x="119.61071428571428" y="541.2446428571428"/>
      <point x="105.31964285714285" y="242.93928571428572"/>
      <point x="95.64821428571429" y="123.1875" type="curve" smooth="yes"/>
      <point x="92.64821428571429" y="85.94821428571429"/>
      <point x="87.8125" y="30.680357142857144"/>
      <point x="87.8125" y="27.098214285714285" type="curve" smooth="yes"/>
      <point x="87.8125" y="-0.21607142857142847"/>
      <point x="140.225" y="-13.0"/>
    </contour>
  </outline>
</glyph>
<glyph name="G" format="2">
  <advance width="722.3660714285714"/>
  <unicode hex="0047"/>
  <anchor x="359.7839285714286" y="0.0" name="bottom"/>
  <anchor x="393.7839285714286" y="652.0" name="top"/>
  <outline>
    <contour>
      <point x="384.2767857142857" y="-13.0" type="curve" smooth="yes"/>
      <point x="497.225" y="-13.0"/>
      <point x="587.5767857142857" y="3.492857142857143"/>
      <point x="643.4642857142857" y="24.74642857142857" type="curve"/>
      <point x="649.0464285714286" y="128.80714285714285"/>
      <point x="655.3375" y="234.3232142857143"/>
      <point x="659.7553571428572" y="312.47857142857146" type="curve"/>
      <point x="441.8357142857143" y="312.47857142857146" type="line" smooth="yes"/>
      <point x="432.0892857142857" y="312.47857142857146"/>
      <point x="422.7607142857143" y="294.8071428571429"/>
      <point x="422.7607142857143" y="271.2767857142857" type="curve" smooth="yes"/>
      <point x="422.7607142857143" y="260.0375"/>
      <point x="425.46964285714284" y="250.7982142857143"/>
      <point x="431.34285714285716" y="250.7982142857143" type="curve" smooth="yes"/>
      <point x="437.2160714285714" y="250.7982142857143"/>
      <point x="463.41785714285714" y="254.63392857142858"/>
      <point x="558.0946428571428" y="254.63392857142858" type="curve"/>
      <point x="556.6767857142858" y="183.8875"/>
      <point x="549.55" y="85.84464285714286"/>
      <point x="547.8410714285715" y="64.64285714285714" type="curve"/>
      <point x="523.3339285714286" y="56.84464285714286"/>
      <point x="470.17857142857144" y="49.04642857142858"/>
      <point x="404.9714285714286" y="49.04642857142858" type="curve" smooth="yes"/>
      <point x="283.7267857142857" y="49.04642857142858"/>
      <point x="165.24285714285713" y="116.64285714285714"/>
      <point x="165.24285714285713" y="315.50714285714287" type="curve" smooth="yes"/>
      <point x="165.24285714285713" y="499.7"/>
      <point x="268.90535714285716" y="589.0946428571428"/>
      <point x="406.76964285714286" y="589.0946428571428" type="curve" smooth="yes"/>
      <point x="483.64285714285717" y="589.0946428571428"/>
      <point x="552.8214285714286" y="564.2964285714286"/>
      <point x="586.5303571428572" y="545.4982142857143" type="curve" smooth="yes"/>
      <point x="607.2392857142858" y="533.5357142857143"/>
      <point x="617.4035714285715" y="529.2446428571428"/>
      <point x="624.8214285714286" y="529.2446428571428" type="curve" smooth="yes"/>
      <point x="639.3892857142857" y="529.2446428571428"/>
      <point x="643.8071428571428" y="564.2160714285715"/>
      <point x="643.8071428571428" y="583.3428571428572" type="curve" smooth="yes"/>
      <point x="643.8071428571428" y="597.5821428571429"/>
      <point x="638.9339285714286" y="605.4928571428571"/>
      <point x="629.5678571428572" y="610.3660714285714" type="curve" smooth="yes"/>
      <point x="605.8732142857143" y="624.3660714285714"/>
      <point x="527.7232142857143" y="652.0"/>
      <point x="393.3142857142857" y="652.0" type="curve" smooth="yes"/>
      <point x="164.1357142857143" y="652.0"/>
      <point x="55.63392857142857" y="510.3464285714286"/>
      <point x="55.63392857142857" y="301.23035714285714" type="curve" smooth="yes"/>
      <point x="55.63392857142857" y="103.40892857142858"/>
      <point x="174.67142857142858" y="-13.0"/>
    </contour>
  </outline>
</glyph>
<glyph name="H" format="2">
  <advance width="795.0232142857143"/>
  <unicode hex="0048"/>
  <anchor x="380.3285714285714" y="0.0" name="bottom"/>
  <anchor x="400.3285714285714" y="326.0" name="center"/>
  <anchor x="425.3285714285714" y="652.0" name="top"/>
  <anchor x="24.32857142857143" y="652.0" name="topleft"/>
  <outline>
    <contour>
      <point x="175.15892857142856" y="-13.0" type="curve" smooth="yes"/>
      <point x="193.6375" y="-13.0"/>
      <point x="196.5107142857143" y="-8.253571428571428"/>
      <point x="196.5107142857143" y="2.567857142857143" type="curve" smooth="yes"/>
      <point x="196.5107142857143" y="100.59642857142858"/>
      <point x="199.5107142857143" y="201.48392857142858"/>
      <point x="205.6375" y="293.5732142857143" type="curve"/>
      <point x="275.7785714285714" y="298.15535714285716"/>
      <point x="345.3375" y="300.44642857142856"/>
      <point x="413.60535714285714" y="300.44642857142856" type="curve" smooth="yes"/>
      <point x="476.29107142857146" y="300.44642857142856"/>
      <point x="538.6857142857143" y="298.44642857142856"/>
      <point x="598.4982142857143" y="295.15535714285716" type="curve"/>
      <point x="590.3714285714286" y="157.67142857142858"/>
      <point x="581.1178571428571" y="33.68035714285715"/>
      <point x="581.1178571428571" y="27.098214285714285" type="curve" smooth="yes"/>
      <point x="581.1178571428571" y="-0.21607142857142847"/>
      <point x="633.5303571428572" y="-13.0"/>
      <point x="668.4642857142857" y="-13.0" type="curve" smooth="yes"/>
      <point x="686.9428571428572" y="-13.0"/>
      <point x="690.525" y="-8.253571428571428"/>
      <point x="690.525" y="2.567857142857143" type="curve" smooth="yes"/>
      <point x="690.525" y="282.6535714285714"/>
      <point x="722.3232142857142" y="597.4464285714286"/>
      <point x="722.3232142857142" y="612.6107142857143" type="curve" smooth="yes"/>
      <point x="722.3232142857142" y="639.925"/>
      <point x="669.2017857142857" y="652.0"/>
      <point x="634.2678571428571" y="652.0" type="curve" smooth="yes"/>
      <point x="615.0803571428571" y="652.0"/>
      <point x="612.9160714285714" y="647.9625"/>
      <point x="612.9160714285714" y="637.1410714285714" type="curve" smooth="yes"/>
      <point x="612.2071428571428" y="584.1928571428572"/>
      <point x="607.7892857142857" y="472.79821428571427"/>
      <point x="601.6625" y="360.5678571428571" type="curve"/>
      <point x="208.8017857142857" y="360.5678571428571" type="line"/>
      <point x="217.6375" y="502.5964285714286"/>
      <point x="228.30892857142857" y="604.6107142857143"/>
      <point x="228.30892857142857" y="612.6107142857143" type="curve" smooth="yes"/>
      <point x="228.30892857142857" y="639.925"/>
      <point x="175.89642857142857" y="652.0"/>
      <point x="140.9625" y="652.0" type="curve" smooth="yes"/>
      <point x="121.775" y="652.0"/>
      <point x="119.61071428571428" y="647.9625"/>
      <point x="119.61071428571428" y="637.1410714285714" type="curve" smooth="yes"/>
      <point x="117.48392857142858" y="508.7660714285714"/>
      <point x="87.8125" y="40.84464285714286"/>
      <point x="87.8125" y="27.098214285714285" type="curve" smooth="yes"/>
      <point x="87.8125" y="-0.21607142857142847"/>
      <point x="140.225" y="-13.0"/>
    </contour>
  </outline>
</glyph>
<glyph name="I" format="2">
  <advance width="305.71785714285716"/>
  <unicode hex="0049"/>
  <anchor x="141.51607142857142" y="0.0" name="bottom"/>
  <anchor x="269.45535714285717" y="10.0" name="ogonek"/>
  <anchor x="189.69464285714287" y="652.0" name="top"/>
  <anchor x="28.455357142857142" y="652.0" name="topleft"/>
  <outline>
    <contour>
      <point x="179.28571428571428" y="-13.0" type="curve" smooth="yes"/>
      <point x="197.76428571428573" y="-13.0"/>
      <point x="200.6375" y="-8.253571428571428"/>
      <point x="200.6375" y="2.567857142857143" type="curve" smooth="yes"/>
      <point x="200.6375" y="282.6535714285714"/>
      <point x="232.43571428571428" y="597.4464285714286"/>
      <point x="232.43571428571428" y="612.3196428571429" type="curve" smooth="yes"/>
      <point x="232.43571428571428" y="639.925"/>
      <point x="180.0232142857143" y="652.0"/>
      <point x="145.08928571428572" y="652.0" type="curve" smooth="yes"/>
      <point x="125.90178571428571" y="652.0"/>
      <point x="123.7375" y="647.9625"/>
      <point x="123.7375" y="637.1410714285714" type="curve" smooth="yes"/>
      <point x="121.61071428571428" y="508.7660714285714"/>
      <point x="91.93928571428572" y="40.84464285714286"/>
      <point x="91.93928571428572" y="27.098214285714285" type="curve" smooth="yes"/>
      <point x="91.93928571428572" y="-0.21607142857142847"/>
      <point x="144.3517857142857" y="-13.0"/>
    </contour>
  </outline>
</glyph>
<glyph name="J" format="2">
  <advance width="386.9767857142857"/>
  <unicode hex="004A"/>
  <anchor x="203.75178571428572" y="0.0" name="bottom"/>
  <anchor x="268.9017857142857" y="652.0" name="top"/>
  <outline>
    <contour>
      <point x="120.70892857142857" y="-13.0" type="curve" smooth="yes"/>
      <point x="190.9857142857143" y="-13.0"/>
      <point x="247.73214285714286" y="24.873214285714287"/>
      <point x="275.69464285714287" y="109.76071428571429" type="curve" smooth="yes"/>
      <point x="305.44107142857143" y="200.0"/>
      <point x="314.44107142857143" y="531.3571428571429"/>
      <point x="314.44107142857143" y="612.6107142857143" type="curve" smooth="yes"/>
      <point x="314.44107142857143" y="639.925"/>
      <point x="262.0285714285714" y="652.0"/>
      <point x="227.09464285714284" y="652.0" type="curve" smooth="yes"/>
      <point x="207.90714285714284" y="652.0"/>
      <point x="205.74285714285713" y="647.9625"/>
      <point x="205.74285714285713" y="637.1410714285714" type="curve" smooth="yes"/>
      <point x="205.74285714285713" y="298.8625"/>
      <point x="190.94464285714287" y="92.47857142857143"/>
      <point x="157.18392857142857" y="60.51607142857143" type="curve" smooth="yes"/>
      <point x="143.5125" y="47.38928571428572"/>
      <point x="127.84107142857142" y="40.84464285714286"/>
      <point x="108.16964285714286" y="40.84464285714286" type="curve" smooth="yes"/>
      <point x="74.775" y="40.84464285714286"/>
      <point x="39.12678571428572" y="57.73214285714286"/>
      <point x="29.873214285714287" y="57.73214285714286" type="curve" smooth="yes"/>
      <point x="24.291071428571428" y="57.73214285714286"/>
      <point x="20.0" y="47.53035714285714"/>
      <point x="20.0" y="36.239285714285714" type="curve" smooth="yes"/>
      <point x="20.0" y="17.821428571428573"/>
      <point x="23.873214285714287" y="4.417857142857143"/>
      <point x="35.29107142857143" y="-1.0" type="curve"/>
      <point x="53.29107142857143" y="-9.708928571428572"/>
      <point x="82.78392857142858" y="-13.0"/>
    </contour>
  </outline>
</glyph>
<glyph name="K" format="2">
  <advance width="649.0464285714286"/>
  <unicode hex="004B"/>
  <anchor x="290.3285714285714" y="0.0" name="bottom"/>
  <anchor x="334.3285714285714" y="652.0" name="top"/>
  <outline>
    <contour>
      <point x="175.15892857142856" y="-13.0" type="curve" smooth="yes"/>
      <point x="193.6375" y="-13.0"/>
      <point x="196.5107142857143" y="-8.253571428571428"/>
      <point x="196.5107142857143" y="2.567857142857143" type="curve" smooth="yes"/>
      <point x="196.5107142857143" y="104.30535714285715"/>
      <point x="200.92857142857144" y="211.23035714285714"/>
      <point x="205.6375" y="304.35714285714283" type="curve"/>
      <point x="212.3464285714286" y="297.0285714285714"/>
      <point x="226.00357142857143" y="287.15535714285716"/>
      <point x="239.87678571428572" y="278.61071428571427" type="curve" smooth="yes"/>
      <point x="307.2714285714286" y="210.53571428571428"/>
      <point x="442.4321428571429" y="74.82142857142857"/>
      <point x="518.3339285714286" y="-1.5964285714285706" type="curve" smooth="yes"/>
      <point x="524.5357142857143" y="-10.708928571428572"/>
      <point x="530.2821428571428" y="-13.0"/>
      <point x="543.0660714285714" y="-13.0" type="curve" smooth="yes"/>
      <point x="565.4553571428571" y="-13.0"/>
      <point x="593.6803571428571" y="3.5303571428571434"/>
      <point x="612.9946428571428" y="18.933928571428574" type="curve" smooth="yes"/>
      <point x="620.45" y="25.51607142857143"/>
      <point x="626.3232142857142" y="31.098214285714285"/>
      <point x="626.3232142857142" y="34.55357142857143" type="curve" smooth="yes"/>
      <point x="626.3232142857142" y="38.71785714285714"/>
      <point x="625.0321428571428" y="41.17321428571429"/>
      <point x="616.9946428571428" y="49.957142857142856" type="curve" smooth="yes"/>
      <point x="508.22857142857146" y="140.69464285714287"/>
      <point x="349.1857142857143" y="310.68035714285713"/>
      <point x="316.96964285714284" y="346.4267857142857" type="curve"/>
      <point x="372.3732142857143" y="403.6892857142857"/>
      <point x="536.5482142857143" y="551.4696428571428"/>
      <point x="602.5392857142857" y="614.6625" type="curve" smooth="yes"/>
      <point x="609.9946428571428" y="622.7"/>
      <point x="612.8678571428571" y="626.1553571428572"/>
      <point x="612.8678571428571" y="630.0285714285715" type="curve" smooth="yes"/>
      <point x="612.8678571428571" y="638.8125"/>
      <point x="592.0464285714286" y="652.0"/>
      <point x="567.7321428571429" y="652.0" type="curve" smooth="yes"/>
      <point x="546.5303571428572" y="652.0"/>
      <point x="538.5303571428572" y="646.5071428571429"/>
      <point x="526.075" y="633.8875" type="curve" smooth="yes"/>
      <point x="405.8392857142857" y="521.2482142857143"/>
      <point x="256.04107142857146" y="368.0232142857143"/>
      <point x="206.21964285714284" y="318.79821428571427" type="curve"/>
      <point x="215.3464285714286" y="478.9017857142857"/>
      <point x="228.30892857142857" y="603.3196428571429"/>
      <point x="228.30892857142857" y="612.6107142857143" type="curve" smooth="yes"/>
      <point x="228.30892857142857" y="639.925"/>
      <point x="175.89642857142857" y="652.0"/>
      <point x="140.9625" y="652.0" type="curve" smooth="yes"/>
      <point x="121.775" y="652.0"/>
      <point x="119.61071428571428" y="647.9625"/>
      <point x="119.61071428571428" y="637.1410714285714" type="curve" smooth="yes"/>
      <point x="117.48392857142858" y="508.7660714285714"/>
      <point x="87.8125" y="40.84464285714286"/>
      <point x="87.8125" y="27.098214285714285" type="curve" smooth="yes"/>
      <point x="87.8125" y="-0.21607142857142847"/>
      <point x="140.225" y="-13.0"/>
    </contour>
  </outline>
</glyph>
<glyph name="L" format="2">
  <advance width="489.4035714285714"/>
  <unicode hex="004C"/>
  <anchor x="279.8732142857143" y="0.0" name="bottom"/>
  <anchor x="236.87321428571428" y="326.0" name="center"/>
  <anchor x="243.87321428571428" y="646.1785714285714" name="top"/>
  <anchor x="416.8732142857143" y="524.0" name="topright"/>
  <outline>
    <contour>
      <point x="87.8125" y="0.0" type="curve"/>
      <point x="446.2767857142857" y="0.0" type="line" smooth="yes"/>
      <point x="460.38928571428573" y="0.0"/>
      <point x="469.5160714285714" y="36.47857142857143"/>
      <point x="469.5160714285714" y="54.769642857142856" type="curve" smooth="yes"/>
      <point x="469.5160714285714" y="68.00892857142857"/>
      <point x="469.5160714285714" y="74.00892857142857"/>
      <point x="465.0607142857143" y="74.00892857142857" type="curve" smooth="yes"/>
      <point x="460.73214285714283" y="74.00892857142857"/>
      <point x="381.2107142857143" y="57.08392857142857"/>
      <point x="288.8017857142857" y="57.08392857142857" type="curve" smooth="yes"/>
      <point x="211.8017857142857" y="57.08392857142857"/>
      <point x="200.09285714285716" y="63.957142857142856"/>
      <point x="200.09285714285716" y="100.62857142857143" type="curve" smooth="yes"/>
      <point x="200.09285714285716" y="290.2732142857143"/>
      <point x="229.89107142857142" y="603.9910714285714"/>
      <point x="229.89107142857142" y="612.6107142857143" type="curve" smooth="yes"/>
      <point x="229.89107142857142" y="639.925"/>
      <point x="177.47857142857143" y="652.0"/>
      <point x="142.54464285714286" y="652.0" type="curve" smooth="yes"/>
      <point x="124.06607142857143" y="652.0"/>
      <point x="121.19285714285714" y="647.9625"/>
      <point x="121.19285714285714" y="637.1410714285714" type="curve" smooth="yes"/>
      <point x="116.23035714285714" y="429.1642857142857"/>
      <point x="92.775" y="62.028571428571425"/>
    </contour>
  </outline>
</glyph>
<glyph name="M" format="2">
  <advance width="990.0607142857143"/>
  <unicode hex="004D"/>
  <anchor x="464.17857142857144" y="0.0" name="bottom"/>
  <anchor x="509.82142857142856" y="652.0" name="top"/>
  <outline>
    <contour>
      <point x="136.12678571428572" y="-13.0" type="curve" smooth="yes"/>
      <point x="146.0375" y="-13.0"/>
      <point x="148.49285714285713" y="-9.126785714285715"/>
      <point x="148.78392857142856" y="-2.3803571428571426" type="curve" smooth="yes"/>
      <point x="151.1125" y="54.82142857142857"/>
      <point x="193.53035714285716" y="388.60535714285714"/>
      <point x="215.32857142857142" y="535.2214285714285" type="curve"/>
      <point x="252.50714285714287" y="441.25892857142856"/>
      <point x="367.6767857142857" y="129.63392857142858"/>
      <point x="408.8696428571429" y="20.71785714285714" type="curve" smooth="yes"/>
      <point x="413.74285714285713" y="2.1125000000000007"/>
      <point x="445.7" y="-13.0"/>
      <point x="482.2392857142857" y="-13.0" type="curve" smooth="yes"/>
      <point x="496.84464285714284" y="-13.0"/>
      <point x="502.00892857142856" y="-8.0"/>
      <point x="505.4642857142857" y="1.2392857142857148" type="curve" smooth="yes"/>
      <point x="589.2535714285714" y="167.28214285714284"/>
      <point x="735.0428571428571" y="436.83214285714286"/>
      <point x="791.2071428571428" y="546.3107142857143" type="curve"/>
      <point x="791.7892857142857" y="515.6303571428572"/>
      <point x="795.2071428571428" y="400.2214285714286"/>
      <point x="794.4982142857143" y="276.63392857142856" type="curve" smooth="yes"/>
      <point x="794.0803571428571" y="186.43214285714285"/>
      <point x="791.2446428571428" y="83.0"/>
      <point x="791.2446428571428" y="27.680357142857144" type="curve" smooth="yes"/>
      <point x="791.2446428571428" y="0.6571428571428575"/>
      <point x="840.9107142857143" y="-13.0"/>
      <point x="877.3375" y="-13.0" type="curve" smooth="yes"/>
      <point x="893.4875" y="-13.0"/>
      <point x="898.9803571428572" y="-9.126785714285715"/>
      <point x="898.9803571428572" y="2.2392857142857148" type="curve" smooth="yes"/>
      <point x="898.9803571428572" y="161.39107142857142"/>
      <point x="891.6142857142858" y="443.14464285714286"/>
      <point x="890.1964285714286" y="611.6107142857143" type="curve" smooth="yes"/>
      <point x="890.1964285714286" y="640.6339285714286"/>
      <point x="828.0" y="652.0"/>
      <point x="791.5732142857142" y="652.0" type="curve" smooth="yes"/>
      <point x="773.8410714285715" y="652.0"/>
      <point x="768.6392857142857" y="650.1267857142857"/>
      <point x="764.3482142857143" y="641.0892857142857" type="curve" smooth="yes"/>
      <point x="728.1696428571429" y="567.8732142857143"/>
      <point x="572.8642857142858" y="264.6196428571429"/>
      <point x="488.82142857142856" y="113.25714285714287" type="curve"/>
      <point x="445.00892857142856" y="213.4125"/>
      <point x="352.3982142857143" y="465.4125"/>
      <point x="296.57142857142856" y="614.3196428571429" type="curve" smooth="yes"/>
      <point x="289.11607142857144" y="639.3428571428572"/>
      <point x="237.3375" y="652.0"/>
      <point x="191.32857142857142" y="652.0" type="curve" smooth="yes"/>
      <point x="167.8125" y="652.0"/>
      <point x="165.23035714285714" y="649.4178571428571"/>
      <point x="163.35714285714286" y="631.4696428571428" type="curve" smooth="yes"/>
      <point x="146.0142857142857" y="470.04107142857146"/>
      <point x="77.775" y="49.614285714285714"/>
      <point x="77.775" y="27.098214285714285" type="curve" smooth="yes"/>
      <point x="77.775" y="-0.21607142857142847"/>
      <point x="112.63392857142857" y="-13.0"/>
    </contour>
  </outline>
</glyph>
<glyph name="O" format="2">
  <advance width="753.075"/>
  <unicode hex="004F"/>
  <anchor x="367.20178571428573" y="0.0" name="bottom"/>
  <anchor x="384.20178571428573" y="326.0" name="center"/>
  <anchor x="435.20178571428573" y="10.0" name="ogonek"/>
  <anchor x="401.20178571428573" y="652.0" name="top"/>
  <anchor x="47.20178571428571" y="652.0" name="topleft"/>
  <anchor x="570.3142857142857" y="603.7464285714286" name="topright"/>
  <outline>
    <contour>
      <point x="372.25357142857143" y="-13.0" type="curve" smooth="yes"/>
      <point x="587.6714285714286" y="-13.0"/>
      <point x="703.2625" y="108.09464285714286"/>
      <point x="703.2625" y="353.65714285714284" type="curve" smooth="yes"/>
      <point x="703.2625" y="559.1446428571429"/>
      <point x="593.3053571428571" y="652.0"/>
      <point x="393.3517857142857" y="652.0" type="curve" smooth="yes"/>
      <point x="177.64285714285714" y="652.0"/>
      <point x="62.051785714285714" y="531.6142857142858"/>
      <point x="62.051785714285714" y="286.34285714285716" type="curve" smooth="yes"/>
      <point x="62.051785714285714" y="80.85535714285714"/>
      <point x="172.00892857142858" y="-13.0"/>
    </contour>
    <contour>
      <point x="386.64285714285717" y="36.80714285714286" type="curve" smooth="yes"/>
      <point x="237.83928571428572" y="36.80714285714286"/>
      <point x="171.66071428571428" y="132.08928571428572"/>
      <point x="171.66071428571428" y="289.63392857142856" type="curve" smooth="yes"/>
      <point x="171.66071428571428" y="460.55"/>
      <point x="233.3232142857143" y="604.8125"/>
      <point x="378.6714285714286" y="604.8125" type="curve" smooth="yes"/>
      <point x="527.475" y="604.8125"/>
      <point x="593.6535714285715" y="509.9482142857143"/>
      <point x="593.6535714285715" y="352.98571428571427" type="curve" smooth="yes"/>
      <point x="593.6535714285715" y="180.77857142857144"/>
      <point x="532.2821428571428" y="36.80714285714286"/>
    </contour>
  </outline>
</glyph>
<glyph name="P" format="2">
  <advance width="570.7125"/>
  <unicode hex="0050"/>
  <anchor x="259.3285714285714" y="0.0" name="bottom"/>
  <anchor x="293.3285714285714" y="652.0" name="top"/>
  <outline>
    <contour>
      <point x="175.15892857142856" y="-13.0" type="curve" smooth="yes"/>
      <point x="193.6375" y="-13.0"/>
      <point x="196.21964285714284" y="-8.253571428571428"/>
      <point x="196.21964285714284" y="2.567857142857143" type="curve" smooth="yes"/>
      <point x="196.21964285714284" y="83.9625"/>
      <point x="198.5107142857143" y="168.17857142857142"/>
      <point x="202.21964285714284" y="245.17857142857142" type="curve"/>
      <point x="207.92857142857144" y="238.59642857142856"/>
      <point x="224.7125" y="232.35714285714286"/>
      <point x="256.05535714285713" y="232.35714285714286" type="curve" smooth="yes"/>
      <point x="430.5339285714286" y="232.35714285714286"/>
      <point x="545.2285714285714" y="337.4321428571429"/>
      <point x="545.2285714285714" y="466.79821428571427" type="curve" smooth="yes"/>
      <point x="545.2285714285714" y="573.8357142857143"/>
      <point x="472.68392857142857" y="639.0"/>
      <point x="322.7214285714286" y="639.0" type="curve" smooth="yes"/>
      <point x="119.61071428571428" y="639.0" type="line"/>
      <point x="116.775" y="494.7660714285714"/>
      <point x="87.8125" y="40.84464285714286"/>
      <point x="87.8125" y="27.098214285714285" type="curve" smooth="yes"/>
      <point x="87.8125" y="-0.21607142857142847"/>
      <point x="140.225" y="-13.0"/>
    </contour>
    <contour>
      <point x="203.21964285714284" y="275.54464285714283" type="curve"/>
      <point x="209.6" y="389.79464285714283"/>
      <point x="223.18214285714285" y="545.9625"/>
      <point x="225.6" y="583.4839285714286" type="curve"/>
      <point x="240.27142857142857" y="584.9017857142857"/>
      <point x="254.23392857142858" y="587.7375"/>
      <point x="278.6142857142857" y="587.7375" type="curve" smooth="yes"/>
      <point x="398.65714285714284" y="587.7375"/>
      <point x="436.6196428571429" y="527.0660714285714"/>
      <point x="436.6196428571429" y="451.17857142857144" type="curve" smooth="yes"/>
      <point x="436.6196428571429" y="397.79821428571427"/>
      <point x="416.65714285714284" y="355.0517857142857"/>
      <point x="384.075" y="325.17857142857144" type="curve" smooth="yes"/>
      <point x="326.0982142857143" y="272.3285714285714"/>
      <point x="244.14464285714286" y="269.8732142857143"/>
    </contour>
  </outline>
</glyph>
<glyph name="Q" format="2">
  <advance width="753.075"/>
  <unicode hex="0051"/>
  <outline>
    <contour>
      <point x="682.8035714285714" y="-104.50178571428572" type="curve" smooth="yes"/>
      <point x="717.0285714285715" y="-104.50178571428572"/>
      <point x="747.6571428571428" y="-59.910714285714285"/>
      <point x="747.6571428571428" y="-33.85" type="curve" smooth="yes"/>
      <point x="747.6571428571428" y="-28.8125"/>
      <point x="746.075" y="-25.394642857142856"/>
      <point x="738.7839285714285" y="-24.8125" type="curve" smooth="yes"/>
      <point x="671.9714285714285" y="-22.48392857142857"/>
      <point x="576.9571428571429" y="-1.1553571428571416"/>
      <point x="497.4589285714286" y="13.3" type="curve"/>
      <point x="621.375" y="48.62857142857143"/>
      <point x="703.2625" y="174.44107142857143"/>
      <point x="703.2625" y="353.65714285714284" type="curve" smooth="yes"/>
      <point x="703.2625" y="559.1446428571429"/>
      <point x="593.3053571428571" y="652.0"/>
      <point x="393.3517857142857" y="652.0" type="curve" smooth="yes"/>
      <point x="177.64285714285714" y="652.0"/>
      <point x="62.051785714285714" y="531.6142857142858"/>
      <point x="62.051785714285714" y="286.34285714285716" type="curve" smooth="yes"/>
      <point x="62.051785714285714" y="129.68571428571428"/>
      <point x="129.9625" y="31.582142857142856"/>
      <point x="276.1410714285714" y="-2.8357142857142854" type="curve" smooth="yes"/>
      <point x="365.4375" y="-23.59642857142857"/>
      <point x="558.2071428571428" y="-84.13571428571429"/>
      <point x="633.2214285714285" y="-97.46428571428572" type="curve" smooth="yes"/>
      <point x="657.1839285714286" y="-101.3375"/>
      <point x="670.8928571428571" y="-104.50178571428572"/>
    </contour>
    <contour>
      <point x="386.64285714285717" y="31.567857142857143" type="curve" smooth="yes"/>
      <point x="237.83928571428572" y="31.567857142857143"/>
      <point x="171.66071428571428" y="127.43214285714285"/>
      <point x="171.66071428571428" y="286.7232142857143" type="curve" smooth="yes"/>
      <point x="171.66071428571428" y="458.80357142857144"/>
      <point x="233.3232142857143" y="604.8125"/>
      <point x="378.6714285714286" y="604.8125" type="curve" smooth="yes"/>
      <point x="527.475" y="604.8125"/>
      <point x="593.6535714285715" y="509.36607142857144"/>
      <point x="593.6535714285715" y="350.9482142857143" type="curve" smooth="yes"/>
      <point x="593.6535714285715" y="177.28571428571428"/>
      <point x="532.2821428571428" y="31.567857142857143"/>
    </contour>
  </outline>
</glyph>
<glyph name="R" format="2">
  <advance width="602.9660714285715"/>
  <unicode hex="0052"/>
  <anchor x="297.79285714285714" y="0.0" name="bottom"/>
  <anchor x="331.79285714285714" y="652.0" name="top"/>
  <outline>
    <contour>
      <point x="175.15892857142856" y="-13.0" type="curve" smooth="yes"/>
      <point x="193.6375" y="-13.0"/>
      <point x="196.5107142857143" y="-8.253571428571428"/>
      <point x="196.5107142857143" y="2.567857142857143" type="curve" smooth="yes"/>
      <point x="196.5107142857143" y="105.01428571428572"/>
      <point x="199.8017857142857" y="204.02857142857144"/>
      <point x="205.21964285714284" y="293.61071428571427" type="curve"/>
      <point x="213.09285714285716" y="284.0285714285714"/>
      <point x="234.13035714285715" y="279.4089285714286"/>
      <point x="242.42142857142858" y="277.28214285714284" type="curve"/>
      <point x="295.04107142857146" y="215.74285714285713"/>
      <point x="403.62857142857143" y="95.60178571428571"/>
      <point x="482.9767857142857" y="7.708928571428571" type="curve" smooth="yes"/>
      <point x="494.26785714285717" y="-5.746428571428572"/>
      <point x="504.85" y="-13.0"/>
      <point x="519.2160714285715" y="-13.0" type="curve" smooth="yes"/>
      <point x="546.4035714285715" y="-13.0"/>
      <point x="598.6" y="15.732142857142858"/>
      <point x="598.6" y="29.135714285714286" type="curve" smooth="yes"/>
      <point x="598.6" y="33.88214285714286"/>
      <point x="596.4357142857143" y="38.17321428571429"/>
      <point x="587.3982142857143" y="49.4125" type="curve" smooth="yes"/>
      <point x="567.3232142857142" y="73.76428571428572"/>
      <point x="391.73035714285714" y="265.20178571428573"/>
      <point x="357.1714285714286" y="303.6714285714286" type="curve"/>
      <point x="464.2517857142857" y="317.7839285714286"/>
      <point x="537.7214285714285" y="403.2160714285714"/>
      <point x="537.7214285714285" y="487.2160714285714" type="curve" smooth="yes"/>
      <point x="537.7214285714285" y="575.0232142857143"/>
      <point x="475.22857142857146" y="639.0"/>
      <point x="332.6464285714286" y="639.0" type="curve" smooth="yes"/>
      <point x="121.7375" y="639.0" type="line"/>
      <point x="117.48392857142858" y="499.01964285714286"/>
      <point x="87.8125" y="40.84464285714286"/>
      <point x="87.8125" y="27.098214285714285" type="curve" smooth="yes"/>
      <point x="87.8125" y="-0.21607142857142847"/>
      <point x="140.225" y="-13.0"/>
    </contour>
    <contour>
      <point x="206.92857142857144" y="323.1410714285714" type="curve"/>
      <point x="212.89107142857142" y="436.9732142857143"/>
      <point x="223.89107142857142" y="548.5214285714286"/>
      <point x="227.30892857142857" y="584.1928571428572" type="curve"/>
      <point x="242.14464285714286" y="586.3196428571429"/>
      <point x="255.98035714285714" y="587.7375"/>
      <point x="277.19642857142856" y="587.7375" type="curve" smooth="yes"/>
      <point x="391.2767857142857" y="587.7375"/>
      <point x="429.1125" y="539.7375"/>
      <point x="429.1125" y="471.55892857142857" type="curve" smooth="yes"/>
      <point x="429.1125" y="431.55892857142857"/>
      <point x="413.98571428571427" y="399.9392857142857"/>
      <point x="388.53035714285716" y="375.1928571428571" type="curve" smooth="yes"/>
      <point x="339.47857142857146" y="328.26785714285717"/>
      <point x="258.2857142857143" y="318.17857142857144"/>
    </contour>
  </outline>
</glyph>
<glyph name="S" format="2">
  <advance width="532.8821428571429"/>
  <unicode hex="0053"/>
  <anchor x="243.47857142857143" y="0.0" name="bottom"/>
  <anchor x="299.3285714285714" y="652.0" name="top"/>
  <outline>
    <contour>
      <point x="253.06071428571428" y="-13.0" type="curve" smooth="yes"/>
      <point x="352.2857142857143" y="-13.0"/>
      <point x="460.3232142857143" y="62.20178571428571"/>
      <point x="460.3232142857143" y="182.27678571428572" type="curve" smooth="yes"/>
      <point x="460.3232142857143" y="224.40357142857144"/>
      <point x="445.81607142857143" y="260.8964285714286"/>
      <point x="411.7785714285714" y="294.8071428571429" type="curve" smooth="yes"/>
      <point x="371.91964285714283" y="334.83035714285717"/>
      <point x="276.74107142857144" y="388.0982142857143"/>
      <point x="241.5767857142857" y="422.38928571428573" type="curve" smooth="yes"/>
      <point x="216.10714285714286" y="447.5678571428571"/>
      <point x="204.01785714285714" y="472.58214285714286"/>
      <point x="204.01785714285714" y="503.8875" type="curve" smooth="yes"/>
      <point x="204.01785714285714" y="567.7892857142857"/>
      <point x="251.86785714285713" y="587.6767857142858"/>
      <point x="286.12142857142857" y="587.6767857142858" type="curve" smooth="yes"/>
      <point x="354.88214285714287" y="587.6767857142858"/>
      <point x="395.4642857142857" y="554.4982142857143"/>
      <point x="421.2107142857143" y="533.1178571428571" type="curve" smooth="yes"/>
      <point x="433.2107142857143" y="522.8642857142858"/>
      <point x="441.66607142857146" y="515.6107142857143"/>
      <point x="448.83035714285717" y="515.6107142857143" type="curve" smooth="yes"/>
      <point x="460.2857142857143" y="515.6107142857143"/>
      <point x="466.45" y="534.3946428571429"/>
      <point x="466.45" y="565.8875" type="curve" smooth="yes"/>
      <point x="466.45" y="577.4178571428571"/>
      <point x="463.86785714285713" y="588.4553571428571"/>
      <point x="452.62857142857143" y="597.3660714285714" type="curve" smooth="yes"/>
      <point x="411.0982142857143" y="635.7839285714285"/>
      <point x="346.8589285714286" y="652.0"/>
      <point x="292.075" y="652.0" type="curve" smooth="yes"/>
      <point x="163.0" y="652.0"/>
      <point x="100.48392857142858" y="566.3803571428572"/>
      <point x="100.48392857142858" y="472.44642857142856" type="curve" smooth="yes"/>
      <point x="100.48392857142858" y="421.775"/>
      <point x="119.99107142857143" y="380.99107142857144"/>
      <point x="158.10357142857143" y="345.4607142857143" type="curve" smooth="yes"/>
      <point x="204.8125" y="302.04285714285714"/>
      <point x="287.82678571428573" y="258.31964285714287"/>
      <point x="323.28214285714284" y="220.7375" type="curve" smooth="yes"/>
      <point x="344.9535714285714" y="197.6482142857143"/>
      <point x="357.7517857142857" y="173.59642857142856"/>
      <point x="357.7517857142857" y="142.45535714285714" type="curve" smooth="yes"/>
      <point x="357.7517857142857" y="79.3375"/>
      <point x="297.01428571428573" y="53.158928571428575"/>
      <point x="257.30535714285713" y="53.158928571428575" type="curve" smooth="yes"/>
      <point x="193.70892857142857" y="53.158928571428575"/>
      <point x="143.1642857142857" y="82.50178571428572"/>
      <point x="114.61964285714286" y="104.13571428571429" type="curve" smooth="yes"/>
      <point x="95.74642857142857" y="118.09821428571429"/>
      <point x="85.41785714285714" y="128.06071428571428"/>
      <point x="79.67142857142858" y="128.06071428571428" type="curve" smooth="yes"/>
      <point x="67.21607142857142" y="128.06071428571428"/>
      <point x="61.46964285714286" y="91.55357142857143"/>
      <point x="61.46964285714286" y="73.53035714285714" type="curve" smooth="yes"/>
      <point x="61.46964285714286" y="61.544642857142854"/>
      <point x="63.63392857142857" y="48.79821428571429"/>
      <point x="79.36607142857143" y="38.59642857142857" type="curve" smooth="yes"/>
      <point x="115.89642857142857" y="10.342857142857142"/>
      <point x="169.1875" y="-13.0"/>
    </contour>
  </outline>
</glyph>
<glyph name="T" format="2">
  <advance width="531.075"/>
  <unicode hex="0054"/>
  <anchor x="253.49285714285713" y="0.0" name="bottom"/>
  <anchor x="287.3803571428571" y="326.0" name="center"/>
  <anchor x="291.65714285714284" y="652.0" name="top"/>
  <outline>
    <contour>
      <point x="290.17321428571427" y="-13.0" type="curve" smooth="yes"/>
      <point x="309.36071428571427" y="-13.0"/>
      <point x="312.2339285714286" y="-8.253571428571428"/>
      <point x="312.2339285714286" y="2.567857142857143" type="curve" smooth="yes"/>
      <point x="312.2339285714286" y="232.85535714285714"/>
      <point x="331.90535714285716" y="481.1089285714286"/>
      <point x="339.6142857142857" y="572.1321428571429" type="curve"/>
      <point x="344.74107142857144" y="572.1321428571429" type="line"/>
      <point x="442.1035714285714" y="572.1321428571429"/>
      <point x="518.9482142857142" y="563.8410714285715"/>
      <point x="528.6571428571428" y="563.8410714285715" type="curve" smooth="yes"/>
      <point x="538.6571428571428" y="563.8410714285715"/>
      <point x="543.9482142857142" y="596.2303571428571"/>
      <point x="543.9482142857142" y="620.9767857142857" type="curve" smooth="yes"/>
      <point x="543.9482142857142" y="633.925"/>
      <point x="541.3660714285714" y="639.0"/>
      <point x="533.1642857142857" y="639.0" type="curve" smooth="yes"/>
      <point x="50.746428571428574" y="639.0" type="line" smooth="yes"/>
      <point x="39.582142857142856" y="639.0"/>
      <point x="32.253571428571426" y="615.0517857142858"/>
      <point x="32.253571428571426" y="583.3196428571429" type="curve" smooth="yes"/>
      <point x="32.253571428571426" y="571.3714285714286"/>
      <point x="35.544642857142854" y="563.8410714285715"/>
      <point x="41.417857142857144" y="563.8410714285715" type="curve" smooth="yes"/>
      <point x="51.83571428571429" y="563.8410714285715"/>
      <point x="117.38928571428572" y="572.1321428571429"/>
      <point x="227.20714285714286" y="572.1321428571429" type="curve"/>
      <point x="232.625" y="572.1321428571429" type="line"/>
      <point x="227.625" y="348.9767857142857"/>
      <point x="203.53571428571428" y="38.55357142857143"/>
      <point x="203.53571428571428" y="27.098214285714285" type="curve" smooth="yes"/>
      <point x="203.53571428571428" y="-0.21607142857142847"/>
      <point x="255.9482142857143" y="-13.0"/>
    </contour>
  </outline>
</glyph>
<glyph name="U" format="2">
  <advance width="705.6714285714286"/>
  <unicode hex="0055"/>
  <anchor x="355.5678571428571" y="0.0" name="bottom"/>
  <anchor x="452.52857142857147" y="2.910714285714286" name="ogonek"/>
  <anchor x="390.98571428571427" y="652.0" name="top"/>
  <anchor x="642.4035714285715" y="608.0" name="topright"/>
  <outline>
    <contour>
      <point x="342.3285714285714" y="-13.0" type="curve" smooth="yes"/>
      <point x="430.3142857142857" y="-13.0"/>
      <point x="496.38928571428573" y="8.0375"/>
      <point x="544.7178571428572" y="52.65714285714286" type="curve" smooth="yes"/>
      <point x="640.0089285714286" y="140.82142857142858"/>
      <point x="669.0089285714286" y="319.9107142857143"/>
      <point x="669.0089285714286" y="612.6107142857143" type="curve" smooth="yes"/>
      <point x="669.0089285714286" y="639.925"/>
      <point x="634.2017857142857" y="652.0"/>
      <point x="607.9625" y="652.0" type="curve" smooth="yes"/>
      <point x="593.7232142857143" y="652.0"/>
      <point x="592.1410714285714" y="647.9625"/>
      <point x="592.1410714285714" y="637.1410714285714" type="curve" smooth="yes"/>
      <point x="592.1410714285714" y="307.55357142857144"/>
      <point x="561.4696428571428" y="160.59107142857144"/>
      <point x="502.45535714285717" y="98.21071428571429" type="curve" smooth="yes"/>
      <point x="471.2392857142857" y="65.66607142857143"/>
      <point x="420.225" y="47.957142857142856"/>
      <point x="376.7553571428571" y="47.957142857142856" type="curve" smooth="yes"/>
      <point x="323.03214285714284" y="47.957142857142856"/>
      <point x="274.14464285714286" y="62.375"/>
      <point x="242.21964285714284" y="99.21071428571429" type="curve" smooth="yes"/>
      <point x="204.16785714285714" y="142.75535714285715"/>
      <point x="190.7875" y="227.1357142857143"/>
      <point x="190.7875" y="318.64285714285717" type="curve" smooth="yes"/>
      <point x="190.7875" y="413.6196428571429"/>
      <point x="207.9142857142857" y="583.1785714285714"/>
      <point x="207.9142857142857" y="612.6107142857143" type="curve" smooth="yes"/>
      <point x="207.9142857142857" y="639.925"/>
      <point x="155.50178571428572" y="652.0"/>
      <point x="120.56785714285715" y="652.0" type="curve" smooth="yes"/>
      <point x="101.38035714285714" y="652.0"/>
      <point x="100.08928571428571" y="647.9625"/>
      <point x="99.21607142857142" y="637.1410714285714" type="curve" smooth="yes"/>
      <point x="98.925" y="627.1410714285714"/>
      <point x="83.21607142857142" y="453.3803571428571"/>
      <point x="82.63392857142857" y="298.0" type="curve" smooth="yes"/>
      <point x="82.34285714285714" y="195.0"/>
      <point x="96.05178571428571" y="104.29107142857143"/>
      <point x="147.50714285714287" y="53.582142857142856" type="curve" smooth="yes"/>
      <point x="191.25357142857143" y="10.582142857142857"/>
      <point x="266.70892857142854" y="-13.0"/>
    </contour>
  </outline>
</glyph>
<glyph name="V" format="2">
  <advance width="620.3285714285714"/>
  <unicode hex="0056"/>
  <anchor x="286.4035714285714" y="0.0" name="bottom"/>
  <anchor x="347.47857142857146" y="652.0" name="top"/>
  <outline>
    <contour>
      <point x="308.88214285714287" y="-13.0" type="curve" smooth="yes"/>
      <point x="324.74107142857144" y="-13.0"/>
      <point x="328.7785714285714" y="-9.544642857142858"/>
      <point x="332.6517857142857" y="-1.9249999999999998" type="curve" smooth="yes"/>
      <point x="381.00892857142856" y="93.02857142857142"/>
      <point x="569.6107142857143" y="490.7625"/>
      <point x="615.2767857142857" y="591.7517857142857" type="curve" smooth="yes"/>
      <point x="619.0232142857143" y="599.5357142857143"/>
      <point x="622.6053571428571" y="607.2821428571428"/>
      <point x="622.6053571428571" y="612.3196428571429" type="curve" smooth="yes"/>
      <point x="622.6053571428571" y="637.7982142857143"/>
      <point x="591.1642857142857" y="652.0"/>
      <point x="566.9625" y="652.0" type="curve" smooth="yes"/>
      <point x="559.925" y="652.0"/>
      <point x="556.0517857142858" y="650.4178571428571"/>
      <point x="553.7607142857142" y="643.1267857142857" type="curve" smooth="yes"/>
      <point x="520.1410714285714" y="543.3428571428572"/>
      <point x="346.95714285714286" y="163.49642857142857"/>
      <point x="308.62857142857143" y="99.21964285714286" type="curve"/>
      <point x="275.74107142857144" y="179.23392857142858"/>
      <point x="166.81071428571428" y="579.0285714285715"/>
      <point x="157.43035714285713" y="613.7375" type="curve" smooth="yes"/>
      <point x="154.13928571428573" y="633.5071428571429"/>
      <point x="112.94285714285715" y="652.0"/>
      <point x="59.68035714285715" y="652.0" type="curve" smooth="yes"/>
      <point x="41.53035714285714" y="652.0"/>
      <point x="36.455357142857146" y="648.8357142857143"/>
      <point x="36.455357142857146" y="641.2160714285715" type="curve" smooth="yes"/>
      <point x="36.455357142857146" y="636.6339285714286"/>
      <point x="38.0375" y="632.8875"/>
      <point x="41.0375" y="623.3053571428571" type="curve" smooth="yes"/>
      <point x="61.051785714285714" y="554.8821428571429"/>
      <point x="194.5125" y="123.28035714285716"/>
      <point x="221.13214285714287" y="23.464285714285715" type="curve" smooth="yes"/>
      <point x="226.16964285714286" y="2.2392857142857148"/>
      <point x="265.3803571428571" y="-13.0"/>
    </contour>
  </outline>
</glyph>
<glyph name="W" format="2">
  <advance width="975.1732142857143"/>
  <unicode hex="0057"/>
  <anchor x="480.2767857142857" y="0.0" name="bottom"/>
  <anchor x="528.8303571428571" y="652.0" name="top"/>
  <outline>
    <contour>
      <point x="231.10714285714286" y="-13.0" type="curve" smooth="yes"/>
      <point x="246.09285714285716" y="-13.0"/>
      <point x="250.25714285714287" y="-11.126785714285715"/>
      <point x="255.13035714285715" y="0.3660714285714288" type="curve" smooth="yes"/>
      <point x="266.75" y="28.55357142857143"/>
      <point x="416.6517857142857" y="338.6714285714286"/>
      <point x="494.0982142857143" y="512.7428571428571" type="curve"/>
      <point x="534.4035714285715" y="395.55"/>
      <point x="660.4232142857143" y="70.08392857142857"/>
      <point x="672.0053571428572" y="24.97142857142857" type="curve" smooth="yes"/>
      <point x="677.7517857142857" y="1.2392857142857148"/>
      <point x="724.4178571428571" y="-13.0"/>
      <point x="766.9339285714286" y="-13.0" type="curve" smooth="yes"/>
      <point x="783.3375" y="-13.0"/>
      <point x="794.4875" y="-9.417857142857143"/>
      <point x="796.6517857142857" y="6.492857142857143" type="curve" smooth="yes"/>
      <point x="808.9285714285714" y="79.68928571428572"/>
      <point x="960.3607142857143" y="591.8410714285715"/>
      <point x="960.3607142857143" y="612.6107142857143" type="curve" smooth="yes"/>
      <point x="960.3607142857143" y="639.925"/>
      <point x="925.5017857142857" y="652.0"/>
      <point x="901.7178571428572" y="652.0" type="curve" smooth="yes"/>
      <point x="892.2625" y="652.0"/>
      <point x="889.6428571428571" y="650.0"/>
      <point x="889.0607142857143" y="639.4696428571428" type="curve" smooth="yes"/>
      <point x="887.6053571428571" y="584.0142857142857"/>
      <point x="793.3142857142857" y="248.87321428571428"/>
      <point x="754.3375" y="105.09285714285716" type="curve"/>
      <point x="705.1071428571429" y="219.61428571428573"/>
      <point x="608.4071428571428" y="509.7839285714286"/>
      <point x="566.9232142857143" y="621.0285714285715" type="curve" smooth="yes"/>
      <point x="562.3410714285715" y="638.7607142857142"/>
      <point x="528.3839285714286" y="652.0"/>
      <point x="496.2107142857143" y="652.0" type="curve" smooth="yes"/>
      <point x="483.64285714285717" y="652.0"/>
      <point x="478.47857142857146" y="647.8732142857143"/>
      <point x="475.44107142857143" y="639.0517857142858" type="curve" smooth="yes"/>
      <point x="420.95714285714286" y="499.2857142857143"/>
      <point x="310.4035714285714" y="244.35714285714286"/>
      <point x="235.3464285714286" y="105.38392857142858" type="curve"/>
      <point x="206.6375" y="254.35535714285714"/>
      <point x="167.36964285714285" y="589.8785714285714"/>
      <point x="166.7875" y="610.5732142857142" type="curve" smooth="yes"/>
      <point x="165.9142857142857" y="637.3053571428571"/>
      <point x="111.21071428571429" y="652.0"/>
      <point x="78.40357142857142" y="652.0" type="curve" smooth="yes"/>
      <point x="62.70892857142857" y="652.0"/>
      <point x="54.17857142857143" y="649.4178571428571"/>
      <point x="54.17857142857143" y="639.3803571428572" type="curve" smooth="yes"/>
      <point x="54.17857142857143" y="635.0892857142857"/>
      <point x="55.051785714285714" y="626.0517857142858"/>
      <point x="56.34285714285714" y="616.8875" type="curve" smooth="yes"/>
      <point x="65.17857142857143" y="540.4785714285714"/>
      <point x="121.67142857142858" y="182.93035714285713"/>
      <point x="139.43214285714285" y="27.807142857142857" type="curve" smooth="yes"/>
      <point x="142.0142857142857" y="-0.9249999999999998"/>
      <point x="194.09821428571428" y="-13.0"/>
    </contour>
  </outline>
</glyph>
<glyph name="X" format="2">
  <advance width="596.5446428571429"/>
  <unicode hex="0058"/>
  <anchor x="274.11785714285713" y="0.0" name="bottom"/>
  <anchor x="348.9714285714286" y="645.2910714285714" name="top"/>
  <outline>
    <contour>
      <point x="59.31428571428572" y="-13.0" type="curve" smooth="yes"/>
      <point x="63.605357142857144" y="-13.0"/>
      <point x="66.76964285714286" y="-11.544642857142858"/>
      <point x="78.51607142857142" y="5.075" type="curve" smooth="yes"/>
      <point x="128.74642857142857" y="75.23035714285714"/>
      <point x="205.53035714285716" y="171.67142857142858"/>
      <point x="285.7375" y="269.63928571428573" type="curve"/>
      <point x="334.8642857142857" y="188.4892857142857"/>
      <point x="437.5410714285714" y="24.507142857142856"/>
      <point x="455.0107142857143" y="2.3285714285714287" type="curve" smooth="yes"/>
      <point x="463.0107142857143" y="-9.126785714285715"/>
      <point x="469.95892857142854" y="-13.0"/>
      <point x="481.325" y="-13.0" type="curve" smooth="yes"/>
      <point x="502.3482142857143" y="-13.0"/>
      <point x="533.1178571428571" y="-0.7982142857142853"/>
      <point x="552.1035714285714" y="12.1125" type="curve" smooth="yes"/>
      <point x="562.925" y="19.02321428571429"/>
      <point x="566.2535714285714" y="23.478571428571428"/>
      <point x="566.2535714285714" y="27.389285714285716" type="curve" smooth="yes"/>
      <point x="566.2535714285714" y="29.84464285714286"/>
      <point x="562.2535714285714" y="35.84464285714286"/>
      <point x="556.1267857142857" y="45.2625" type="curve" smooth="yes"/>
      <point x="523.2535714285714" y="95.66607142857143"/>
      <point x="442.225" y="212.225"/>
      <point x="369.86785714285713" y="331.58214285714286" type="curve"/>
      <point x="437.10714285714283" y="413.36607142857144"/>
      <point x="489.7785714285714" y="479.63392857142856"/>
      <point x="542.0982142857143" y="557.2071428571428" type="curve" smooth="yes"/>
      <point x="547.3892857142857" y="566.6625"/>
      <point x="549.6803571428571" y="573.9910714285714"/>
      <point x="549.6803571428571" y="583.1553571428572" type="curve" smooth="yes"/>
      <point x="549.6803571428571" y="613.85"/>
      <point x="527.075" y="652.0"/>
      <point x="514.6571428571428" y="652.0" type="curve" smooth="yes"/>
      <point x="511.075" y="652.0"/>
      <point x="508.6196428571429" y="649.1267857142857"/>
      <point x="501.8357142857143" y="638.1785714285714" type="curve" smooth="yes"/>
      <point x="479.25357142857143" y="591.4178571428571"/>
      <point x="398.8357142857143" y="469.65714285714284"/>
      <point x="335.64285714285717" y="388.7035714285714" type="curve"/>
      <point x="268.66607142857146" y="493.2107142857143"/>
      <point x="210.10714285714286" y="593.225"/>
      <point x="180.5857142857143" y="640.6339285714286" type="curve" smooth="yes"/>
      <point x="175.13035714285715" y="649.5446428571429"/>
      <point x="166.05535714285713" y="652.0"/>
      <point x="152.98035714285714" y="652.0" type="curve" smooth="yes"/>
      <point x="123.83035714285714" y="652.0"/>
      <point x="70.76071428571429" y="629.0142857142857"/>
      <point x="70.76071428571429" y="613.7375" type="curve" smooth="yes"/>
      <point x="70.76071428571429" y="609.8642857142858"/>
      <point x="72.34285714285714" y="606.4089285714285"/>
      <point x="77.76071428571429" y="597.7" type="curve" smooth="yes"/>
      <point x="102.83571428571429" y="557.0946428571428"/>
      <point x="165.9767857142857" y="465.3482142857143"/>
      <point x="251.09464285714284" y="327.5964285714286" type="curve"/>
      <point x="174.18392857142857" y="235.43214285714285"/>
      <point x="105.16964285714286" y="158.78392857142856"/>
      <point x="33.70892857142857" y="73.24821428571428" type="curve" smooth="yes"/>
      <point x="28.0" y="65.79285714285714"/>
      <point x="25.708928571428572" y="60.17321428571429"/>
      <point x="25.708928571428572" y="53.426785714285714" type="curve" smooth="yes"/>
      <point x="25.708928571428572" y="24.65714285714286"/>
      <point x="46.933928571428574" y="-13.0"/>
    </contour>
  </outline>
</glyph>
<glyph name="Y" format="2">
  <advance width="558.4321428571428"/>
  <unicode hex="0059"/>
  <anchor x="271.4321428571429" y="0.0" name="bottom"/>
  <anchor x="311.25357142857143" y="642.0" name="top"/>
  <anchor x="87.43214285714285" y="652.0" name="topleft"/>
  <outline>
    <contour>
      <point x="306.2392857142857" y="-13.0" type="curve" smooth="yes"/>
      <point x="325.4267857142857" y="-13.0"/>
      <point x="327.5910714285714" y="-8.253571428571428"/>
      <point x="327.5910714285714" y="2.567857142857143" type="curve" smooth="yes"/>
      <point x="329.71785714285716" y="83.83571428571429"/>
      <point x="332.71785714285716" y="166.72321428571428"/>
      <point x="335.71785714285716" y="254.68571428571428" type="curve"/>
      <point x="382.8589285714286" y="337.96785714285716"/>
      <point x="494.2767857142857" y="508.2964285714286"/>
      <point x="523.9107142857143" y="558.8553571428571" type="curve" smooth="yes"/>
      <point x="533.9482142857142" y="575.475"/>
      <point x="537.4035714285715" y="588.1696428571429"/>
      <point x="537.4035714285715" y="597.9910714285714" type="curve" smooth="yes"/>
      <point x="537.4035714285715" y="621.3428571428572"/>
      <point x="516.5071428571429" y="652.0"/>
      <point x="502.2160714285714" y="652.0" type="curve" smooth="yes"/>
      <point x="496.46964285714284" y="652.0"/>
      <point x="492.8875" y="647.6714285714286"/>
      <point x="487.1035714285714" y="636.6857142857143" type="curve" smooth="yes"/>
      <point x="470.9017857142857" y="605.5732142857142"/>
      <point x="367.075" y="426.44107142857143"/>
      <point x="310.60535714285714" y="337.7553571428571" type="curve"/>
      <point x="280.68035714285713" y="397.79285714285714"/>
      <point x="231.06964285714287" y="505.45535714285717"/>
      <point x="169.8625" y="614.2821428571428" type="curve" smooth="yes"/>
      <point x="157.44464285714287" y="645.7607142857142"/>
      <point x="98.99464285714286" y="652.0"/>
      <point x="66.36607142857143" y="652.0" type="curve" smooth="yes"/>
      <point x="42.760714285714286" y="652.0"/>
      <point x="37.43214285714286" y="647.3803571428572"/>
      <point x="37.43214285714286" y="638.0517857142858" type="curve" smooth="yes"/>
      <point x="37.43214285714286" y="633.3428571428572"/>
      <point x="43.394642857142856" y="623.6714285714286"/>
      <point x="47.52142857142857" y="616.5446428571429" type="curve" smooth="yes"/>
      <point x="72.925" y="572.5357142857143"/>
      <point x="140.925" y="453.6821428571429"/>
      <point x="234.85535714285714" y="270.925" type="curve"/>
      <point x="228.14642857142857" y="177.8125"/>
      <point x="218.89285714285714" y="37.51607142857143"/>
      <point x="218.89285714285714" y="27.098214285714285" type="curve" smooth="yes"/>
      <point x="218.89285714285714" y="-0.21607142857142847"/>
      <point x="271.30535714285713" y="-13.0"/>
    </contour>
  </outline>
</glyph>
<glyph name="Z" format="2">
  <advance width="550.6428571428571"/>
  <unicode hex="005A"/>
  <anchor x="288.41785714285714" y="0.0" name="bottom"/>
  <anchor x="266.6857142857143" y="326.0" name="center"/>
  <anchor x="309.50714285714287" y="652.0" name="top"/>
  <outline>
    <contour>
      <point x="185.86964285714288" y="185.99464285714288" type="curve" smooth="yes"/>
      <point x="371.0642857142857" y="185.99464285714288" type="line" smooth="yes"/>
      <point x="371.24285714285713" y="185.99464285714288"/>
      <point x="373.21964285714284" y="197.35178571428574"/>
      <point x="373.21964285714284" y="193.775" type="curve" smooth="yes"/>
      <point x="373.21964285714284" y="190.09464285714287"/>
      <point x="372.38392857142856" y="190.52678571428572"/>
      <point x="370.8767857142857" y="190.52678571428572" type="curve" smooth="yes"/>
      <point x="368.24285714285713" y="190.52678571428572"/>
      <point x="375.7160714285714" y="183.67678571428573"/>
      <point x="211.23928571428573" y="183.67678571428573" type="curve" smooth="yes"/>
      <point x="168.46785714285716" y="183.67678571428573" type="line"/>
      <point x="169.5339285714286" y="189.88392857142858"/>
      <point x="352.69821428571424" y="443.0125"/>
      <point x="361.05535714285713" y="452.8392857142857" type="curve" smooth="yes"/>
      <point x="364.6892857142857" y="456.4357142857143"/>
      <point x="365.3982142857143" y="461.19642857142856"/>
      <point x="365.3982142857143" y="462.6660714285714" type="curve" smooth="yes"/>
      <point x="365.3982142857143" y="466.4785714285714"/>
      <point x="368.6232142857143" y="453.0053571428571"/>
      <point x="371.2660714285714" y="453.0053571428571" type="curve" smooth="yes"/>
      <point x="226.30178571428573" y="453.0053571428571" type="line" smooth="yes"/>
      <point x="223.99642857142857" y="453.0053571428571"/>
      <point x="223.4375" y="442.5214285714286"/>
      <point x="223.4375" y="442.3517857142857" type="curve" smooth="yes"/>
      <point x="223.4375" y="447.48749999999995"/>
      <point x="223.56428571428572" y="448.4732142857143"/>
      <point x="225.07142857142858" y="448.4732142857143" type="curve" smooth="yes"/>
      <point x="231.9589285714286" y="448.4732142857143"/>
      <point x="214.5607142857143" y="456.03214285714284"/>
      <point x="351.38928571428573" y="456.03214285714284" type="curve" smooth="yes"/>
      <point x="388.50357142857143" y="456.03214285714284" type="line"/>
      <point x="346.16964285714283" y="382.4535714285714"/>
      <point x="254.77142857142857" y="260.7910714285714"/>
      <point x="195.7892857142857" y="184.0339285714286" type="curve" smooth="yes"/>
      <point x="192.44642857142858" y="180.4375"/>
      <point x="192.44642857142858" y="179.93035714285716"/>
      <point x="192.44642857142858" y="179.16964285714286" type="curve" smooth="yes"/>
      <point x="192.44642857142858" y="175.35714285714286"/>
      <point x="188.51250000000002" y="185.99464285714288"/>
    </contour>
  </outline>
</glyph>
<glyph name="bracketleft" format="2">
  <advance width="336.90535714285716"/>
  <unicode hex="005B"/>
  <outline>
    <contour>
      <point x="77.01428571428572" y="-244.0" type="curve"/>
      <point x="278.4642857142857" y="-244.0" type="line" smooth="yes"/>
      <point x="295.62857142857143" y="-244.0"/>
      <point x="301.0464285714286" y="-219.26785714285714"/>
      <point x="301.0464285714286" y="-199.17857142857142" type="curve" smooth="yes"/>
      <point x="301.0464285714286" y="-189.68571428571428"/>
      <point x="300.3375" y="-186.10357142857143"/>
      <point x="295.3375" y="-186.10357142857143" type="curve" smooth="yes"/>
      <point x="290.7553571428571" y="-186.10357142857143"/>
      <point x="266.68035714285713" y="-191.26785714285714"/>
      <point x="174.6375" y="-193.39464285714286" type="curve"/>
      <point x="174.92857142857144" y="153.15178571428572"/>
      <point x="216.21964285714284" y="644.9107142857143"/>
      <point x="221.05535714285713" y="705.4321428571428" type="curve"/>
      <point x="296.88214285714287" y="704.7232142857143"/>
      <point x="328.88214285714287" y="701.0142857142857"/>
      <point x="333.7553571428571" y="701.0142857142857" type="curve" smooth="yes"/>
      <point x="339.3375" y="701.0142857142857"/>
      <point x="344.7553571428571" y="722.925"/>
      <point x="344.7553571428571" y="739.3803571428572" type="curve" smooth="yes"/>
      <point x="344.7553571428571" y="752.8357142857143"/>
      <point x="342.4642857142857" y="756.0"/>
      <point x="334.3" y="756.0" type="curve" smooth="yes"/>
      <point x="127.01428571428572" y="756.0" type="line"/>
      <point x="120.01428571428572" y="550.0"/>
      <point x="77.01428571428572" y="-189.0"/>
    </contour>
  </outline>
</glyph>
<glyph name="backslash" format="2">
  <advance width="509.5357142857143"/>
  <unicode hex="005C"/>
  <outline>
    <contour>
      <point x="377.1607142857143" y="-34.29107142857143" type="curve" smooth="yes"/>
      <point x="397.2732142857143" y="-34.29107142857143"/>
      <point x="443.01428571428573" y="-18.178571428571427"/>
      <point x="443.01428571428573" y="-1.4839285714285708" type="curve" smooth="yes"/>
      <point x="443.01428571428573" y="3.553571428571429"/>
      <point x="438.39464285714286" y="16.4125"/>
      <point x="435.23035714285714" y="25.196428571428573" type="curve" smooth="yes"/>
      <point x="360.71785714285716" y="189.475"/>
      <point x="254.3517857142857" y="471.6375"/>
      <point x="176.09285714285716" y="647.2678571428571" type="curve" smooth="yes"/>
      <point x="167.6375" y="671.5821428571429"/>
      <point x="157.68928571428572" y="675.0"/>
      <point x="142.3232142857143" y="675.0" type="curve" smooth="yes"/>
      <point x="112.55357142857143" y="675.0"/>
      <point x="76.46964285714286" y="658.0142857142857"/>
      <point x="76.46964285714286" y="641.9017857142857" type="curve" smooth="yes"/>
      <point x="76.46964285714286" y="637.1553571428572"/>
      <point x="81.08928571428571" y="624.2964285714286"/>
      <point x="84.25357142857143" y="615.5125" type="curve" smooth="yes"/>
      <point x="116.23035714285714" y="545.5214285714286"/>
      <point x="297.69107142857143" y="108.4375"/>
      <point x="343.3910714285714" y="-6.55892857142857" type="curve" smooth="yes"/>
      <point x="351.71964285714284" y="-30.582142857142856"/>
      <point x="361.79464285714283" y="-34.29107142857143"/>
    </contour>
  </outline>
</glyph>
<glyph name="bracketright" format="2">
  <advance width="356.90535714285716"/>
  <unicode hex="005D"/>
  <outline>
    <contour>
      <point x="8.426785714285716" y="-244.0" type="curve" smooth="yes"/>
      <point x="216.42142857142858" y="-244.0" type="line"/>
      <point x="222.00357142857143" y="-48.63392857142857"/>
      <point x="266.4214285714286" y="733.6107142857143"/>
      <point x="266.4214285714286" y="756.0" type="curve"/>
      <point x="65.68035714285715" y="756.0" type="line" smooth="yes"/>
      <point x="47.80714285714286" y="756.0"/>
      <point x="42.38928571428572" y="731.2678571428571"/>
      <point x="42.38928571428572" y="711.1785714285714" type="curve" smooth="yes"/>
      <point x="42.38928571428572" y="701.6857142857143"/>
      <point x="43.098214285714285" y="698.1035714285714"/>
      <point x="48.098214285714285" y="698.1035714285714" type="curve" smooth="yes"/>
      <point x="52.68035714285715" y="698.1035714285714"/>
      <point x="76.75535714285715" y="703.2678571428571"/>
      <point x="169.50714285714287" y="704.6857142857143" type="curve"/>
      <point x="167.08928571428572" y="348.2142857142857"/>
      <point x="125.08928571428571" y="-143.54464285714286"/>
      <point x="121.67142857142858" y="-194.14107142857142" type="curve"/>
      <point x="45.84464285714286" y="-192.72321428571428"/>
      <point x="14.553571428571429" y="-189.0142857142857"/>
      <point x="9.680357142857144" y="-189.0142857142857" type="curve" smooth="yes"/>
      <point x="4.0982142857142865" y="-189.0142857142857"/>
      <point x="-1.3196428571428562" y="-210.925"/>
      <point x="-1.3196428571428562" y="-227.38035714285715" type="curve" smooth="yes"/>
      <point x="-1.3196428571428562" y="-240.8357142857143"/>
      <point x="0.9714285714285715" y="-244.0"/>
    </contour>
  </outline>
</glyph>
<glyph name="asciicircum" format="2">
  <advance width="537.0892857142857"/>
  <unicode hex="005E"/>
  <outline>
    <contour>
      <point x="108.60535714285714" y="377.3803571428571" type="curve"/>
      <point x="127.35178571428571" y="400.79821428571427"/>
      <point x="235.91071428571428" y="501.37142857142857"/>
      <point x="301.79821428571427" y="552.5125" type="curve"/>
      <point x="344.63392857142856" y="504.33392857142854"/>
      <point x="424.1410714285714" y="398.925"/>
      <point x="436.5964285714286" y="377.3803571428571" type="curve"/>
      <point x="449.7839285714286" y="388.69464285714287"/>
      <point x="468.70892857142854" y="408.47857142857146"/>
      <point x="468.70892857142854" y="422.93392857142857" type="curve" smooth="yes"/>
      <point x="468.70892857142854" y="433.5160714285714"/>
      <point x="464.1642857142857" y="448.47857142857146"/>
      <point x="459.1642857142857" y="457.64285714285717" type="curve" smooth="yes"/>
      <point x="436.98571428571427" y="495.65714285714284"/>
      <point x="369.1875" y="594.3803571428572"/>
      <point x="329.4035714285714" y="641.2160714285715" type="curve" smooth="yes"/>
      <point x="320.9107142857143" y="650.1267857142857"/>
      <point x="314.6196428571429" y="652.0"/>
      <point x="307.41785714285714" y="652.0" type="curve" smooth="yes"/>
      <point x="299.63392857142856" y="652.0"/>
      <point x="293.7607142857143" y="649.8357142857143"/>
      <point x="283.6857142857143" y="641.2160714285715" type="curve" smooth="yes"/>
      <point x="251.49821428571428" y="615.8125"/>
      <point x="108.27678571428571" y="477.4267857142857"/>
      <point x="92.40357142857142" y="452.4267857142857" type="curve" smooth="yes"/>
      <point x="85.78392857142858" y="442.225"/>
      <point x="84.075" y="434.0607142857143"/>
      <point x="84.075" y="424.8589285714286" type="curve" smooth="yes"/>
      <point x="84.075" y="407.73214285714283"/>
      <point x="96.74642857142857" y="390.1125"/>
    </contour>
  </outline>
</glyph>
<glyph name="underscore" format="2">
  <advance width="500.0"/>
  <unicode hex="005F"/>
  <outline>
    <contour>
      <point x="-15.342857142857142" y="-140.0" type="curve" smooth="yes"/>
      <point x="498.65714285714284" y="-140.0" type="line" smooth="yes"/>
      <point x="515.6571428571428" y="-140.0"/>
      <point x="521.6571428571428" y="-119.0"/>
      <point x="521.6571428571428" y="-101.0" type="curve" smooth="yes"/>
      <point x="521.6571428571428" y="-95.0"/>
      <point x="518.6571428571428" y="-93.0"/>
      <point x="513.6571428571428" y="-93.0" type="curve" smooth="yes"/>
      <point x="-0.3428571428571425" y="-93.0" type="line" smooth="yes"/>
      <point x="-17.34285714285714" y="-93.0"/>
      <point x="-23.34285714285714" y="-115.0"/>
      <point x="-23.34285714285714" y="-133.0" type="curve" smooth="yes"/>
      <point x="-23.34285714285714" y="-139.0"/>
      <point x="-20.34285714285714" y="-140.0"/>
    </contour>
  </outline>
</glyph>
<glyph name="b" format="2">
  <advance width="602.9571428571429"/>
  <unicode hex="0062"/>
  <anchor x="306.2392857142857" y="0.0" name="bottom"/>
  <anchor x="209.45535714285714" y="639.0" name="cross"/>
  <anchor x="433.84464285714284" y="524.0" name="top"/>
  <outline>
    <contour>
      <point x="324.17321428571427" y="-13.0" type="curve" smooth="yes"/>
      <point x="400.4875" y="-13.0"/>
      <point x="458.45" y="24.507142857142856"/>
      <point x="508.2339285714286" y="94.0" type="curve" smooth="yes"/>
      <point x="545.3464285714285" y="145.9857142857143"/>
      <point x="549.5625" y="288.1821428571429"/>
      <point x="549.5625" y="351.91964285714283" type="curve" smooth="yes"/>
      <point x="549.5625" y="431.01428571428573"/>
      <point x="547.1446428571429" y="465.28214285714284"/>
      <point x="542.3089285714286" y="476.7375" type="curve" smooth="yes"/>
      <point x="535.3089285714286" y="500.0892857142857"/>
      <point x="481.93392857142857" y="524.0"/>
      <point x="468.1875" y="524.0" type="curve" smooth="yes"/>
      <point x="408.0982142857143" y="524.0"/>
      <point x="249.1357142857143" y="319.44107142857143"/>
      <point x="201.01785714285714" y="197.7267857142857" type="curve"/>
      <point x="207.3982142857143" y="290.44107142857143"/>
      <point x="236.98035714285714" y="677.5214285714286"/>
      <point x="237.68928571428572" y="710.3714285714286" type="curve" smooth="yes"/>
      <point x="237.68928571428572" y="740.8875"/>
      <point x="187.85892857142858" y="756.0"/>
      <point x="149.39464285714286" y="756.0" type="curve" smooth="yes"/>
      <point x="136.15535714285716" y="756.0"/>
      <point x="133.40892857142856" y="751.5446428571429"/>
      <point x="133.40892857142856" y="742.4696428571428" type="curve" smooth="yes"/>
      <point x="130.57321428571427" y="629.3839285714286"/>
      <point x="101.37142857142857" y="192.19285714285715"/>
      <point x="94.28214285714286" y="59.56785714285714" type="curve"/>
      <point x="89.28214285714286" y="59.56785714285714"/>
      <point x="81.11785714285713" y="43.948214285714286"/>
      <point x="81.11785714285713" y="23.32857142857143" type="curve" smooth="yes"/>
      <point x="81.11785714285713" y="16.291071428571428"/>
      <point x="84.11785714285713" y="15.291071428571428"/>
      <point x="86.28214285714286" y="15.0" type="curve" smooth="yes"/>
      <point x="184.9857142857143" y="-3.0375"/>
      <point x="280.8732142857143" y="-13.0"/>
    </contour>
    <contour>
      <point x="338.34285714285716" y="37.276785714285715" type="curve" smooth="yes"/>
      <point x="306.45535714285717" y="37.276785714285715"/>
      <point x="260.225" y="41.40357142857143"/>
      <point x="195.7267857142857" y="55.20178571428571" type="curve"/>
      <point x="220.5392857142857" y="198.53035714285716"/>
      <point x="399.39464285714286" y="432.74285714285713"/>
      <point x="427.7375" y="432.74285714285713" type="curve" smooth="yes"/>
      <point x="444.2446428571429" y="432.74285714285713"/>
      <point x="445.82678571428573" y="408.6017857142857"/>
      <point x="445.82678571428573" y="324.7" type="curve" smooth="yes"/>
      <point x="445.82678571428573" y="141.70892857142857"/>
      <point x="406.8125" y="37.276785714285715"/>
    </contour>
  </outline>
</glyph>
<glyph name="c" format="2">
  <advance width="443.925"/>
  <unicode hex="0063"/>
  <anchor x="232.0375" y="0.0" name="bottom"/>
  <anchor x="286.1642857142857" y="524.0" name="top"/>
  <outline>
    <contour>
      <point x="245.73214285714286" y="-13.0" type="curve" smooth="yes"/>
      <point x="310.70892857142854" y="-13.0"/>
      <point x="367.41785714285714" y="13.089285714285714"/>
      <point x="408.9625" y="55.8875" type="curve" smooth="yes"/>
      <point x="415.8357142857143" y="62.46964285714286"/>
      <point x="417.41785714285714" y="66.34285714285714"/>
      <point x="417.41785714285714" y="74.08928571428571" type="curve" smooth="yes"/>
      <point x="417.41785714285714" y="87.83571428571429"/>
      <point x="412.0" y="103.58214285714286"/>
      <point x="405.1267857142857" y="103.58214285714286" type="curve" smooth="yes"/>
      <point x="401.1267857142857" y="103.58214285714286"/>
      <point x="398.54464285714283" y="100.87321428571428"/>
      <point x="386.1267857142857" y="91.20178571428572" type="curve" smooth="yes"/>
      <point x="367.45535714285717" y="76.27678571428571"/>
      <point x="323.9482142857143" y="46.591071428571425"/>
      <point x="274.88214285714287" y="46.591071428571425" type="curve" smooth="yes"/>
      <point x="195.3607142857143" y="46.591071428571425"/>
      <point x="157.6" y="111.12678571428572"/>
      <point x="157.6" y="221.46964285714284" type="curve" smooth="yes"/>
      <point x="157.6" y="380.8875"/>
      <point x="211.5767857142857" y="471.82678571428573"/>
      <point x="270.5160714285714" y="471.82678571428573" type="curve" smooth="yes"/>
      <point x="310.3142857142857" y="471.82678571428573"/>
      <point x="339.44107142857143" y="457.9160714285714"/>
      <point x="369.53035714285716" y="427.775" type="curve" smooth="yes"/>
      <point x="377.9482142857143" y="419.8125"/>
      <point x="382.82142857142856" y="416.39464285714286"/>
      <point x="390.53035714285716" y="416.39464285714286" type="curve" smooth="yes"/>
      <point x="402.44107142857143" y="416.39464285714286"/>
      <point x="409.8589285714286" y="447.1267857142857"/>
      <point x="409.8589285714286" y="464.0" type="curve" smooth="yes"/>
      <point x="409.8589285714286" y="474.3285714285714"/>
      <point x="405.8589285714286" y="483.7839285714286"/>
      <point x="393.82142857142856" y="492.20178571428573" type="curve" smooth="yes"/>
      <point x="365.2392857142857" y="513.4178571428571"/>
      <point x="331.8732142857143" y="524.0"/>
      <point x="271.74642857142857" y="524.0" type="curve" smooth="yes"/>
      <point x="165.02857142857144" y="524.0"/>
      <point x="54.85" y="447.3803571428571"/>
      <point x="54.85" y="221.12678571428572" type="curve" smooth="yes"/>
      <point x="54.85" y="39.901785714285715"/>
      <point x="141.32857142857142" y="-13.0"/>
    </contour>
  </outline>
</glyph>
<glyph name="d" format="2">
  <advance width="658.3892857142857"/>
  <unicode hex="0064"/>
  <anchor x="303.0" y="0.0" name="bottom"/>
  <anchor x="323.0" y="262.0" name="center"/>
  <anchor x="484.65714285714284" y="639.0" name="cross"/>
  <anchor x="232.91607142857143" y="533.6053571428571" name="top"/>
  <anchor x="641.7839285714285" y="618.6482142857143" name="topright"/>
  <outline>
    <contour>
      <point x="151.60535714285714" y="-13.0" type="curve" smooth="yes"/>
      <point x="211.69464285714287" y="-13.0"/>
      <point x="376.3803571428571" y="195.44642857142858"/>
      <point x="432.08035714285717" y="316.8696428571429" type="curve"/>
      <point x="427.2446428571429" y="243.95357142857142"/>
      <point x="421.4089285714286" y="127.69464285714285"/>
      <point x="421.4089285714286" y="77.2625" type="curve" smooth="yes"/>
      <point x="421.4089285714286" y="56.591071428571425"/>
      <point x="421.7" y="42.88214285714286"/>
      <point x="424.4089285714286" y="34.2625" type="curve" smooth="yes"/>
      <point x="429.99107142857144" y="11.619642857142857"/>
      <point x="484.075" y="-13.0"/>
      <point x="497.1125" y="-13.0" type="curve" smooth="yes"/>
      <point x="539.6946428571429" y="-13.0"/>
      <point x="628.1875" y="92.65714285714286"/>
      <point x="657.9857142857143" y="132.74642857142857" type="curve" smooth="yes"/>
      <point x="661.4410714285714" y="137.075"/>
      <point x="663.3142857142857" y="142.1125"/>
      <point x="663.3142857142857" y="148.56785714285715" type="curve" smooth="yes"/>
      <point x="663.3142857142857" y="163.60535714285714"/>
      <point x="651.2767857142857" y="181.93392857142857"/>
      <point x="645.9482142857142" y="181.93392857142857" type="curve" smooth="yes"/>
      <point x="641.9482142857142" y="181.93392857142857"/>
      <point x="640.6571428571428" y="179.225"/>
      <point x="636.7839285714285" y="174.76964285714286" type="curve"/>
      <point x="619.8589285714286" y="152.3"/>
      <point x="556.1964285714286" y="78.67500000000001"/>
      <point x="540.3982142857143" y="78.67500000000001" type="curve" smooth="yes"/>
      <point x="529.5625" y="78.67500000000001"/>
      <point x="525.8535714285714" y="84.38392857142858"/>
      <point x="525.8535714285714" y="128.87678571428572" type="curve" smooth="yes"/>
      <point x="525.8535714285714" y="244.56785714285715"/>
      <point x="540.1071428571429" y="443.1410714285714"/>
      <point x="540.1071428571429" y="452.1410714285714" type="curve"/>
      <point x="545.3982142857143" y="452.1410714285714"/>
      <point x="553.5625" y="467.0517857142857"/>
      <point x="553.5625" y="487.6714285714286" type="curve" smooth="yes"/>
      <point x="553.5625" y="494.70892857142854"/>
      <point x="551.2714285714286" y="496.70892857142854"/>
      <point x="548.3982142857143" y="496.70892857142854" type="curve" smooth="yes"/>
      <point x="544.3982142857143" y="496.70892857142854" type="line"/>
      <point x="550.7785714285715" y="594.7428571428571"/>
      <point x="558.8160714285714" y="694.4464285714286"/>
      <point x="558.8160714285714" y="710.3714285714286" type="curve" smooth="yes"/>
      <point x="558.8160714285714" y="740.8875"/>
      <point x="509.69464285714287" y="756.0"/>
      <point x="470.8125" y="756.0" type="curve" smooth="yes"/>
      <point x="457.99107142857144" y="756.0"/>
      <point x="454.82678571428573" y="751.5446428571429"/>
      <point x="454.82678571428573" y="742.4696428571428" type="curve" smooth="yes"/>
      <point x="454.11785714285713" y="675.0839285714286"/>
      <point x="451.5357142857143" y="616.8446428571428"/>
      <point x="443.6625" y="511.7839285714286" type="curve"/>
      <point x="388.85" y="519.1642857142857"/>
      <point x="335.45535714285717" y="524.0"/>
      <point x="314.7607142857143" y="524.0" type="curve" smooth="yes"/>
      <point x="237.8642857142857" y="524.0"/>
      <point x="177.90178571428572" y="483.41785714285714"/>
      <point x="129.19285714285715" y="417.0" type="curve" smooth="yes"/>
      <point x="78.19285714285714" y="348.0"/>
      <point x="75.19285714285714" y="141.29107142857143"/>
      <point x="75.19285714285714" y="77.2625" type="curve" smooth="yes"/>
      <point x="75.19285714285714" y="56.591071428571425"/>
      <point x="76.19285714285714" y="42.88214285714286"/>
      <point x="78.90178571428571" y="34.2625" type="curve" smooth="yes"/>
      <point x="84.48392857142858" y="11.619642857142857"/>
      <point x="138.56785714285715" y="-13.0"/>
    </contour>
    <contour>
      <point x="194.18214285714285" y="78.38392857142858" type="curve" smooth="yes"/>
      <point x="183.3464285714286" y="78.38392857142858"/>
      <point x="179.6375" y="84.09285714285716"/>
      <point x="179.6375" y="128.29464285714286" type="curve" smooth="yes"/>
      <point x="179.6375" y="347.44107142857143"/>
      <point x="224.3232142857143" y="473.1410714285714"/>
      <point x="299.17321428571427" y="473.1410714285714" type="curve" smooth="yes"/>
      <point x="331.0607142857143" y="473.1410714285714"/>
      <point x="377.29107142857146" y="469.01428571428573"/>
      <point x="441.08035714285717" y="455.925" type="curve"/>
      <point x="411.30535714285713" y="312.5964285714286"/>
      <point x="222.525" y="78.38392857142858"/>
    </contour>
  </outline>
</glyph>
<glyph name="e" format="2">
  <advance width="474.0232142857143"/>
  <unicode hex="0065"/>
  <anchor x="233.12678571428572" y="0.0" name="bottom"/>
  <anchor x="370.1267857142857" y="0.0" name="ogonek"/>
  <anchor x="298.1267857142857" y="524.0" name="top"/>
  <outline>
    <contour>
      <point x="247.85892857142858" y="-13.0" type="curve" smooth="yes"/>
      <point x="318.075" y="-13.0"/>
      <point x="379.15" y="16.0"/>
      <point x="422.44107142857143" y="61.417857142857144" type="curve" smooth="yes"/>
      <point x="430.1875" y="69.16428571428571"/>
      <point x="431.76964285714286" y="74.20178571428572"/>
      <point x="431.76964285714286" y="80.20178571428572" type="curve" smooth="yes"/>
      <point x="431.76964285714286" y="95.40357142857142"/>
      <point x="426.3517857142857" y="110.56785714285715"/>
      <point x="419.47857142857146" y="110.56785714285715" type="curve" smooth="yes"/>
      <point x="415.47857142857146" y="110.56785714285715"/>
      <point x="412.0232142857143" y="107.27678571428571"/>
      <point x="399.8964285714286" y="97.02321428571429" type="curve" smooth="yes"/>
      <point x="377.73214285714283" y="79.1875"/>
      <point x="329.8071428571429" y="46.591071428571425"/>
      <point x="278.4125" y="46.591071428571425" type="curve" smooth="yes"/>
      <point x="196.14464285714286" y="46.591071428571425"/>
      <point x="158.30892857142857" y="109.38035714285714"/>
      <point x="158.30892857142857" y="221.17857142857142" type="curve" smooth="yes"/>
      <point x="158.30892857142857" y="237.55892857142857"/>
      <point x="158.30892857142857" y="261.31964285714287"/>
      <point x="159.7267857142857" y="269.4839285714286" type="curve"/>
      <point x="181.06964285714287" y="265.23035714285714"/>
      <point x="212.3375" y="261.6857142857143"/>
      <point x="245.0232142857143" y="261.6857142857143" type="curve" smooth="yes"/>
      <point x="333.1357142857143" y="261.6857142857143"/>
      <point x="439.95714285714286" y="303.4321428571429"/>
      <point x="439.95714285714286" y="407.17857142857144" type="curve" smooth="yes"/>
      <point x="439.95714285714286" y="476.36607142857144"/>
      <point x="394.0982142857143" y="524.0"/>
      <point x="280.9625" y="524.0" type="curve" smooth="yes"/>
      <point x="159.6482142857143" y="524.0"/>
      <point x="56.97678571428571" y="447.3803571428571"/>
      <point x="56.97678571428571" y="221.12678571428572" type="curve" smooth="yes"/>
      <point x="56.97678571428571" y="38.44642857142857"/>
      <point x="144.91071428571428" y="-13.0"/>
    </contour>
    <contour>
      <point x="242.73214285714286" y="304.46964285714284" type="curve" smooth="yes"/>
      <point x="205.75535714285715" y="303.8875"/>
      <point x="172.23392857142858" y="314.52142857142854"/>
      <point x="167.81607142857143" y="320.1928571428571" type="curve"/>
      <point x="182.74107142857144" y="436.34285714285716"/>
      <point x="228.46428571428572" y="480.9392857142857"/>
      <point x="279.0232142857143" y="480.9392857142857" type="curve" smooth="yes"/>
      <point x="326.3803571428571" y="480.9392857142857"/>
      <point x="348.46964285714284" y="449.5964285714286"/>
      <point x="348.46964285714284" y="411.63392857142856" type="curve" smooth="yes"/>
      <point x="348.46964285714284" y="338.39464285714286"/>
      <point x="307.79821428571427" y="305.925"/>
    </contour>
  </outline>
</glyph>
<glyph name="f" format="2">
  <advance width="329.74107142857144"/>
  <unicode hex="0066"/>
  <anchor x="153.0" y="0.0" name="bottom"/>
  <anchor x="187.35714285714286" y="661.8964285714286" name="top"/>
  <outline>
    <contour>
      <point x="29.15" y="-244.0" type="curve" smooth="yes"/>
      <point x="67.09821428571429" y="-244.0"/>
      <point x="113.3" y="-226.1642857142857"/>
      <point x="153.50178571428572" y="-188.54464285714286" type="curve" smooth="yes"/>
      <point x="194.28571428571428" y="-150.34285714285716"/>
      <point x="225.4875" y="-87.93928571428572"/>
      <point x="226.65178571428572" y="-0.9303571428571402" type="curve" smooth="yes"/>
      <point x="229.85357142857143" y="441.9392857142857" type="line"/>
      <point x="393.925" y="441.9392857142857" type="line" smooth="yes"/>
      <point x="409.63392857142856" y="441.9392857142857"/>
      <point x="417.79821428571427" y="463.23035714285714"/>
      <point x="417.79821428571427" y="485.7607142857143" type="curve" smooth="yes"/>
      <point x="417.79821428571427" y="496.70892857142854"/>
      <point x="414.79821428571427" y="499.0"/>
      <point x="408.34285714285716" y="499.0" type="curve" smooth="yes"/>
      <point x="229.5625" y="499.0" type="line"/>
      <point x="231.68928571428572" y="560.8125" type="line" smooth="yes"/>
      <point x="234.525" y="661.0142857142857"/>
      <point x="264.90535714285716" y="691.4839285714286"/>
      <point x="310.66607142857146" y="691.4839285714286" type="curve" smooth="yes"/>
      <point x="358.69464285714287" y="691.4839285714286"/>
      <point x="396.34285714285716" y="679.1410714285714"/>
      <point x="403.50714285714287" y="677.4321428571428" type="curve" smooth="yes"/>
      <point x="407.9625" y="676.4321428571428"/>
      <point x="418.34285714285716" y="671.8875"/>
      <point x="422.7607142857143" y="671.8875" type="curve" smooth="yes"/>
      <point x="429.925" y="671.8875"/>
      <point x="435.0892857142857" y="686.0517857142858"/>
      <point x="435.0892857142857" y="699.2160714285715" type="curve" smooth="yes"/>
      <point x="435.0892857142857" y="710.1642857142857"/>
      <point x="433.2160714285714" y="717.9482142857142"/>
      <point x="425.30535714285713" y="723.1125" type="curve" smooth="yes"/>
      <point x="403.2160714285714" y="737.4928571428571"/>
      <point x="355.1267857142857" y="756.0"/>
      <point x="311.6714285714286" y="756.0" type="curve" smooth="yes"/>
      <point x="268.34285714285716" y="756.0"/>
      <point x="222.775" y="740.3660714285714"/>
      <point x="182.53571428571428" y="703.2910714285714" type="curve" smooth="yes"/>
      <point x="136.20714285714286" y="660.8357142857143"/>
      <point x="119.28214285714286" y="602.2160714285715"/>
      <point x="119.28214285714286" y="512.7321428571429" type="curve" smooth="yes"/>
      <point x="119.28214285714286" y="499.0" type="line"/>
      <point x="54.8875" y="499.0" type="line" smooth="yes"/>
      <point x="39.17857142857143" y="499.0"/>
      <point x="31.723214285714285" y="477.70892857142854"/>
      <point x="31.723214285714285" y="455.17857142857144" type="curve" smooth="yes"/>
      <point x="31.723214285714285" y="443.52142857142854"/>
      <point x="34.01428571428571" y="441.9392857142857"/>
      <point x="40.46964285714286" y="441.9392857142857" type="curve" smooth="yes"/>
      <point x="124.28214285714286" y="441.9392857142857" type="line"/>
      <point x="124.28214285714286" y="70.85357142857143" type="line" smooth="yes"/>
      <point x="124.28214285714286" y="-146.00535714285715"/>
      <point x="98.59642857142858" y="-180.775"/>
      <point x="19.34285714285714" y="-180.775" type="curve" smooth="yes"/>
      <point x="-32.901785714285715" y="-180.775"/>
      <point x="-100.07142857142857" y="-157.50714285714287"/>
      <point x="-126.66785714285714" y="-147.0" type="curve" smooth="yes"/>
      <point x="-132.95892857142857" y="-145.29107142857143"/>
      <point x="-139.37678571428572" y="-142.1642857142857"/>
      <point x="-141.66785714285714" y="-142.1642857142857" type="curve" smooth="yes"/>
      <point x="-146.70535714285714" y="-142.1642857142857"/>
      <point x="-151.86964285714285" y="-150.075"/>
      <point x="-151.86964285714285" y="-169.23928571428573" type="curve" smooth="yes"/>
      <point x="-151.86964285714285" y="-182.44107142857143"/>
      <point x="-148.16071428571428" y="-195.76964285714286"/>
      <point x="-137.79464285714286" y="-201.225" type="curve" smooth="yes"/>
      <point x="-122.88392857142857" y="-210.225"/>
      <point x="-42.385714285714286" y="-244.0"/>
    </contour>
  </outline>
</glyph>
